<svg width="28" height="18" viewBox="0 0 28 18" fill="none" xmlns="http://www.w3.org/2000/svg">
<path d="M17.989 16.397C18.0751 16.529 18.124 16.6819 18.1304 16.8393C18.1368 16.9968 18.1006 17.1531 18.0255 17.2917C17.9504 17.4303 17.8393 17.546 17.7039 17.6267C17.5685 17.7074 17.4138 17.75 17.2562 17.75H1.11903C0.96142 17.75 0.806737 17.7074 0.671329 17.6267C0.535921 17.546 0.424815 17.4303 0.349749 17.2917C0.274684 17.1531 0.238447 16.9968 0.244867 16.8393C0.251287 16.6819 0.300125 16.529 0.386221 16.397C1.6179 14.5011 3.42957 13.0543 5.55091 12.2725C4.37819 11.4917 3.48785 10.3543 3.01155 9.02847C2.53525 7.70259 2.49828 6.25863 2.9061 4.91012C3.31393 3.56161 4.1449 2.38013 5.27613 1.54041C6.40736 0.700696 7.77879 0.247314 9.18763 0.247314C10.5965 0.247314 11.9679 0.700696 13.0991 1.54041C14.2304 2.38013 15.0613 3.56161 15.4692 4.91012C15.877 6.25863 15.84 7.70259 15.3637 9.02847C14.8874 10.3543 13.9971 11.4917 12.8243 12.2725C14.9457 13.0543 16.7574 14.5011 17.989 16.397ZM27.6042 16.3806C26.3722 14.4927 24.5646 13.0521 22.4493 12.2725C23.8338 11.3399 24.8108 9.91479 25.1816 8.28723C25.5524 6.65967 25.289 4.95199 24.445 3.51179C23.6011 2.07159 22.24 1.00711 20.6389 0.53504C19.0378 0.062968 17.317 0.218779 15.8267 0.970758C15.7697 1.00018 15.7199 1.04177 15.6808 1.09259C15.6416 1.14341 15.6142 1.2022 15.6003 1.26482C15.5864 1.32743 15.5865 1.39233 15.6004 1.45492C15.6144 1.51751 15.642 1.57626 15.6812 1.62701C16.7894 3.0093 17.4258 4.71011 17.4972 6.48032C17.5687 8.25053 17.0714 9.99709 16.0783 11.4642C16.0141 11.5601 15.9903 11.6774 16.0123 11.7907C16.0342 11.904 16.1 12.004 16.1953 12.069C17.4902 12.9728 18.5987 14.1177 19.4601 15.4411C19.8076 15.9731 19.9495 16.6135 19.8593 17.2425C19.8492 17.305 19.8528 17.3691 19.8698 17.4301C19.8869 17.4912 19.917 17.5478 19.9581 17.5961C19.9992 17.6443 20.0503 17.6831 20.1078 17.7097C20.1654 17.7362 20.228 17.75 20.2914 17.75H26.8867C27.0794 17.75 27.2667 17.6865 27.4195 17.5692C27.5724 17.4519 27.6823 17.2875 27.7322 17.1014C27.7626 16.979 27.7669 16.8516 27.7449 16.7274C27.7228 16.6032 27.6749 16.485 27.6042 16.3806Z" fill="#802424"/>
</svg>
