<svg width="54" height="63" viewBox="0 0 54 63" fill="none" xmlns="http://www.w3.org/2000/svg">
<path fill-rule="evenodd" clip-rule="evenodd" d="M30.478 14.2567C35.6878 11.8359 40.0804 7.48686 45.7667 7.08954C51.9453 6.65782 58.4769 8.0898 62.9636 11.9868C67.4127 15.851 68.7084 22.0136 69.6175 27.8053C70.4477 33.0939 69.6921 38.4331 67.9291 43.6186C66.1921 48.7277 63.3699 53.326 59.5766 57.3389C55.4032 61.7538 50.9005 66.2021 45.0127 67.8614C38.7951 69.6138 32.0857 69.1001 26.2916 66.7197C20.4852 64.3344 15.8543 59.9156 12.7865 54.6224C9.82085 49.5056 8.94846 43.5057 9.37452 37.5315C9.78524 31.7725 11.1417 25.7445 15.1622 21.3102C18.9799 17.0998 25.2753 16.6741 30.478 14.2567Z" fill="#FCF0F0"/>
<mask id="mask0_455_203" style="mask-type:alpha" maskUnits="userSpaceOnUse" x="17" y="14" width="48" height="49">
<rect x="17" y="30.0005" width="36" height="36" transform="rotate(-24.8646 17 30.0005)" fill="#D9D9D9"/>
</mask>
<g mask="url(#mask0_455_203)">
<path d="M27.9959 40.0066C27.7067 40.1406 27.419 40.1551 27.1326 40.0501C26.8463 39.945 26.6361 39.7478 26.502 39.4585C26.3679 39.1692 26.3534 38.8815 26.4585 38.5954C26.5635 38.3093 26.7607 38.0992 27.0499 37.9652L31.2113 36.0367C31.8027 35.7626 32.4082 35.721 33.0276 35.9119C33.647 36.1028 34.1246 36.4691 34.4604 37.0108L27.9959 40.0066ZM36.4083 50.9555C37.586 50.4097 38.3961 49.5335 38.8384 48.327C39.2808 47.1205 39.2291 45.9284 38.6833 44.7507C38.1375 43.5729 37.2613 42.7629 36.0548 42.3205C34.8483 41.8781 33.6562 41.9299 32.4784 42.4757C31.3007 43.0215 30.4907 43.8976 30.0483 45.1041C29.6059 46.3106 29.6576 47.5028 30.2034 48.6805C30.7493 49.8583 31.6254 50.6683 32.8319 51.1107C34.0384 51.553 35.2305 51.5013 36.4083 50.9555ZM54.9644 42.356C55.6187 42.0528 56.0711 41.5596 56.3216 40.8766C56.572 40.1935 56.5456 39.5248 56.2424 38.8705C55.9391 38.2162 55.446 37.7638 54.7629 37.5134C54.0799 37.2629 53.4112 37.2893 52.7569 37.5926C52.1026 37.8958 51.6502 38.3889 51.3998 39.072C51.1493 39.7551 51.1757 40.4237 51.4789 41.078C51.7822 41.7323 52.2753 42.1847 52.9584 42.4352C53.6414 42.6856 54.3101 42.6592 54.9644 42.356ZM35.265 48.4967C34.7698 48.7262 34.2696 48.7475 33.7644 48.5605C33.2591 48.3736 32.8918 48.0325 32.6622 47.5373C32.4328 47.0421 32.4115 46.5418 32.5984 46.0366C32.7854 45.5313 33.1265 45.164 33.6217 44.9345C34.1169 44.705 34.6171 44.6837 35.1224 44.8707C35.6276 45.0576 35.995 45.3987 36.2245 45.8939C36.454 46.3891 36.4753 46.8894 36.2883 47.3946C36.1014 47.8998 35.7603 48.2672 35.265 48.4967ZM52.4809 35.282C52.9541 35.1687 53.366 35.1108 53.7166 35.1083C54.0673 35.1058 54.4867 35.1738 54.9747 35.3121L51.4015 27.6018C51.088 26.9253 50.5787 26.4578 49.8736 26.1993C49.1686 25.9408 48.4778 25.9683 47.8012 26.2818L40.0124 29.8914L37.8896 29.0566L38.912 26.2682L37.5178 25.7571L34.9254 32.8275L36.3877 33.3071L37.41 30.5188L39.5012 31.2856L40.7093 33.8923C41.1229 34.7848 41.1592 35.696 40.8181 36.6261C40.4771 37.5562 39.8604 38.2281 38.9679 38.6417L36.0419 39.9977C36.575 40.1237 37.0314 40.2831 37.4111 40.4759C37.7909 40.6687 38.2125 40.929 38.6759 41.2568L39.9139 40.6831C41.3761 40.0055 42.3838 38.9121 42.9371 37.4031C43.4904 35.894 43.4283 34.4084 42.7507 32.9462L42.0472 31.4282L48.7472 28.3232C48.8694 28.2666 48.9879 28.2593 49.1028 28.3015C49.2178 28.3436 49.3035 28.4257 49.3601 28.5479L52.4809 35.282ZM49.1227 41.1526C49.0257 40.655 48.9811 40.2315 48.989 39.8821C48.9969 39.5326 49.069 39.1168 49.2052 38.6346L40.1548 42.8288C40.4008 43.1903 40.5908 43.5158 40.7249 43.8051C40.859 44.0944 40.9843 44.4495 41.1008 44.8702L49.1227 41.1526ZM55.9105 44.3974C54.6821 44.9666 53.4385 45.0205 52.1797 44.5589C50.9209 44.0974 50.0068 43.2524 49.4376 42.0241C48.8683 40.7957 48.8145 39.5521 49.276 38.2933C49.7376 37.0345 50.5825 36.1205 51.8109 35.5512C53.0392 34.9819 54.2828 34.9281 55.5416 35.3897C56.8004 35.8512 57.7145 36.6961 58.2837 37.9245C58.853 39.1528 58.9068 40.3964 58.4453 41.6552C57.9838 42.9141 57.1388 43.8281 55.9105 44.3974ZM37.3543 52.9969C35.6165 53.8022 33.8513 53.8763 32.0588 53.2191C30.2663 52.5619 28.9674 51.3644 28.162 49.6266C27.3567 47.8887 27.2826 46.1236 27.9398 44.3311C28.5971 42.5386 29.7946 41.2397 31.5324 40.4343C33.2702 39.6289 35.0354 39.5548 36.8279 40.212C38.6204 40.8693 39.9195 42.0672 40.7249 43.8051C41.5302 45.5429 41.6041 47.3076 40.9469 49.1001C40.2897 50.8926 39.0922 52.1915 37.3543 52.9969Z" fill="#CC0000"/>
</g>
</svg>
