<svg width="32" height="32" viewBox="0 0 32 32" fill="none" xmlns="http://www.w3.org/2000/svg">
<path d="M16.0003 17.3333C16.7367 17.3333 17.3337 16.7364 17.3337 16C17.3337 15.2636 16.7367 14.6666 16.0003 14.6666C15.2639 14.6666 14.667 15.2636 14.667 16C14.667 16.7364 15.2639 17.3333 16.0003 17.3333Z" fill="#BB1D19"/>
<path d="M27.3333 17.3333C28.0697 17.3333 28.6667 16.7364 28.6667 16C28.6667 15.2636 28.0697 14.6666 27.3333 14.6666C26.5969 14.6666 26 15.2636 26 16C26 16.7364 26.5969 17.3333 27.3333 17.3333Z" fill="#BB1D19"/>
<path d="M4.66634 17.3333C5.40271 17.3333 5.99967 16.7364 5.99967 16C5.99967 15.2636 5.40271 14.6666 4.66634 14.6666C3.92997 14.6666 3.33301 15.2636 3.33301 16C3.33301 16.7364 3.92997 17.3333 4.66634 17.3333Z" fill="#BB1D19"/>
<path d="M16.0003 17.3333C16.7367 17.3333 17.3337 16.7364 17.3337 16C17.3337 15.2636 16.7367 14.6666 16.0003 14.6666C15.2639 14.6666 14.667 15.2636 14.667 16C14.667 16.7364 15.2639 17.3333 16.0003 17.3333Z" stroke="#BB1D19" stroke-linecap="round" stroke-linejoin="round"/>
<path d="M27.3333 17.3333C28.0697 17.3333 28.6667 16.7364 28.6667 16C28.6667 15.2636 28.0697 14.6666 27.3333 14.6666C26.5969 14.6666 26 15.2636 26 16C26 16.7364 26.5969 17.3333 27.3333 17.3333Z" stroke="#BB1D19" stroke-linecap="round" stroke-linejoin="round"/>
<path d="M4.66634 17.3333C5.40271 17.3333 5.99967 16.7364 5.99967 16C5.99967 15.2636 5.40271 14.6666 4.66634 14.6666C3.92997 14.6666 3.33301 15.2636 3.33301 16C3.33301 16.7364 3.92997 17.3333 4.66634 17.3333Z" stroke="#BB1D19" stroke-linecap="round" stroke-linejoin="round"/>
</svg>
