<svg width="16" height="18" viewBox="0 0 16 18" fill="none" xmlns="http://www.w3.org/2000/svg">
<path d="M14.1665 2.21082H12.2915V1.58582C12.2915 1.42006 12.2257 1.26108 12.1084 1.14387C11.9912 1.02666 11.8323 0.960815 11.6665 0.960815C11.5007 0.960815 11.3418 1.02666 11.2246 1.14387C11.1074 1.26108 11.0415 1.42006 11.0415 1.58582V2.21082H4.7915V1.58582C4.7915 1.42006 4.72566 1.26108 4.60845 1.14387C4.49124 1.02666 4.33226 0.960815 4.1665 0.960815C4.00074 0.960815 3.84177 1.02666 3.72456 1.14387C3.60735 1.26108 3.5415 1.42006 3.5415 1.58582V2.21082H1.6665C1.33498 2.21082 1.01704 2.34251 0.78262 2.57693C0.5482 2.81135 0.416504 3.12929 0.416504 3.46082V15.9608C0.416504 16.2923 0.5482 16.6103 0.78262 16.8447C1.01704 17.0791 1.33498 17.2108 1.6665 17.2108H14.1665C14.498 17.2108 14.816 17.0791 15.0504 16.8447C15.2848 16.6103 15.4165 16.2923 15.4165 15.9608V3.46082C15.4165 3.12929 15.2848 2.81135 15.0504 2.57693C14.816 2.34251 14.498 2.21082 14.1665 2.21082ZM3.5415 3.46082V4.08582C3.5415 4.25158 3.60735 4.41055 3.72456 4.52776C3.84177 4.64497 4.00074 4.71082 4.1665 4.71082C4.33226 4.71082 4.49124 4.64497 4.60845 4.52776C4.72566 4.41055 4.7915 4.25158 4.7915 4.08582V3.46082H11.0415V4.08582C11.0415 4.25158 11.1074 4.41055 11.2246 4.52776C11.3418 4.64497 11.5007 4.71082 11.6665 4.71082C11.8323 4.71082 11.9912 4.64497 12.1084 4.52776C12.2257 4.41055 12.2915 4.25158 12.2915 4.08582V3.46082H14.1665V5.96082H1.6665V3.46082H3.5415ZM14.1665 15.9608H1.6665V7.21082H14.1665V15.9608ZM8.854 10.0233C8.854 10.2087 8.79902 10.39 8.69601 10.5442C8.59299 10.6983 8.44658 10.8185 8.27527 10.8895C8.10396 10.9604 7.91546 10.979 7.73361 10.9428C7.55175 10.9066 7.3847 10.8173 7.25359 10.6862C7.12248 10.5551 7.03319 10.3881 6.99702 10.2062C6.96084 10.0244 6.97941 9.83586 7.05037 9.66455C7.12132 9.49324 7.24149 9.34683 7.39566 9.24381C7.54983 9.1408 7.73108 9.08582 7.9165 9.08582C8.16514 9.08582 8.4036 9.18459 8.57942 9.3604C8.75523 9.53622 8.854 9.77468 8.854 10.0233ZM12.2915 10.0233C12.2915 10.2087 12.2365 10.39 12.1335 10.5442C12.0305 10.6983 11.8841 10.8185 11.7128 10.8895C11.5415 10.9604 11.353 10.979 11.1711 10.9428C10.9893 10.9066 10.8222 10.8173 10.6911 10.6862C10.56 10.5551 10.4707 10.3881 10.4345 10.2062C10.3983 10.0244 10.4169 9.83586 10.4879 9.66455C10.5588 9.49324 10.679 9.34683 10.8332 9.24381C10.9873 9.1408 11.1686 9.08582 11.354 9.08582C11.6026 9.08582 11.8411 9.18459 12.0169 9.3604C12.1927 9.53622 12.2915 9.77468 12.2915 10.0233ZM5.4165 13.1483C5.4165 13.3337 5.36152 13.515 5.25851 13.6692C5.15549 13.8233 5.00908 13.9435 4.83777 14.0145C4.66646 14.0854 4.47796 14.104 4.29611 14.0678C4.11425 14.0316 3.9472 13.9423 3.81609 13.8112C3.68498 13.6801 3.59569 13.5131 3.55952 13.3312C3.52334 13.1494 3.54191 12.9609 3.61287 12.7896C3.68382 12.6182 3.80399 12.4718 3.95816 12.3688C4.11233 12.2658 4.29358 12.2108 4.479 12.2108C4.72764 12.2108 4.9661 12.3096 5.14192 12.4854C5.31773 12.6612 5.4165 12.8997 5.4165 13.1483ZM8.854 13.1483C8.854 13.3337 8.79902 13.515 8.69601 13.6692C8.59299 13.8233 8.44658 13.9435 8.27527 14.0145C8.10396 14.0854 7.91546 14.104 7.73361 14.0678C7.55175 14.0316 7.3847 13.9423 7.25359 13.8112C7.12248 13.6801 7.03319 13.5131 6.99702 13.3312C6.96084 13.1494 6.97941 12.9609 7.05037 12.7896C7.12132 12.6182 7.24149 12.4718 7.39566 12.3688C7.54983 12.2658 7.73108 12.2108 7.9165 12.2108C8.16514 12.2108 8.4036 12.3096 8.57942 12.4854C8.75523 12.6612 8.854 12.8997 8.854 13.1483ZM12.2915 13.1483C12.2915 13.3337 12.2365 13.515 12.1335 13.6692C12.0305 13.8233 11.8841 13.9435 11.7128 14.0145C11.5415 14.0854 11.353 14.104 11.1711 14.0678C10.9893 14.0316 10.8222 13.9423 10.6911 13.8112C10.56 13.6801 10.4707 13.5131 10.4345 13.3312C10.3983 13.1494 10.4169 12.9609 10.4879 12.7896C10.5588 12.6182 10.679 12.4718 10.8332 12.3688C10.9873 12.2658 11.1686 12.2108 11.354 12.2108C11.6026 12.2108 11.8411 12.3096 12.0169 12.4854C12.1927 12.6612 12.2915 12.8997 12.2915 13.1483Z" fill="white"/>
</svg>
