<svg width="1074" height="417" viewBox="0 0 1074 417" fill="none" xmlns="http://www.w3.org/2000/svg">
<line x1="126.5" y1="8.00263" x2="124.5" y2="388.003" stroke="#BAB3B3" stroke-dasharray="4 4"/>
<line x1="211.5" y1="8.00263" x2="209.5" y2="388.003" stroke="#BAB3B3" stroke-dasharray="4 4"/>
<line x1="296.5" y1="8.00263" x2="294.5" y2="388.003" stroke="#BAB3B3" stroke-dasharray="4 4"/>
<line x1="381.5" y1="8.00263" x2="379.5" y2="388.003" stroke="#BAB3B3" stroke-dasharray="4 4"/>
<line x1="466.5" y1="8.00263" x2="464.5" y2="388.003" stroke="#BAB3B3" stroke-dasharray="4 4"/>
<line x1="551.5" y1="8.00263" x2="549.5" y2="388.003" stroke="#BAB3B3" stroke-dasharray="4 4"/>
<line x1="636.5" y1="8.00263" x2="634.5" y2="388.003" stroke="#BAB3B3" stroke-dasharray="4 4"/>
<line x1="721.5" y1="8.00263" x2="719.5" y2="388.003" stroke="#BAB3B3" stroke-dasharray="4 4"/>
<line x1="806.5" y1="8.00263" x2="804.5" y2="388.003" stroke="#BAB3B3" stroke-dasharray="4 4"/>
<line x1="891.5" y1="8.00263" x2="889.5" y2="388.003" stroke="#BAB3B3" stroke-dasharray="4 4"/>
<line x1="976.5" y1="8.00263" x2="974.5" y2="388.003" stroke="#BAB3B3" stroke-dasharray="4 4"/>
<line x1="1061.5" y1="8.00263" x2="1059.5" y2="388.003" stroke="#BAB3B3" stroke-dasharray="4 4"/>
<line x1="39" y1="387.5" x2="1061" y2="387.5" stroke="#332F2F"/>
<line x1="40" y1="9.5" x2="1062" y2="9.5" stroke="#EBE4E4"/>
<line x1="40" y1="51.5" x2="1062" y2="51.5" stroke="#EBE4E4"/>
<line x1="40" y1="93.5" x2="1062" y2="93.5" stroke="#EBE4E4"/>
<line x1="40" y1="135.5" x2="1062" y2="135.5" stroke="#EBE4E4"/>
<line x1="40" y1="177.5" x2="1062" y2="177.5" stroke="#EBE4E4"/>
<line x1="40" y1="219.5" x2="1062" y2="219.5" stroke="#EBE4E4"/>
<line x1="40" y1="261.5" x2="1062" y2="261.5" stroke="#EBE4E4"/>
<line x1="40" y1="303.5" x2="1062" y2="303.5" stroke="#EBE4E4"/>
<line x1="40" y1="345.5" x2="1062" y2="345.5" stroke="#EBE4E4"/>
<path d="M42 388.115L51.9804 364.535C61.9608 340.955 81.9216 293.795 101.882 257.34C121.843 220.886 141.804 195.136 161.765 195.507C181.725 195.878 201.686 222.368 221.647 244.567C241.608 266.767 261.569 284.674 281.529 293.645C301.49 302.615 321.451 302.648 341.412 287.449C361.373 272.249 381.333 241.816 401.294 245.894C421.255 249.971 441.216 288.559 461.176 306.112C481.137 323.666 501.098 320.187 521.059 300.405C541.02 280.623 560.98 244.539 580.941 204.122C600.902 163.705 620.863 118.955 640.824 94.6497C660.784 70.3439 680.745 66.4822 700.706 72.5159C720.667 78.5496 740.627 94.4787 760.588 91.845C780.549 89.2114 800.51 68.0149 820.471 111.111C840.431 154.207 860.392 261.595 880.353 295.112C900.314 328.63 920.275 288.276 940.235 241.815C960.196 195.355 980.157 142.788 1000.12 141.176C1020.08 139.564 1040.04 188.906 1050.02 213.578L1060 238.249" stroke="#CC0000" stroke-width="4"/>
<path d="M51.9804 364.535L42 388.115H1060V238.249L1050.02 213.578L1050.02 213.577C1040.04 188.906 1020.08 139.564 1000.12 141.176C980.157 142.788 960.196 195.355 940.235 241.815C920.275 288.276 900.314 328.63 880.353 295.112C860.392 261.595 840.431 154.207 820.471 111.111C800.51 68.0149 780.549 89.2114 760.588 91.845C740.627 94.4787 720.667 78.5496 700.706 72.5159C680.745 66.4822 660.784 70.3439 640.824 94.6497C620.863 118.955 600.902 163.705 580.941 204.122C560.98 244.539 541.02 280.623 521.059 300.405C501.098 320.187 481.137 323.666 461.176 306.112C441.216 288.559 421.255 249.971 401.294 245.894C381.333 241.816 361.373 272.249 341.412 287.449C321.451 302.648 301.49 302.615 281.529 293.645C261.569 284.674 241.608 266.767 221.647 244.567C201.686 222.368 181.725 195.878 161.765 195.507C141.804 195.136 121.843 220.886 101.882 257.34C81.9216 293.795 61.9608 340.955 51.9804 364.535Z" fill="url(#paint0_linear_0_1)"/>
<path d="M16.5241 393.169C15.7386 393.166 15.0675 392.959 14.5107 392.548C13.9538 392.137 13.5279 391.538 13.233 390.753C12.938 389.967 12.7905 389.021 12.7905 387.914C12.7905 386.81 12.938 385.867 13.233 385.085C13.5313 384.303 13.9588 383.706 14.5156 383.295C15.0758 382.884 15.7453 382.679 16.5241 382.679C17.303 382.679 17.9709 382.886 18.5277 383.3C19.0845 383.711 19.5104 384.308 19.8054 385.09C20.1037 385.869 20.2528 386.81 20.2528 387.914C20.2528 389.024 20.1054 389.972 19.8104 390.758C19.5154 391.54 19.0895 392.138 18.5327 392.553C17.9759 392.964 17.3063 393.169 16.5241 393.169ZM16.5241 391.842C17.2135 391.842 17.7521 391.505 18.1399 390.832C18.531 390.16 18.7266 389.187 18.7266 387.914C18.7266 387.069 18.6371 386.355 18.4581 385.771C18.2824 385.185 18.0289 384.741 17.6974 384.439C17.3693 384.134 16.9782 383.982 16.5241 383.982C15.8381 383.982 15.2995 384.32 14.9084 384.996C14.5173 385.672 14.3201 386.645 14.3168 387.914C14.3168 388.763 14.4046 389.48 14.5803 390.067C14.7592 390.65 15.0128 391.093 15.3409 391.394C15.669 391.692 16.0634 391.842 16.5241 391.842Z" fill="#736D6D"/>
<path d="M9.84233 340.818V351H8.30114V342.359H8.24148L5.8054 343.95V342.479L8.34588 340.818H9.84233ZM16.1413 351.169C15.3558 351.166 14.6847 350.959 14.1278 350.548C13.571 350.137 13.1451 349.538 12.8501 348.753C12.5552 347.967 12.4077 347.021 12.4077 345.914C12.4077 344.81 12.5552 343.867 12.8501 343.085C13.1484 342.303 13.576 341.706 14.1328 341.295C14.6929 340.884 15.3625 340.679 16.1413 340.679C16.9202 340.679 17.5881 340.886 18.1449 341.3C18.7017 341.711 19.1276 342.308 19.4226 343.09C19.7209 343.869 19.87 344.81 19.87 345.914C19.87 347.024 19.7225 347.972 19.4276 348.758C19.1326 349.54 18.7067 350.138 18.1499 350.553C17.593 350.964 16.9235 351.169 16.1413 351.169ZM16.1413 349.842C16.8307 349.842 17.3693 349.505 17.7571 348.832C18.1482 348.16 18.3438 347.187 18.3438 345.914C18.3438 345.069 18.2543 344.355 18.0753 343.771C17.8996 343.185 17.6461 342.741 17.3146 342.439C16.9865 342.134 16.5954 341.982 16.1413 341.982C15.4553 341.982 14.9167 342.32 14.5256 342.996C14.1345 343.672 13.9373 344.645 13.9339 345.914C13.9339 346.763 14.0218 347.48 14.1974 348.067C14.3764 348.65 14.63 349.093 14.9581 349.394C15.2862 349.692 15.6806 349.842 16.1413 349.842ZM23.0208 348.41L23.0108 346.595H23.2694L26.312 343.364H28.0918L24.6216 347.043H24.388L23.0208 348.41ZM21.6536 351V340.818H23.1401V351H21.6536ZM26.476 351L23.7417 347.371L24.7658 346.332L28.3006 351H26.476Z" fill="#736D6D"/>
<path d="M9.84233 298.818V309H8.30114V300.359H8.24148L5.8054 301.95V300.479L8.34588 298.818H9.84233ZM15.9574 309.139C15.3343 309.139 14.7741 309.02 14.277 308.781C13.7831 308.539 13.3887 308.208 13.0938 307.787C12.7988 307.366 12.6413 306.885 12.6214 306.345H14.1129C14.1494 306.783 14.3433 307.142 14.6946 307.424C15.0459 307.706 15.4669 307.847 15.9574 307.847C16.3485 307.847 16.6948 307.757 16.9964 307.578C17.3014 307.396 17.54 307.146 17.7124 306.827C17.888 306.509 17.9759 306.146 17.9759 305.739C17.9759 305.324 17.8864 304.955 17.7074 304.63C17.5284 304.305 17.2815 304.05 16.9666 303.864C16.6551 303.679 16.2971 303.584 15.8928 303.581C15.5845 303.581 15.2746 303.634 14.9631 303.74C14.6515 303.846 14.3996 303.985 14.2074 304.158L12.8004 303.949L13.3722 298.818H18.9702V300.136H14.6499L14.3267 302.984H14.3864C14.5852 302.792 14.8487 302.631 15.1768 302.502C15.5083 302.373 15.8629 302.308 16.2408 302.308C16.8606 302.308 17.4124 302.456 17.8963 302.751C18.3835 303.046 18.7663 303.448 19.0447 303.959C19.3265 304.466 19.4657 305.049 19.4624 305.709C19.4657 306.368 19.3165 306.957 19.0149 307.474C18.7166 307.991 18.3023 308.398 17.772 308.697C17.245 308.992 16.6402 309.139 15.9574 309.139ZM22.6653 306.41L22.6554 304.595H22.9139L25.9565 301.364H27.7363L24.2662 305.043H24.0325L22.6653 306.41ZM21.2981 309V298.818H22.7846V309H21.2981ZM26.1206 309L23.3862 305.371L24.4103 304.332L27.9451 309H26.1206Z" fill="#736D6D"/>
<path d="M5.9794 267V265.886L9.42472 262.317C9.79261 261.929 10.0959 261.589 10.3345 261.298C10.5765 261.003 10.7571 260.723 10.8764 260.457C10.9957 260.192 11.0554 259.911 11.0554 259.612C11.0554 259.274 10.9759 258.982 10.8168 258.737C10.6577 258.489 10.4406 258.298 10.1655 258.165C9.89039 258.03 9.58049 257.962 9.2358 257.962C8.87121 257.962 8.55303 258.036 8.28125 258.185C8.00947 258.335 7.80066 258.545 7.65483 258.817C7.509 259.089 7.43608 259.407 7.43608 259.771H5.96946C5.96946 259.152 6.11198 258.61 6.39702 258.146C6.68205 257.682 7.07315 257.322 7.57031 257.067C8.06747 256.808 8.63258 256.679 9.26562 256.679C9.9053 256.679 10.4688 256.807 10.956 257.062C11.4465 257.314 11.8293 257.658 12.1044 258.096C12.3795 258.53 12.517 259.021 12.517 259.567C12.517 259.945 12.4458 260.315 12.3033 260.676C12.1641 261.037 11.9205 261.44 11.5724 261.884C11.2244 262.325 10.7405 262.86 10.1207 263.49L8.0973 265.608V265.683H12.6811V267H5.9794ZM17.9261 267.139C17.303 267.139 16.7429 267.02 16.2457 266.781C15.7519 266.539 15.3575 266.208 15.0625 265.787C14.7675 265.366 14.6101 264.885 14.5902 264.345H16.0817C16.1181 264.783 16.312 265.142 16.6634 265.424C17.0147 265.706 17.4356 265.847 17.9261 265.847C18.3172 265.847 18.6636 265.757 18.9652 265.578C19.2701 265.396 19.5088 265.146 19.6811 264.827C19.8568 264.509 19.9446 264.146 19.9446 263.739C19.9446 263.324 19.8551 262.955 19.6761 262.63C19.4972 262.305 19.2502 262.05 18.9354 261.864C18.6238 261.679 18.2659 261.584 17.8615 261.581C17.5533 261.581 17.2434 261.634 16.9318 261.74C16.6203 261.846 16.3684 261.985 16.1761 262.158L14.7692 261.949L15.3409 256.818H20.9389V258.136H16.6186L16.2955 260.984H16.3551C16.554 260.792 16.8175 260.631 17.1456 260.502C17.477 260.373 17.8317 260.308 18.2095 260.308C18.8293 260.308 19.3812 260.456 19.8651 260.751C20.3523 261.046 20.7351 261.448 21.0135 261.959C21.2952 262.466 21.4344 263.049 21.4311 263.709C21.4344 264.368 21.2853 264.957 20.9837 265.474C20.6854 265.991 20.2711 266.398 19.7408 266.697C19.2138 266.992 18.6089 267.139 17.9261 267.139ZM24.6341 264.41L24.6241 262.595H24.8826L27.9252 259.364H29.7051L26.2349 263.043H26.0012L24.6341 264.41ZM23.2669 267V256.818H24.7534V267H23.2669ZM28.0893 267L25.3549 263.371L26.3791 262.332L29.9139 267H28.0893Z" fill="#736D6D"/>
<path d="M6.52415 225.139C5.84138 225.139 5.23153 225.022 4.6946 224.786C4.16098 224.551 3.7384 224.224 3.42685 223.807C3.11861 223.386 2.95289 222.899 2.92969 222.345H4.49077C4.51065 222.647 4.61174 222.909 4.79403 223.131C4.97964 223.349 5.22159 223.518 5.51989 223.638C5.81818 223.757 6.14962 223.817 6.5142 223.817C6.91525 223.817 7.26989 223.747 7.57812 223.608C7.88968 223.469 8.13329 223.275 8.30895 223.026C8.48461 222.774 8.57244 222.484 8.57244 222.156C8.57244 221.815 8.48461 221.515 8.30895 221.256C8.1366 220.995 7.88305 220.789 7.5483 220.64C7.21686 220.491 6.81581 220.416 6.34517 220.416H5.48509V219.163H6.34517C6.72301 219.163 7.05445 219.095 7.33949 218.96C7.62784 218.824 7.85322 218.635 8.01562 218.393C8.17803 218.147 8.25923 217.861 8.25923 217.533C8.25923 217.218 8.18797 216.944 8.04545 216.712C7.90625 216.477 7.70739 216.293 7.44886 216.161C7.19366 216.028 6.89205 215.962 6.54403 215.962C6.21259 215.962 5.9027 216.023 5.61435 216.146C5.32931 216.265 5.0973 216.437 4.91832 216.663C4.73935 216.885 4.64323 217.152 4.62997 217.463H3.14347C3.16004 216.913 3.32244 216.429 3.63068 216.011C3.94223 215.594 4.35322 215.267 4.86364 215.032C5.37405 214.797 5.94081 214.679 6.56392 214.679C7.21686 214.679 7.7803 214.807 8.25426 215.062C8.73153 215.314 9.09943 215.65 9.35795 216.071C9.61979 216.492 9.74905 216.953 9.74574 217.453C9.74905 218.023 9.58996 218.507 9.26847 218.905C8.95028 219.303 8.52604 219.569 7.99574 219.705V219.785C8.67188 219.888 9.19555 220.156 9.56676 220.59C9.94129 221.024 10.1269 221.563 10.1236 222.206C10.1269 222.766 9.97112 223.268 9.65625 223.712C9.3447 224.156 8.9188 224.506 8.37855 224.761C7.83831 225.013 7.22017 225.139 6.52415 225.139ZM15.5476 225.169C14.7621 225.166 14.0909 224.959 13.5341 224.548C12.9773 224.137 12.5514 223.538 12.2564 222.753C11.9614 221.967 11.8139 221.021 11.8139 219.914C11.8139 218.81 11.9614 217.867 12.2564 217.085C12.5547 216.303 12.9822 215.706 13.5391 215.295C14.0992 214.884 14.7687 214.679 15.5476 214.679C16.3265 214.679 16.9943 214.886 17.5511 215.3C18.108 215.711 18.5339 216.308 18.8288 217.09C19.1271 217.869 19.2763 218.81 19.2763 219.914C19.2763 221.024 19.1288 221.972 18.8338 222.758C18.5388 223.54 18.1129 224.138 17.5561 224.553C16.9993 224.964 16.3298 225.169 15.5476 225.169ZM15.5476 223.842C16.237 223.842 16.7756 223.505 17.1634 222.832C17.5545 222.16 17.75 221.187 17.75 219.914C17.75 219.069 17.6605 218.355 17.4815 217.771C17.3059 217.185 17.0523 216.741 16.7209 216.439C16.3928 216.134 16.0017 215.982 15.5476 215.982C14.8615 215.982 14.3229 216.32 13.9318 216.996C13.5407 217.672 13.3435 218.645 13.3402 219.914C13.3402 220.763 13.428 221.48 13.6037 222.067C13.7827 222.65 14.0362 223.093 14.3643 223.394C14.6925 223.692 15.0869 223.842 15.5476 223.842ZM22.427 222.41L22.4171 220.595H22.6756L25.7182 217.364H27.498L24.0279 221.043H23.7942L22.427 222.41ZM21.0598 225V214.818H22.5463V225H21.0598ZM25.8823 225L23.1479 221.371L24.1721 220.332L27.7069 225H25.8823Z" fill="#736D6D"/>
<path d="M6.52415 183.139C5.84138 183.139 5.23153 183.022 4.6946 182.786C4.16098 182.551 3.7384 182.224 3.42685 181.807C3.11861 181.386 2.95289 180.899 2.92969 180.345H4.49077C4.51065 180.647 4.61174 180.909 4.79403 181.131C4.97964 181.349 5.22159 181.518 5.51989 181.638C5.81818 181.757 6.14962 181.817 6.5142 181.817C6.91525 181.817 7.26989 181.747 7.57812 181.608C7.88968 181.469 8.13329 181.275 8.30895 181.026C8.48461 180.774 8.57244 180.484 8.57244 180.156C8.57244 179.815 8.48461 179.515 8.30895 179.256C8.1366 178.995 7.88305 178.789 7.5483 178.64C7.21686 178.491 6.81581 178.416 6.34517 178.416H5.48509V177.163H6.34517C6.72301 177.163 7.05445 177.095 7.33949 176.96C7.62784 176.824 7.85322 176.635 8.01562 176.393C8.17803 176.147 8.25923 175.861 8.25923 175.533C8.25923 175.218 8.18797 174.944 8.04545 174.712C7.90625 174.477 7.70739 174.293 7.44886 174.161C7.19366 174.028 6.89205 173.962 6.54403 173.962C6.21259 173.962 5.9027 174.023 5.61435 174.146C5.32931 174.265 5.0973 174.437 4.91832 174.663C4.73935 174.885 4.64323 175.152 4.62997 175.463H3.14347C3.16004 174.913 3.32244 174.429 3.63068 174.011C3.94223 173.594 4.35322 173.267 4.86364 173.032C5.37405 172.797 5.94081 172.679 6.56392 172.679C7.21686 172.679 7.7803 172.807 8.25426 173.062C8.73153 173.314 9.09943 173.65 9.35795 174.071C9.61979 174.492 9.74905 174.953 9.74574 175.453C9.74905 176.023 9.58996 176.507 9.26847 176.905C8.95028 177.303 8.52604 177.569 7.99574 177.705V177.785C8.67188 177.888 9.19555 178.156 9.56676 178.59C9.94129 179.024 10.1269 179.563 10.1236 180.206C10.1269 180.766 9.97112 181.268 9.65625 181.712C9.3447 182.156 8.9188 182.506 8.37855 182.761C7.83831 183.013 7.22017 183.139 6.52415 183.139ZM15.3636 183.139C14.7405 183.139 14.1804 183.02 13.6832 182.781C13.1894 182.539 12.795 182.208 12.5 181.787C12.205 181.366 12.0476 180.885 12.0277 180.345H13.5192C13.5556 180.783 13.7495 181.142 14.1009 181.424C14.4522 181.706 14.8731 181.847 15.3636 181.847C15.7547 181.847 16.1011 181.757 16.4027 181.578C16.7076 181.396 16.9463 181.146 17.1186 180.827C17.2943 180.509 17.3821 180.146 17.3821 179.739C17.3821 179.324 17.2926 178.955 17.1136 178.63C16.9347 178.305 16.6877 178.05 16.3729 177.864C16.0613 177.679 15.7034 177.584 15.299 177.581C14.9908 177.581 14.6809 177.634 14.3693 177.74C14.0578 177.846 13.8059 177.985 13.6136 178.158L12.2067 177.949L12.7784 172.818H18.3764V174.136H14.0561L13.733 176.984H13.7926C13.9915 176.792 14.255 176.631 14.5831 176.502C14.9145 176.373 15.2692 176.308 15.647 176.308C16.2668 176.308 16.8187 176.456 17.3026 176.751C17.7898 177.046 18.1726 177.448 18.451 177.959C18.7327 178.466 18.8719 179.049 18.8686 179.709C18.8719 180.368 18.7228 180.957 18.4212 181.474C18.1229 181.991 17.7086 182.398 17.1783 182.697C16.6513 182.992 16.0464 183.139 15.3636 183.139ZM22.0716 180.41L22.0616 178.595H22.3201L25.3627 175.364H27.1426L23.6724 179.043H23.4387L22.0716 180.41ZM20.7044 183V172.818H22.1909V183H20.7044ZM25.5268 183L22.7924 179.371L23.8166 178.332L27.3514 183H25.5268Z" fill="#736D6D"/>
<path d="M0.765625 139.011V137.768L5.16548 130.818H6.14489V132.648H5.52344L2.37642 137.629V137.709H8.40696V139.011H0.765625ZM5.59304 141V138.634L5.60298 138.067V130.818H7.05966V141H5.59304ZM13.6843 141.169C12.8988 141.166 12.2276 140.959 11.6708 140.548C11.114 140.137 10.6881 139.538 10.3931 138.753C10.0981 137.967 9.95064 137.021 9.95064 135.914C9.95064 134.81 10.0981 133.867 10.3931 133.085C10.6914 132.303 11.119 131.706 11.6758 131.295C12.2359 130.884 12.9054 130.679 13.6843 130.679C14.4632 130.679 15.131 130.886 15.6879 131.3C16.2447 131.711 16.6706 132.308 16.9656 133.09C17.2638 133.869 17.413 134.81 17.413 135.914C17.413 137.024 17.2655 137.972 16.9705 138.758C16.6755 139.54 16.2496 140.138 15.6928 140.553C15.136 140.964 14.4665 141.169 13.6843 141.169ZM13.6843 139.842C14.3737 139.842 14.9123 139.505 15.3001 138.832C15.6912 138.16 15.8867 137.187 15.8867 135.914C15.8867 135.069 15.7972 134.355 15.6183 133.771C15.4426 133.185 15.189 132.741 14.8576 132.439C14.5295 132.134 14.1384 131.982 13.6843 131.982C12.9982 131.982 12.4596 132.32 12.0685 132.996C11.6774 133.672 11.4802 134.645 11.4769 135.914C11.4769 136.763 11.5647 137.48 11.7404 138.067C11.9194 138.65 12.1729 139.093 12.5011 139.394C12.8292 139.692 13.2236 139.842 13.6843 139.842ZM20.5637 138.41L20.5538 136.595H20.8123L23.8549 133.364H25.6348L22.1646 137.043H21.9309L20.5637 138.41ZM19.1966 141V130.818H20.6831V141H19.1966ZM24.019 141L21.2846 137.371L22.3088 136.332L25.8436 141H24.019Z" fill="#736D6D"/>
<path d="M5.76562 97.0114V95.7685L10.1655 88.8182H11.1449V90.6477H10.5234L7.37642 95.6293V95.7088H13.407V97.0114H5.76562ZM10.593 99V96.6335L10.603 96.0668V88.8182H12.0597V99H10.593ZM18.5004 99.1392C17.8772 99.1392 17.3171 99.0199 16.82 98.7812C16.3261 98.5393 15.9317 98.2079 15.6367 97.7869C15.3417 97.366 15.1843 96.8854 15.1644 96.3452H16.6559C16.6924 96.7827 16.8862 97.1423 17.2376 97.424C17.5889 97.7057 18.0098 97.8466 18.5004 97.8466C18.8915 97.8466 19.2378 97.7571 19.5394 97.5781C19.8443 97.3958 20.083 97.1456 20.2553 96.8274C20.431 96.5092 20.5188 96.1463 20.5188 95.7386C20.5188 95.3243 20.4293 94.9548 20.2504 94.63C20.0714 94.3052 19.8245 94.05 19.5096 93.8643C19.198 93.6787 18.8401 93.5843 18.4357 93.581C18.1275 93.581 17.8176 93.634 17.506 93.7401C17.1945 93.8461 16.9426 93.9853 16.7504 94.1577L15.3434 93.9489L15.9151 88.8182H21.5131V90.1357H17.1928L16.8697 92.9844H16.9293C17.1282 92.7921 17.3917 92.6314 17.7198 92.5021C18.0513 92.3729 18.4059 92.3082 18.7837 92.3082C19.4035 92.3082 19.9554 92.4557 20.4393 92.7507C20.9265 93.0457 21.3093 93.4484 21.5877 93.9588C21.8694 94.4659 22.0086 95.0492 22.0053 95.7088C22.0086 96.3684 21.8595 96.9567 21.5579 97.4737C21.2596 97.9908 20.8453 98.3984 20.315 98.6967C19.788 98.9917 19.1831 99.1392 18.5004 99.1392ZM25.2083 96.4098L25.1983 94.5952H25.4569L28.4995 91.3636H30.2793L26.8091 95.0426H26.5755L25.2083 96.4098ZM23.8411 99V88.8182H25.3276V99H23.8411ZM28.6635 99L25.9292 95.3707L26.9533 94.3317L30.4881 99H28.6635Z" fill="#736D6D"/>
<path d="M9.3402 55.1392C8.71709 55.1392 8.15696 55.0199 7.6598 54.7812C7.16596 54.5393 6.77154 54.2079 6.47656 53.7869C6.18158 53.366 6.02415 52.8854 6.00426 52.3452H7.49574C7.5322 52.7827 7.72609 53.1423 8.07741 53.424C8.42874 53.7057 8.84967 53.8466 9.3402 53.8466C9.7313 53.8466 10.0777 53.7571 10.3793 53.5781C10.6842 53.3958 10.9228 53.1456 11.0952 52.8274C11.2708 52.5092 11.3587 52.1463 11.3587 51.7386C11.3587 51.3243 11.2692 50.9548 11.0902 50.63C10.9112 50.3052 10.6643 50.05 10.3494 49.8643C10.0379 49.6787 9.67992 49.5843 9.27557 49.581C8.96733 49.581 8.65743 49.634 8.34588 49.7401C8.03433 49.8461 7.78243 49.9853 7.5902 50.1577L6.18324 49.9489L6.75497 44.8182H12.353V46.1357H8.03267L7.70952 48.9844H7.76918C7.96804 48.7921 8.23153 48.6314 8.55966 48.5021C8.8911 48.3729 9.24574 48.3082 9.62358 48.3082C10.2434 48.3082 10.7952 48.4557 11.2791 48.7507C11.7663 49.0457 12.1491 49.4484 12.4276 49.9588C12.7093 50.4659 12.8485 51.0492 12.8452 51.7088C12.8485 52.3684 12.6993 52.9567 12.3977 53.4737C12.0994 53.9908 11.6851 54.3984 11.1548 54.6967C10.6278 54.9917 10.023 55.1392 9.3402 55.1392ZM18.2058 55.169C17.4203 55.1657 16.7491 54.9586 16.1923 54.5476C15.6355 54.1366 15.2096 53.5384 14.9146 52.7528C14.6196 51.9673 14.4721 51.0211 14.4721 49.9141C14.4721 48.8104 14.6196 47.8674 14.9146 47.0852C15.2129 46.303 15.6404 45.7064 16.1973 45.2955C16.7574 44.8845 17.4269 44.679 18.2058 44.679C18.9847 44.679 19.6525 44.8861 20.2093 45.3004C20.7662 45.7114 21.1921 46.308 21.487 47.0902C21.7853 47.8691 21.9345 48.8104 21.9345 49.9141C21.9345 51.0244 21.787 51.9723 21.492 52.7578C21.197 53.54 20.7711 54.1383 20.2143 54.5526C19.6575 54.9635 18.988 55.169 18.2058 55.169ZM18.2058 53.8416C18.8952 53.8416 19.4338 53.5052 19.8216 52.8324C20.2127 52.1596 20.4082 51.1868 20.4082 49.9141C20.4082 49.0689 20.3187 48.3546 20.1397 47.7713C19.9641 47.1847 19.7105 46.7405 19.3791 46.4389C19.051 46.134 18.6599 45.9815 18.2058 45.9815C17.5197 45.9815 16.9811 46.3196 16.59 46.9957C16.1989 47.6719 16.0017 48.6446 15.9984 49.9141C15.9984 50.7625 16.0862 51.4801 16.2619 52.0668C16.4409 52.6501 16.6944 53.0926 17.0225 53.3942C17.3507 53.6925 17.7451 53.8416 18.2058 53.8416ZM25.0852 52.4098L25.0753 50.5952H25.3338L28.3764 47.3636H30.1562L26.6861 51.0426H26.4524L25.0852 52.4098ZM23.718 55V44.8182H25.2045V55H23.718ZM28.5405 55L25.8061 51.3707L26.8303 50.3317L30.3651 55H28.5405Z" fill="#736D6D"/>
<path d="M4.3402 15.1392C3.71709 15.1392 3.15696 15.0199 2.6598 14.7812C2.16596 14.5393 1.77154 14.2079 1.47656 13.7869C1.18158 13.366 1.02415 12.8854 1.00426 12.3452H2.49574C2.5322 12.7827 2.72609 13.1423 3.07741 13.424C3.42874 13.7057 3.84967 13.8466 4.3402 13.8466C4.7313 13.8466 5.07765 13.7571 5.37926 13.5781C5.68419 13.3958 5.92282 13.1456 6.09517 12.8274C6.27083 12.5092 6.35866 12.1463 6.35866 11.7386C6.35866 11.3243 6.26918 10.9548 6.0902 10.63C5.91122 10.3052 5.6643 10.05 5.34943 9.86435C5.03788 9.67874 4.67992 9.58428 4.27557 9.58097C3.96733 9.58097 3.65743 9.634 3.34588 9.74006C3.03433 9.84612 2.78243 9.98532 2.5902 10.1577L1.18324 9.94886L1.75497 4.81818H7.35298V6.13565H3.03267L2.70952 8.98438H2.76918C2.96804 8.79214 3.23153 8.63139 3.55966 8.50213C3.8911 8.37287 4.24574 8.30824 4.62358 8.30824C5.24337 8.30824 5.79522 8.45573 6.27912 8.75071C6.76634 9.04569 7.14915 9.44839 7.42756 9.95881C7.70928 10.4659 7.84848 11.0492 7.84517 11.7088C7.84848 12.3684 7.69934 12.9567 7.39773 13.4737C7.09943 13.9908 6.68513 14.3984 6.15483 14.6967C5.62784 14.9917 5.02296 15.1392 4.3402 15.1392ZM13.2058 15.169C12.4203 15.1657 11.7491 14.9586 11.1923 14.5476C10.6355 14.1366 10.2096 13.5384 9.9146 12.7528C9.61961 11.9673 9.47212 11.0211 9.47212 9.91406C9.47212 8.81037 9.61961 7.86742 9.9146 7.08523C10.2129 6.30303 10.6404 5.70644 11.1973 5.29545C11.7574 4.88447 12.4269 4.67898 13.2058 4.67898C13.9847 4.67898 14.6525 4.88613 15.2093 5.30043C15.7662 5.71141 16.1921 6.308 16.487 7.0902C16.7853 7.86908 16.9345 8.81037 16.9345 9.91406C16.9345 11.0244 16.787 11.9723 16.492 12.7578C16.197 13.54 15.7711 14.1383 15.2143 14.5526C14.6575 14.9635 13.988 15.169 13.2058 15.169ZM13.2058 13.8416C13.8952 13.8416 14.4338 13.5052 14.8216 12.8324C15.2127 12.1596 15.4082 11.1868 15.4082 9.91406C15.4082 9.06889 15.3187 8.35464 15.1397 7.77131C14.9641 7.18466 14.7105 6.74053 14.3791 6.43892C14.051 6.134 13.6599 5.98153 13.2058 5.98153C12.5197 5.98153 11.9811 6.3196 11.59 6.99574C11.1989 7.67187 11.0017 8.64465 10.9984 9.91406C10.9984 10.7625 11.0862 11.4801 11.2619 12.0668C11.4409 12.6501 11.6944 13.0926 12.0225 13.3942C12.3507 13.6925 12.7451 13.8416 13.2058 13.8416ZM20.0852 12.4098L20.0753 10.5952H20.3338L23.3764 7.36364H25.1562L21.6861 11.0426H21.4524L20.0852 12.4098ZM18.718 15V4.81818H20.2045V15H18.718ZM23.5405 15L20.8061 11.3707L21.8303 10.3317L25.3651 15H23.5405ZM37.1813 11.5497L30.579 14.7514V13.2301L35.4512 11.0128L35.4015 11.0973V10.8835L35.4512 10.973L30.579 8.75071V7.23438L37.1813 10.4361V11.5497Z" fill="#736D6D"/>
<path d="M117.076 402.818H118.607V410.037C118.607 410.69 118.478 411.248 118.219 411.712C117.964 412.176 117.605 412.531 117.141 412.776C116.677 413.018 116.133 413.139 115.51 413.139C114.937 413.139 114.421 413.035 113.964 412.826C113.51 412.617 113.15 412.314 112.885 411.916C112.623 411.515 112.492 411.028 112.492 410.455H114.018C114.018 410.736 114.083 410.98 114.212 411.185C114.345 411.391 114.526 411.552 114.754 411.668C114.986 411.78 115.251 411.837 115.55 411.837C115.875 411.837 116.15 411.769 116.375 411.633C116.604 411.494 116.778 411.29 116.897 411.021C117.016 410.753 117.076 410.425 117.076 410.037V402.818ZM122.946 413.169C122.462 413.169 122.025 413.08 121.634 412.901C121.243 412.718 120.933 412.455 120.704 412.11C120.479 411.765 120.366 411.343 120.366 410.842C120.366 410.411 120.449 410.057 120.615 409.778C120.78 409.5 121.004 409.28 121.286 409.117C121.567 408.955 121.882 408.832 122.23 408.749C122.578 408.666 122.933 408.603 123.294 408.56C123.752 408.507 124.123 408.464 124.408 408.431C124.693 408.395 124.9 408.337 125.029 408.257C125.159 408.178 125.223 408.048 125.223 407.869V407.835C125.223 407.4 125.101 407.064 124.855 406.825C124.613 406.587 124.252 406.467 123.771 406.467C123.271 406.467 122.877 406.578 122.588 406.8C122.303 407.019 122.106 407.263 121.997 407.531L120.6 407.213C120.765 406.749 121.007 406.375 121.325 406.089C121.647 405.801 122.017 405.592 122.434 405.463C122.852 405.33 123.291 405.264 123.752 405.264C124.057 405.264 124.38 405.301 124.721 405.374C125.066 405.443 125.387 405.572 125.686 405.761C125.987 405.95 126.234 406.22 126.426 406.572C126.619 406.92 126.715 407.372 126.715 407.929V413H125.263V411.956H125.203C125.107 412.148 124.963 412.337 124.771 412.523C124.579 412.708 124.332 412.862 124.03 412.985C123.728 413.108 123.367 413.169 122.946 413.169ZM123.269 411.976C123.68 411.976 124.032 411.895 124.323 411.732C124.618 411.57 124.842 411.358 124.994 411.096C125.15 410.831 125.228 410.547 125.228 410.246V409.261C125.175 409.314 125.072 409.364 124.92 409.411C124.771 409.454 124.6 409.492 124.408 409.525C124.216 409.555 124.028 409.583 123.846 409.609C123.664 409.633 123.511 409.652 123.389 409.669C123.1 409.705 122.837 409.767 122.598 409.853C122.363 409.939 122.174 410.063 122.031 410.226C121.892 410.385 121.823 410.597 121.823 410.862C121.823 411.23 121.959 411.509 122.23 411.697C122.502 411.883 122.848 411.976 123.269 411.976ZM130.181 408.466V413H128.695V405.364H130.121V406.607H130.216C130.392 406.202 130.667 405.877 131.041 405.632C131.419 405.387 131.895 405.264 132.468 405.264C132.988 405.264 133.444 405.374 133.835 405.592C134.226 405.808 134.53 406.129 134.745 406.557C134.96 406.984 135.068 407.513 135.068 408.143V413H133.582V408.322C133.582 407.768 133.438 407.336 133.149 407.024C132.861 406.709 132.465 406.552 131.961 406.552C131.616 406.552 131.31 406.626 131.041 406.776C130.776 406.925 130.566 407.143 130.41 407.432C130.257 407.717 130.181 408.062 130.181 408.466Z" fill="#736D6D"/>
<path d="M198.119 413V402.818H204.433V404.141H199.655V407.243H203.98V408.56H199.655V413H198.119ZM208.933 413.154C208.181 413.154 207.533 412.993 206.989 412.672C206.449 412.347 206.031 411.891 205.736 411.305C205.445 410.715 205.299 410.024 205.299 409.232C205.299 408.449 205.445 407.76 205.736 407.163C206.031 406.567 206.442 406.101 206.969 405.766C207.5 405.432 208.119 405.264 208.829 405.264C209.26 405.264 209.677 405.335 210.081 405.478C210.486 405.621 210.849 405.844 211.17 406.149C211.492 406.454 211.745 406.85 211.931 407.337C212.117 407.821 212.209 408.41 212.209 409.102V409.629H206.139V408.516H210.753C210.753 408.125 210.673 407.778 210.514 407.477C210.355 407.172 210.131 406.931 209.843 406.756C209.558 406.58 209.223 406.492 208.839 406.492C208.421 406.492 208.056 406.595 207.745 406.8C207.437 407.003 207.198 407.268 207.029 407.596C206.863 407.921 206.78 408.274 206.78 408.655V409.525C206.78 410.035 206.87 410.469 207.049 410.827C207.231 411.185 207.485 411.459 207.809 411.648C208.134 411.833 208.514 411.926 208.948 411.926C209.23 411.926 209.487 411.886 209.719 411.807C209.951 411.724 210.151 411.601 210.32 411.439C210.489 411.277 210.618 411.076 210.708 410.837L212.115 411.091C212.002 411.505 211.8 411.868 211.508 412.18C211.22 412.488 210.857 412.728 210.42 412.901C209.985 413.07 209.49 413.154 208.933 413.154ZM213.978 413V402.818H215.464V406.602H215.554C215.64 406.442 215.764 406.259 215.927 406.05C216.089 405.841 216.315 405.659 216.603 405.503C216.891 405.344 217.272 405.264 217.746 405.264C218.363 405.264 218.913 405.42 219.397 405.732C219.881 406.043 220.26 406.492 220.536 407.079C220.814 407.665 220.953 408.371 220.953 409.197C220.953 410.022 220.816 410.73 220.54 411.32C220.265 411.906 219.888 412.359 219.407 412.677C218.926 412.992 218.378 413.149 217.761 413.149C217.297 413.149 216.918 413.071 216.623 412.915C216.331 412.76 216.103 412.577 215.937 412.369C215.771 412.16 215.643 411.974 215.554 411.812H215.43V413H213.978ZM215.435 409.182C215.435 409.719 215.513 410.189 215.668 410.594C215.824 410.998 216.049 411.315 216.344 411.543C216.639 411.769 217.001 411.881 217.428 411.881C217.872 411.881 218.244 411.764 218.542 411.528C218.84 411.29 219.066 410.967 219.218 410.559C219.374 410.151 219.452 409.692 219.452 409.182C219.452 408.678 219.375 408.226 219.223 407.825C219.074 407.424 218.848 407.107 218.547 406.875C218.249 406.643 217.876 406.527 217.428 406.527C216.997 406.527 216.633 406.638 216.335 406.86C216.04 407.082 215.816 407.392 215.663 407.79C215.511 408.187 215.435 408.652 215.435 409.182Z" fill="#736D6D"/>
<path d="M283.119 402.818H284.983L288.224 410.733H288.344L291.585 402.818H293.45V413H291.988V405.632H291.893L288.891 412.985H287.678L284.675 405.627H284.58V413H283.119V402.818ZM297.786 413.169C297.302 413.169 296.865 413.08 296.474 412.901C296.082 412.718 295.773 412.455 295.544 412.11C295.318 411.765 295.206 411.343 295.206 410.842C295.206 410.411 295.289 410.057 295.454 409.778C295.62 409.5 295.844 409.28 296.126 409.117C296.407 408.955 296.722 408.832 297.07 408.749C297.418 408.666 297.773 408.603 298.134 408.56C298.591 408.507 298.963 408.464 299.248 408.431C299.533 408.395 299.74 408.337 299.869 408.257C299.998 408.178 300.063 408.048 300.063 407.869V407.835C300.063 407.4 299.94 407.064 299.695 406.825C299.453 406.587 299.092 406.467 298.611 406.467C298.111 406.467 297.716 406.578 297.428 406.8C297.143 407.019 296.946 407.263 296.836 407.531L295.439 407.213C295.605 406.749 295.847 406.375 296.165 406.089C296.487 405.801 296.856 405.592 297.274 405.463C297.692 405.33 298.131 405.264 298.591 405.264C298.896 405.264 299.22 405.301 299.561 405.374C299.906 405.443 300.227 405.572 300.525 405.761C300.827 405.95 301.074 406.22 301.266 406.572C301.458 406.92 301.555 407.372 301.555 407.929V413H300.103V411.956H300.043C299.947 412.148 299.803 412.337 299.611 412.523C299.418 412.708 299.171 412.862 298.87 412.985C298.568 413.108 298.207 413.169 297.786 413.169ZM298.109 411.976C298.52 411.976 298.872 411.895 299.163 411.732C299.458 411.57 299.682 411.358 299.834 411.096C299.99 410.831 300.068 410.547 300.068 410.246V409.261C300.015 409.314 299.912 409.364 299.76 409.411C299.611 409.454 299.44 409.492 299.248 409.525C299.055 409.555 298.868 409.583 298.686 409.609C298.504 409.633 298.351 409.652 298.229 409.669C297.94 409.705 297.677 409.767 297.438 409.853C297.203 409.939 297.014 410.063 296.871 410.226C296.732 410.385 296.662 410.597 296.662 410.862C296.662 411.23 296.798 411.509 297.07 411.697C297.342 411.883 297.688 411.976 298.109 411.976ZM303.534 413V405.364H304.971V406.577H305.051C305.19 406.166 305.435 405.843 305.787 405.607C306.141 405.369 306.542 405.249 306.99 405.249C307.083 405.249 307.192 405.253 307.318 405.259C307.447 405.266 307.548 405.274 307.621 405.284V406.706C307.561 406.689 307.455 406.671 307.303 406.651C307.15 406.628 306.998 406.616 306.846 406.616C306.494 406.616 306.181 406.691 305.906 406.84C305.634 406.986 305.419 407.19 305.26 407.452C305.1 407.71 305.021 408.005 305.021 408.337V413H303.534Z" fill="#736D6D"/>
<path d="M369.979 413H368.348L372.012 402.818H373.787L377.451 413H375.82L372.942 404.668H372.862L369.979 413ZM370.252 409.013H375.542V410.305H370.252V409.013ZM378.802 415.864V405.364H380.254V406.602H380.378C380.464 406.442 380.588 406.259 380.751 406.05C380.913 405.841 381.139 405.659 381.427 405.503C381.715 405.344 382.097 405.264 382.57 405.264C383.187 405.264 383.737 405.42 384.221 405.732C384.705 406.043 385.084 406.492 385.36 407.079C385.638 407.665 385.777 408.371 385.777 409.197C385.777 410.022 385.64 410.73 385.365 411.32C385.089 411.906 384.712 412.359 384.231 412.677C383.75 412.992 383.202 413.149 382.585 413.149C382.121 413.149 381.742 413.071 381.447 412.915C381.155 412.76 380.927 412.577 380.761 412.369C380.595 412.16 380.468 411.974 380.378 411.812H380.289V415.864H378.802ZM380.259 409.182C380.259 409.719 380.337 410.189 380.492 410.594C380.648 410.998 380.874 411.315 381.169 411.543C381.463 411.769 381.825 411.881 382.252 411.881C382.696 411.881 383.068 411.764 383.366 411.528C383.664 411.29 383.89 410.967 384.042 410.559C384.198 410.151 384.276 409.692 384.276 409.182C384.276 408.678 384.2 408.226 384.047 407.825C383.898 407.424 383.673 407.107 383.371 406.875C383.073 406.643 382.7 406.527 382.252 406.527C381.821 406.527 381.457 406.638 381.159 406.86C380.864 407.082 380.64 407.392 380.487 407.79C380.335 408.187 380.259 408.652 380.259 409.182ZM387.443 413V405.364H388.879V406.577H388.959C389.098 406.166 389.343 405.843 389.695 405.607C390.049 405.369 390.45 405.249 390.898 405.249C390.991 405.249 391.1 405.253 391.226 405.259C391.355 405.266 391.456 405.274 391.529 405.284V406.706C391.47 406.689 391.364 406.671 391.211 406.651C391.059 406.628 390.906 406.616 390.754 406.616C390.402 406.616 390.089 406.691 389.814 406.84C389.542 406.986 389.327 407.19 389.168 407.452C389.009 407.71 388.929 408.005 388.929 408.337V413H387.443Z" fill="#736D6D"/>
<path d="M451.119 402.818H452.983L456.224 410.733H456.344L459.585 402.818H461.45V413H459.988V405.632H459.893L456.891 412.985H455.678L452.675 405.627H452.58V413H451.119V402.818ZM465.786 413.169C465.302 413.169 464.865 413.08 464.474 412.901C464.082 412.718 463.773 412.455 463.544 412.11C463.318 411.765 463.206 411.343 463.206 410.842C463.206 410.411 463.289 410.057 463.454 409.778C463.62 409.5 463.844 409.28 464.126 409.117C464.407 408.955 464.722 408.832 465.07 408.749C465.418 408.666 465.773 408.603 466.134 408.56C466.591 408.507 466.963 408.464 467.248 408.431C467.533 408.395 467.74 408.337 467.869 408.257C467.998 408.178 468.063 408.048 468.063 407.869V407.835C468.063 407.4 467.94 407.064 467.695 406.825C467.453 406.587 467.092 406.467 466.611 406.467C466.111 406.467 465.716 406.578 465.428 406.8C465.143 407.019 464.946 407.263 464.836 407.531L463.439 407.213C463.605 406.749 463.847 406.375 464.165 406.089C464.487 405.801 464.856 405.592 465.274 405.463C465.692 405.33 466.131 405.264 466.591 405.264C466.896 405.264 467.22 405.301 467.561 405.374C467.906 405.443 468.227 405.572 468.525 405.761C468.827 405.95 469.074 406.22 469.266 406.572C469.458 406.92 469.555 407.372 469.555 407.929V413H468.103V411.956H468.043C467.947 412.148 467.803 412.337 467.611 412.523C467.418 412.708 467.171 412.862 466.87 412.985C466.568 413.108 466.207 413.169 465.786 413.169ZM466.109 411.976C466.52 411.976 466.872 411.895 467.163 411.732C467.458 411.57 467.682 411.358 467.834 411.096C467.99 410.831 468.068 410.547 468.068 410.246V409.261C468.015 409.314 467.912 409.364 467.76 409.411C467.611 409.454 467.44 409.492 467.248 409.525C467.055 409.555 466.868 409.583 466.686 409.609C466.504 409.633 466.351 409.652 466.229 409.669C465.94 409.705 465.677 409.767 465.438 409.853C465.203 409.939 465.014 410.063 464.871 410.226C464.732 410.385 464.662 410.597 464.662 410.862C464.662 411.23 464.798 411.509 465.07 411.697C465.342 411.883 465.688 411.976 466.109 411.976ZM472.201 415.864C471.979 415.864 471.776 415.845 471.594 415.809C471.412 415.776 471.276 415.739 471.186 415.7L471.544 414.482C471.816 414.554 472.058 414.586 472.27 414.576C472.482 414.566 472.67 414.487 472.832 414.337C472.998 414.188 473.144 413.945 473.27 413.607L473.453 413.099L470.659 405.364H472.25L474.184 411.29H474.264L476.198 405.364H477.794L474.647 414.019C474.501 414.417 474.315 414.753 474.09 415.028C473.864 415.307 473.596 415.516 473.284 415.655C472.973 415.794 472.612 415.864 472.201 415.864Z" fill="#736D6D"/>
<path d="M544.076 402.818H545.607V410.037C545.607 410.69 545.478 411.248 545.219 411.712C544.964 412.176 544.605 412.531 544.141 412.776C543.677 413.018 543.133 413.139 542.51 413.139C541.937 413.139 541.421 413.035 540.964 412.826C540.51 412.617 540.15 412.314 539.885 411.916C539.623 411.515 539.492 411.028 539.492 410.455H541.018C541.018 410.736 541.083 410.98 541.212 411.185C541.345 411.391 541.526 411.552 541.754 411.668C541.986 411.78 542.251 411.837 542.55 411.837C542.875 411.837 543.15 411.769 543.375 411.633C543.604 411.494 543.778 411.29 543.897 411.021C544.016 410.753 544.076 410.425 544.076 410.037V402.818ZM552.561 409.833V405.364H554.053V413H552.591V411.678H552.512C552.336 412.085 552.054 412.425 551.666 412.697C551.282 412.965 550.803 413.099 550.23 413.099C549.739 413.099 549.305 412.992 548.927 412.776C548.552 412.558 548.258 412.234 548.042 411.807C547.83 411.379 547.724 410.851 547.724 410.221V405.364H549.21V410.042C549.21 410.562 549.355 410.977 549.643 411.285C549.931 411.593 550.306 411.747 550.767 411.747C551.045 411.747 551.322 411.678 551.597 411.538C551.875 411.399 552.106 411.189 552.288 410.907C552.473 410.625 552.565 410.267 552.561 409.833ZM557.537 408.466V413H556.05V405.364H557.477V406.607H557.571C557.747 406.202 558.022 405.877 558.397 405.632C558.775 405.387 559.25 405.264 559.824 405.264C560.344 405.264 560.8 405.374 561.191 405.592C561.582 405.808 561.885 406.129 562.1 406.557C562.316 406.984 562.424 407.513 562.424 408.143V413H560.937V408.322C560.937 407.768 560.793 407.336 560.505 407.024C560.216 406.709 559.82 406.552 559.316 406.552C558.972 406.552 558.665 406.626 558.397 406.776C558.132 406.925 557.921 407.143 557.765 407.432C557.613 407.717 557.537 408.062 557.537 408.466Z" fill="#736D6D"/>
<path d="M629.076 402.818H630.607V410.037C630.607 410.69 630.478 411.248 630.219 411.712C629.964 412.176 629.605 412.531 629.141 412.776C628.677 413.018 628.133 413.139 627.51 413.139C626.937 413.139 626.421 413.035 625.964 412.826C625.51 412.617 625.15 412.314 624.885 411.916C624.623 411.515 624.492 411.028 624.492 410.455H626.018C626.018 410.736 626.083 410.98 626.212 411.185C626.345 411.391 626.526 411.552 626.754 411.668C626.986 411.78 627.251 411.837 627.55 411.837C627.875 411.837 628.15 411.769 628.375 411.633C628.604 411.494 628.778 411.29 628.897 411.021C629.016 410.753 629.076 410.425 629.076 410.037V402.818ZM637.561 409.833V405.364H639.053V413H637.591V411.678H637.512C637.336 412.085 637.054 412.425 636.666 412.697C636.282 412.965 635.803 413.099 635.23 413.099C634.739 413.099 634.305 412.992 633.927 412.776C633.552 412.558 633.258 412.234 633.042 411.807C632.83 411.379 632.724 410.851 632.724 410.221V405.364H634.21V410.042C634.21 410.562 634.355 410.977 634.643 411.285C634.931 411.593 635.306 411.747 635.767 411.747C636.045 411.747 636.322 411.678 636.597 411.538C636.875 411.399 637.106 411.189 637.288 410.907C637.473 410.625 637.565 410.267 637.561 409.833ZM642.537 402.818V413H641.05V402.818H642.537Z" fill="#736D6D"/>
<path d="M705.979 413H704.348L708.012 402.818H709.787L713.451 413H711.82L708.942 404.668H708.862L705.979 413ZM706.252 409.013H711.542V410.305H706.252V409.013ZM719.639 409.833V405.364H721.131V413H719.669V411.678H719.59C719.414 412.085 719.132 412.425 718.744 412.697C718.36 412.965 717.881 413.099 717.308 413.099C716.817 413.099 716.383 412.992 716.005 412.776C715.631 412.558 715.336 412.234 715.12 411.807C714.908 411.379 714.802 410.851 714.802 410.221V405.364H716.289V410.042C716.289 410.562 716.433 410.977 716.721 411.285C717.009 411.593 717.384 411.747 717.845 411.747C718.123 411.747 718.4 411.678 718.675 411.538C718.953 411.399 719.184 411.189 719.366 410.907C719.552 410.625 719.643 410.267 719.639 409.833ZM726.33 416.023C725.723 416.023 725.201 415.943 724.764 415.784C724.33 415.625 723.975 415.415 723.7 415.153C723.425 414.891 723.219 414.604 723.083 414.293L724.361 413.766C724.451 413.911 724.57 414.066 724.719 414.228C724.872 414.394 725.077 414.535 725.336 414.651C725.597 414.767 725.934 414.825 726.345 414.825C726.908 414.825 727.374 414.687 727.742 414.412C728.11 414.14 728.294 413.706 728.294 413.109V411.608H728.199C728.11 411.77 727.98 411.951 727.811 412.15C727.646 412.349 727.417 412.521 727.125 412.667C726.834 412.813 726.454 412.886 725.987 412.886C725.384 412.886 724.84 412.745 724.356 412.463C723.876 412.178 723.494 411.759 723.213 411.205C722.934 410.648 722.795 409.964 722.795 409.152C722.795 408.34 722.933 407.644 723.208 407.064C723.486 406.484 723.867 406.04 724.351 405.732C724.835 405.42 725.384 405.264 725.997 405.264C726.471 405.264 726.854 405.344 727.145 405.503C727.437 405.659 727.664 405.841 727.826 406.05C727.992 406.259 728.12 406.442 728.209 406.602H728.319V405.364H729.775V413.169C729.775 413.825 729.623 414.364 729.318 414.785C729.013 415.206 728.6 415.517 728.08 415.719C727.563 415.922 726.98 416.023 726.33 416.023ZM726.315 411.653C726.743 411.653 727.104 411.553 727.399 411.354C727.697 411.152 727.922 410.864 728.075 410.489C728.231 410.112 728.309 409.659 728.309 409.132C728.309 408.618 728.232 408.166 728.08 407.775C727.927 407.384 727.704 407.079 727.409 406.86C727.114 406.638 726.749 406.527 726.315 406.527C725.868 406.527 725.495 406.643 725.196 406.875C724.898 407.104 724.673 407.415 724.52 407.81C724.371 408.204 724.297 408.645 724.297 409.132C724.297 409.633 724.373 410.072 724.525 410.45C724.678 410.827 724.903 411.122 725.201 411.335C725.503 411.547 725.874 411.653 726.315 411.653Z" fill="#736D6D"/>
<path d="M797.672 405.493C797.619 405.022 797.4 404.658 797.016 404.399C796.631 404.137 796.147 404.006 795.564 404.006C795.146 404.006 794.785 404.073 794.48 404.205C794.175 404.335 793.938 404.513 793.769 404.742C793.603 404.968 793.521 405.224 793.521 405.513C793.521 405.755 793.577 405.964 793.69 406.139C793.806 406.315 793.956 406.462 794.142 406.582C794.331 406.698 794.533 406.795 794.749 406.875C794.964 406.951 795.171 407.014 795.37 407.064L796.364 407.322C796.689 407.402 797.022 407.51 797.364 407.646C797.705 407.781 798.022 407.96 798.313 408.183C798.605 408.405 798.84 408.68 799.019 409.008C799.201 409.336 799.293 409.729 799.293 410.186C799.293 410.763 799.143 411.275 798.845 411.722C798.55 412.17 798.121 412.523 797.558 412.781C796.997 413.04 796.32 413.169 795.524 413.169C794.762 413.169 794.102 413.048 793.545 412.806C792.989 412.564 792.553 412.221 792.238 411.777C791.923 411.33 791.749 410.799 791.716 410.186H793.257C793.287 410.554 793.406 410.861 793.615 411.106C793.827 411.348 794.097 411.528 794.425 411.648C794.757 411.764 795.12 411.822 795.514 411.822C795.948 411.822 796.335 411.754 796.673 411.618C797.014 411.479 797.282 411.286 797.478 411.041C797.674 410.793 797.771 410.503 797.771 410.171C797.771 409.87 797.685 409.623 797.513 409.43C797.344 409.238 797.113 409.079 796.822 408.953C796.533 408.827 796.207 408.716 795.842 408.62L794.639 408.292C793.824 408.07 793.178 407.743 792.7 407.312C792.226 406.882 791.989 406.312 791.989 405.602C791.989 405.016 792.148 404.504 792.467 404.066C792.785 403.629 793.216 403.289 793.759 403.047C794.303 402.802 794.916 402.679 795.599 402.679C796.288 402.679 796.896 402.8 797.423 403.042C797.954 403.284 798.371 403.617 798.676 404.041C798.981 404.462 799.14 404.946 799.153 405.493H797.672ZM804.3 413.154C803.548 413.154 802.9 412.993 802.356 412.672C801.816 412.347 801.398 411.891 801.104 411.305C800.812 410.715 800.666 410.024 800.666 409.232C800.666 408.449 800.812 407.76 801.104 407.163C801.398 406.567 801.809 406.101 802.336 405.766C802.867 405.432 803.487 405.264 804.196 405.264C804.627 405.264 805.044 405.335 805.449 405.478C805.853 405.621 806.216 405.844 806.537 406.149C806.859 406.454 807.113 406.85 807.298 407.337C807.484 407.821 807.577 408.41 807.577 409.102V409.629H801.506V408.516H806.12C806.12 408.125 806.04 407.778 805.881 407.477C805.722 407.172 805.498 406.931 805.21 406.756C804.925 406.58 804.59 406.492 804.206 406.492C803.788 406.492 803.424 406.595 803.112 406.8C802.804 407.003 802.565 407.268 802.396 407.596C802.23 407.921 802.148 408.274 802.148 408.655V409.525C802.148 410.035 802.237 410.469 802.416 410.827C802.598 411.185 802.852 411.459 803.177 411.648C803.501 411.833 803.881 411.926 804.315 411.926C804.597 411.926 804.854 411.886 805.086 411.807C805.318 411.724 805.518 411.601 805.687 411.439C805.856 411.277 805.986 411.076 806.075 410.837L807.482 411.091C807.369 411.505 807.167 411.868 806.876 412.18C806.587 412.488 806.224 412.728 805.787 412.901C805.353 413.07 804.857 413.154 804.3 413.154ZM809.226 415.864V405.364H810.678V406.602H810.802C810.888 406.442 811.012 406.259 811.175 406.05C811.337 405.841 811.563 405.659 811.851 405.503C812.139 405.344 812.52 405.264 812.994 405.264C813.611 405.264 814.161 405.42 814.645 405.732C815.129 406.043 815.508 406.492 815.783 407.079C816.062 407.665 816.201 408.371 816.201 409.197C816.201 410.022 816.063 410.73 815.788 411.32C815.513 411.906 815.135 412.359 814.655 412.677C814.174 412.992 813.626 413.149 813.009 413.149C812.545 413.149 812.166 413.071 811.871 412.915C811.579 412.76 811.35 412.577 811.185 412.369C811.019 412.16 810.891 411.974 810.802 411.812H810.712V415.864H809.226ZM810.683 409.182C810.683 409.719 810.76 410.189 810.916 410.594C811.072 410.998 811.297 411.315 811.592 411.543C811.887 411.769 812.249 411.881 812.676 411.881C813.12 411.881 813.491 411.764 813.79 411.528C814.088 411.29 814.313 410.967 814.466 410.559C814.622 410.151 814.7 409.692 814.7 409.182C814.7 408.678 814.623 408.226 814.471 407.825C814.322 407.424 814.096 407.107 813.795 406.875C813.496 406.643 813.124 406.527 812.676 406.527C812.245 406.527 811.881 406.638 811.582 406.86C811.287 407.082 811.064 407.392 810.911 407.79C810.759 408.187 810.683 408.652 810.683 409.182Z" fill="#736D6D"/>
<path d="M886.963 407.909C886.963 408.996 886.764 409.931 886.366 410.713C885.969 411.492 885.424 412.092 884.731 412.513C884.041 412.93 883.258 413.139 882.379 413.139C881.498 413.139 880.71 412.93 880.018 412.513C879.328 412.092 878.785 411.49 878.387 410.708C877.989 409.926 877.79 408.993 877.79 407.909C877.79 406.822 877.989 405.889 878.387 405.11C878.785 404.328 879.328 403.728 880.018 403.31C880.71 402.889 881.498 402.679 882.379 402.679C883.258 402.679 884.041 402.889 884.731 403.31C885.424 403.728 885.969 404.328 886.366 405.11C886.764 405.889 886.963 406.822 886.963 407.909ZM885.442 407.909C885.442 407.08 885.308 406.383 885.039 405.816C884.774 405.246 884.409 404.815 883.945 404.523C883.485 404.228 882.963 404.081 882.379 404.081C881.793 404.081 881.269 404.228 880.808 404.523C880.348 404.815 879.983 405.246 879.714 405.816C879.449 406.383 879.317 407.08 879.317 407.909C879.317 408.738 879.449 409.437 879.714 410.007C879.983 410.574 880.348 411.005 880.808 411.3C881.269 411.591 881.793 411.737 882.379 411.737C882.963 411.737 883.485 411.591 883.945 411.3C884.409 411.005 884.774 410.574 885.039 410.007C885.308 409.437 885.442 408.738 885.442 407.909ZM891.976 413.154C891.237 413.154 890.6 412.987 890.067 412.652C889.536 412.314 889.129 411.848 888.844 411.255C888.559 410.662 888.416 409.982 888.416 409.217C888.416 408.441 888.562 407.757 888.854 407.163C889.145 406.567 889.556 406.101 890.086 405.766C890.617 405.432 891.242 405.264 891.961 405.264C892.541 405.264 893.058 405.372 893.512 405.587C893.966 405.799 894.332 406.098 894.611 406.482C894.892 406.867 895.06 407.316 895.113 407.83H893.666C893.586 407.472 893.404 407.163 893.119 406.905C892.837 406.646 892.46 406.517 891.986 406.517C891.571 406.517 891.208 406.626 890.897 406.845C890.589 407.061 890.348 407.369 890.176 407.77C890.004 408.168 889.917 408.638 889.917 409.182C889.917 409.739 890.002 410.219 890.171 410.624C890.34 411.028 890.579 411.341 890.887 411.563C891.198 411.785 891.565 411.896 891.986 411.896C892.267 411.896 892.523 411.845 892.751 411.742C892.983 411.636 893.177 411.485 893.333 411.29C893.492 411.094 893.603 410.859 893.666 410.584H895.113C895.06 411.078 894.899 411.518 894.631 411.906C894.362 412.294 894.002 412.599 893.552 412.821C893.104 413.043 892.579 413.154 891.976 413.154ZM900.267 405.364V406.557H896.096V405.364H900.267ZM897.214 403.534H898.701V410.758C898.701 411.046 898.744 411.263 898.83 411.409C898.916 411.552 899.027 411.649 899.163 411.702C899.303 411.752 899.453 411.777 899.616 411.777C899.735 411.777 899.839 411.769 899.929 411.752C900.018 411.736 900.088 411.722 900.138 411.712L900.406 412.94C900.32 412.973 900.197 413.007 900.038 413.04C899.879 413.076 899.68 413.096 899.442 413.099C899.051 413.106 898.686 413.036 898.348 412.891C898.01 412.745 897.737 412.519 897.528 412.214C897.319 411.91 897.214 411.527 897.214 411.066V403.534Z" fill="#736D6D"/>
<path d="M970.337 402.818V413H968.925L963.749 405.533H963.655V413H962.119V402.818H963.54L968.721 410.295H968.815V402.818H970.337ZM975.675 413.154C974.959 413.154 974.334 412.99 973.801 412.662C973.267 412.334 972.853 411.875 972.558 411.285C972.263 410.695 972.115 410.005 972.115 409.217C972.115 408.424 972.263 407.732 972.558 407.138C972.853 406.545 973.267 406.085 973.801 405.756C974.334 405.428 974.959 405.264 975.675 405.264C976.391 405.264 977.016 405.428 977.549 405.756C978.083 406.085 978.497 406.545 978.792 407.138C979.087 407.732 979.235 408.424 979.235 409.217C979.235 410.005 979.087 410.695 978.792 411.285C978.497 411.875 978.083 412.334 977.549 412.662C977.016 412.99 976.391 413.154 975.675 413.154ZM975.68 411.906C976.144 411.906 976.528 411.784 976.833 411.538C977.138 411.293 977.364 410.967 977.509 410.559C977.659 410.151 977.733 409.702 977.733 409.212C977.733 408.724 977.659 408.277 977.509 407.869C977.364 407.458 977.138 407.129 976.833 406.88C976.528 406.631 976.144 406.507 975.68 406.507C975.213 406.507 974.825 406.631 974.517 406.88C974.212 407.129 973.985 407.458 973.835 407.869C973.69 408.277 973.617 408.724 973.617 409.212C973.617 409.702 973.69 410.151 973.835 410.559C973.985 410.967 974.212 411.293 974.517 411.538C974.825 411.784 975.213 411.906 975.68 411.906ZM987.167 405.364L984.398 413H982.807L980.032 405.364H981.628L983.562 411.24H983.642L985.571 405.364H987.167Z" fill="#736D6D"/>
<path d="M1052.41 413H1049.12V402.818H1052.52C1053.52 402.818 1054.37 403.022 1055.09 403.43C1055.81 403.834 1056.35 404.416 1056.74 405.175C1057.12 405.93 1057.31 406.837 1057.31 407.894C1057.31 408.955 1057.12 409.866 1056.73 410.629C1056.35 411.391 1055.79 411.978 1055.06 412.388C1054.33 412.796 1053.45 413 1052.41 413ZM1050.65 411.658H1052.33C1053.11 411.658 1053.75 411.512 1054.26 411.22C1054.78 410.925 1055.16 410.499 1055.42 409.942C1055.67 409.382 1055.8 408.7 1055.8 407.894C1055.8 407.095 1055.67 406.418 1055.42 405.861C1055.17 405.304 1054.79 404.881 1054.29 404.593C1053.79 404.305 1053.17 404.161 1052.42 404.161H1050.65V411.658ZM1062.39 413.154C1061.64 413.154 1060.99 412.993 1060.45 412.672C1059.91 412.347 1059.49 411.891 1059.2 411.305C1058.91 410.715 1058.76 410.024 1058.76 409.232C1058.76 408.449 1058.91 407.76 1059.2 407.163C1059.49 406.567 1059.9 406.101 1060.43 405.766C1060.96 405.432 1061.58 405.264 1062.29 405.264C1062.72 405.264 1063.14 405.335 1063.54 405.478C1063.95 405.621 1064.31 405.844 1064.63 406.149C1064.95 406.454 1065.21 406.85 1065.39 407.337C1065.58 407.821 1065.67 408.41 1065.67 409.102V409.629H1059.6V408.516H1064.21C1064.21 408.125 1064.13 407.778 1063.97 407.477C1063.82 407.172 1063.59 406.931 1063.3 406.756C1063.02 406.58 1062.68 406.492 1062.3 406.492C1061.88 406.492 1061.52 406.595 1061.21 406.8C1060.9 407.003 1060.66 407.268 1060.49 407.596C1060.32 407.921 1060.24 408.274 1060.24 408.655V409.525C1060.24 410.035 1060.33 410.469 1060.51 410.827C1060.69 411.185 1060.95 411.459 1061.27 411.648C1061.6 411.833 1061.97 411.926 1062.41 411.926C1062.69 411.926 1062.95 411.886 1063.18 411.807C1063.41 411.724 1063.61 411.601 1063.78 411.439C1063.95 411.277 1064.08 411.076 1064.17 410.837L1065.58 411.091C1065.46 411.505 1065.26 411.868 1064.97 412.18C1064.68 412.488 1064.32 412.728 1063.88 412.901C1063.45 413.07 1062.95 413.154 1062.39 413.154ZM1070.54 413.154C1069.8 413.154 1069.16 412.987 1068.63 412.652C1068.1 412.314 1067.69 411.848 1067.4 411.255C1067.12 410.662 1066.98 409.982 1066.98 409.217C1066.98 408.441 1067.12 407.757 1067.41 407.163C1067.71 406.567 1068.12 406.101 1068.65 405.766C1069.18 405.432 1069.8 405.264 1070.52 405.264C1071.1 405.264 1071.62 405.372 1072.07 405.587C1072.53 405.799 1072.89 406.098 1073.17 406.482C1073.45 406.867 1073.62 407.316 1073.67 407.83H1072.23C1072.15 407.472 1071.96 407.163 1071.68 406.905C1071.4 406.646 1071.02 406.517 1070.55 406.517C1070.13 406.517 1069.77 406.626 1069.46 406.845C1069.15 407.061 1068.91 407.369 1068.74 407.77C1068.56 408.168 1068.48 408.638 1068.48 409.182C1068.48 409.739 1068.56 410.219 1068.73 410.624C1068.9 411.028 1069.14 411.341 1069.45 411.563C1069.76 411.785 1070.13 411.896 1070.55 411.896C1070.83 411.896 1071.08 411.845 1071.31 411.742C1071.54 411.636 1071.74 411.485 1071.89 411.29C1072.05 411.094 1072.16 410.859 1072.23 410.584H1073.67C1073.62 411.078 1073.46 411.518 1073.19 411.906C1072.92 412.294 1072.56 412.599 1072.11 412.821C1071.66 413.043 1071.14 413.154 1070.54 413.154Z" fill="#736D6D"/>
<defs>
<linearGradient id="paint0_linear_0_1" x1="-408.41" y1="-63.403" x2="1014.56" y2="772.672" gradientUnits="userSpaceOnUse">
<stop stop-color="#CC0000" stop-opacity="0.1"/>
<stop offset="1" stop-color="#CC0000" stop-opacity="0"/>
</linearGradient>
</defs>
</svg>
