<svg width="61" height="60" viewBox="0 0 61 60" fill="none" xmlns="http://www.w3.org/2000/svg">
<path d="M30.5 5.625C25.6791 5.625 20.9664 7.05457 16.958 9.73293C12.9495 12.4113 9.82533 16.2181 7.98045 20.6721C6.13556 25.126 5.65286 30.027 6.59337 34.7553C7.53388 39.4836 9.85538 43.8268 13.2643 47.2357C16.6732 50.6446 21.0164 52.9661 25.7447 53.9066C30.473 54.8472 35.374 54.3644 39.8279 52.5196C44.2819 50.6747 48.0887 47.5505 50.7671 43.542C53.4454 39.5336 54.875 34.8209 54.875 30C54.8682 23.5374 52.2979 17.3415 47.7282 12.7718C43.1585 8.20209 36.9626 5.63182 30.5 5.625ZM41.2016 25.7016L28.0766 38.8266C27.9024 39.0009 27.6956 39.1392 27.468 39.2335C27.2404 39.3279 26.9964 39.3765 26.75 39.3765C26.5036 39.3765 26.2596 39.3279 26.032 39.2335C25.8044 39.1392 25.5976 39.0009 25.4234 38.8266L19.7984 33.2016C19.4466 32.8497 19.249 32.3726 19.249 31.875C19.249 31.3774 19.4466 30.9003 19.7984 30.5484C20.1503 30.1966 20.6275 29.999 21.125 29.999C21.6226 29.999 22.0997 30.1966 22.4516 30.5484L26.75 34.8492L38.5484 23.0484C38.7227 22.8742 38.9295 22.736 39.1571 22.6418C39.3847 22.5475 39.6286 22.499 39.875 22.499C40.1214 22.499 40.3653 22.5475 40.5929 22.6418C40.8206 22.736 41.0274 22.8742 41.2016 23.0484C41.3758 23.2226 41.514 23.4295 41.6082 23.6571C41.7025 23.8847 41.7511 24.1286 41.7511 24.375C41.7511 24.6214 41.7025 24.8653 41.6082 25.0929C41.514 25.3205 41.3758 25.5274 41.2016 25.7016Z" fill="#219B72"/>
</svg>
