<svg width="16" height="16" viewBox="0 0 16 16" fill="none" xmlns="http://www.w3.org/2000/svg">
<mask id="mask0_292_899" style="mask-type:alpha" maskUnits="userSpaceOnUse" x="0" y="0" width="16" height="16">
<rect width="16" height="16" fill="#D9D9D9"/>
</mask>
<g mask="url(#mask0_292_899)">
<path d="M7.59744 7.99998L4.94359 4.28715C4.8265 4.12049 4.8124 3.94764 4.90129 3.76858C4.99018 3.58953 5.13759 3.5 5.34352 3.5C5.42589 3.5 5.50414 3.51878 5.57827 3.55633C5.65242 3.59389 5.71008 3.64605 5.75126 3.71282L8.82049 7.99998L5.75126 12.2872C5.70996 12.3539 5.65212 12.4061 5.57776 12.4436C5.5034 12.4812 5.42492 12.5 5.34231 12.5C5.14402 12.5 4.99872 12.4104 4.90641 12.2314C4.81411 12.0523 4.8265 11.8795 4.94359 11.7128L7.59744 7.99998ZM11.5128 7.99998L8.85897 4.28715C8.74188 4.12049 8.72778 3.94764 8.81667 3.76858C8.90555 3.58953 9.05296 3.5 9.25889 3.5C9.34127 3.5 9.41952 3.51878 9.49366 3.55633C9.56779 3.59389 9.62545 3.64605 9.66664 3.71282L12.7359 7.99998L9.66664 12.2872C9.62533 12.3539 9.56749 12.4061 9.49314 12.4436C9.41878 12.4812 9.34029 12.5 9.25767 12.5C9.05939 12.5 8.9141 12.4104 8.82179 12.2314C8.72949 12.0523 8.74188 11.8795 8.85897 11.7128L11.5128 7.99998Z" fill="white"/>
</g>
</svg>
