<svg width="53" height="63" viewBox="0 0 53 63" fill="none" xmlns="http://www.w3.org/2000/svg">
<path fill-rule="evenodd" clip-rule="evenodd" d="M30.478 14.2567C35.6878 11.8359 40.0804 7.48686 45.7667 7.08954C51.9453 6.65782 58.4769 8.0898 62.9636 11.9868C67.4127 15.851 68.7084 22.0136 69.6175 27.8053C70.4477 33.0939 69.6921 38.4331 67.9291 43.6186C66.1921 48.7277 63.3699 53.326 59.5766 57.3389C55.4032 61.7538 50.9005 66.2021 45.0127 67.8614C38.7951 69.6138 32.0857 69.1001 26.2916 66.7197C20.4852 64.3344 15.8543 59.9156 12.7865 54.6224C9.82085 49.5056 8.94846 43.5057 9.37452 37.5315C9.78524 31.7725 11.1417 25.7445 15.1622 21.3102C18.9799 17.0998 25.2753 16.6741 30.478 14.2567Z" fill="#FCF0F0"/>
<mask id="mask0_294_1379" style="mask-type:alpha" maskUnits="userSpaceOnUse" x="17" y="14" width="48" height="49">
<rect x="17" y="30" width="36" height="36" transform="rotate(-24.8646 17 30)" fill="#D9D9D9"/>
</mask>
<g mask="url(#mask0_294_1379)">
<path d="M36.3865 48.8436C35.8817 48.8063 35.4276 48.6507 35.0242 48.377C34.6207 48.1032 34.3097 47.7306 34.0912 47.2591L31.3548 41.3546L27.942 41.1113C27.6597 41.0875 27.4238 41.0085 27.2346 40.8745C27.0453 40.7404 26.8989 40.5619 26.7955 40.3387C26.6921 40.1156 26.6505 39.8887 26.6707 39.6578C26.6909 39.427 26.7831 39.1961 26.9474 38.9652L34.7147 28.4881C34.8517 28.3001 35.0067 28.1367 35.18 27.9982C35.3532 27.8596 35.5427 27.7426 35.7485 27.6473C35.9543 27.5519 36.166 27.4829 36.3837 27.4403C36.6014 27.3977 36.8264 27.3848 37.0586 27.4015L51.7543 28.3496C52.0162 28.366 52.2478 28.445 52.4491 28.5866C52.6504 28.7282 52.8029 28.911 52.9067 29.1349L56.6279 37.1645C56.7619 37.4537 56.7764 37.7415 56.6713 38.0278C56.5663 38.3142 56.3691 38.5244 56.0798 38.6585C55.7904 38.7925 55.5027 38.807 55.2166 38.702C54.9306 38.5969 54.7205 38.3998 54.5865 38.1106L51.0472 30.4735L49.0472 33.1554L51.7835 39.0598C52.002 39.5314 52.0853 40.0095 52.0334 40.4943C51.9815 40.9791 51.8066 41.4262 51.5088 41.8355L46.7226 48.2471C46.5844 48.4383 46.4287 48.6032 46.2555 48.7417C46.0823 48.8803 45.8928 48.9973 45.687 49.0926C45.4812 49.188 45.2695 49.257 45.0517 49.2996C44.834 49.3422 44.6076 49.3544 44.3724 49.3362L36.3865 48.8436ZM41.1477 39.7095C41.225 39.7161 41.2876 39.7083 41.3356 39.686C41.3836 39.6638 41.43 39.6211 41.4749 39.5579L48.317 30.3654L36.8865 29.6569C36.8093 29.6503 36.7466 29.6581 36.6986 29.6804C36.6507 29.7026 36.6042 29.7454 36.5593 29.8086L29.6981 38.994L41.1477 39.7095ZM44.5587 47.1039C44.6359 47.1105 44.7007 47.1017 44.7531 47.0774C44.8054 47.0532 44.854 47.0094 44.8989 46.9462L49.7253 40.4842C49.7749 40.4083 49.8018 40.3348 49.8061 40.2639C49.8103 40.1931 49.7922 40.114 49.7518 40.0268L47.5104 35.1902L43.3293 40.8699C43.1911 41.0611 43.0328 41.2272 42.8544 41.3682C42.6759 41.5092 42.482 41.6282 42.2727 41.7252C42.0633 41.8222 41.8471 41.8933 41.6243 41.9383C41.4014 41.9833 41.1723 41.9967 40.9371 41.9785L33.9008 41.4973L36.1423 46.3339C36.1746 46.4037 36.2212 46.4643 36.2821 46.5156C36.3429 46.5668 36.4184 46.5981 36.5084 46.6094L44.5587 47.1039Z" fill="#CC0000"/>
</g>
</svg>
