<svg width="16" height="12" viewBox="0 0 16 12" fill="none" xmlns="http://www.w3.org/2000/svg">
<path d="M1.84615 11.8329C1.4626 11.8329 1.14236 11.7045 0.885417 11.4475C0.628472 11.1906 0.5 10.8703 0.5 10.4868V1.51241C0.5 1.12886 0.628472 0.808621 0.885417 0.551676C1.14236 0.294732 1.4626 0.16626 1.84615 0.16626H14.1539C14.5374 0.16626 14.8576 0.294732 15.1146 0.551676C15.3715 0.808621 15.5 1.12886 15.5 1.51241V10.4868C15.5 10.8703 15.3715 11.1906 15.1146 11.4475C14.8576 11.7045 14.5374 11.8329 14.1539 11.8329H1.84615ZM14.6667 1.73678L8.3734 5.85697C8.31463 5.88795 8.25507 5.91386 8.19471 5.9347C8.13435 5.95553 8.06944 5.96595 8 5.96595C7.93056 5.96595 7.86565 5.95553 7.80529 5.9347C7.74493 5.91386 7.68537 5.88795 7.6266 5.85697L1.33333 1.73678V10.4868C1.33333 10.6364 1.38141 10.7592 1.47756 10.8554C1.57372 10.9515 1.69658 10.9996 1.84615 10.9996H14.1539C14.3034 10.9996 14.4263 10.9515 14.5224 10.8554C14.6186 10.7592 14.6667 10.6364 14.6667 10.4868V1.73678ZM8 5.16626L14.4103 0.999593H1.58975L8 5.16626ZM1.33333 1.91305V1.23678V1.26561V1.22316V1.91305Z" fill="#1C1B1F"/>
</svg>
