<svg width="162" height="171" viewBox="0 0 162 171" fill="none" xmlns="http://www.w3.org/2000/svg">
<path d="M81 170.035C125.735 170.035 162 149.098 162 123.27C162 97.4426 125.735 76.5051 81 76.5051C36.2649 76.5051 0 97.4426 0 123.27C0 149.098 36.2649 170.035 81 170.035Z" fill="#F5F5F5"/>
<path d="M49.0084 154.012L68.0073 143.042C68.1637 142.951 68.2936 142.82 68.3839 142.663C68.4741 142.506 68.5216 142.328 68.5216 142.147C68.5216 141.966 68.4741 141.788 68.3839 141.631C68.2936 141.474 68.1637 141.344 68.0073 141.253L49.0084 130.282C48.572 130.032 48.0776 129.9 47.5743 129.9C47.071 129.9 46.5765 130.032 46.1401 130.282L27.1413 141.253C26.9848 141.344 26.855 141.474 26.7647 141.631C26.6745 141.788 26.627 141.966 26.627 142.147C26.627 142.328 26.6745 142.506 26.7647 142.663C26.855 142.82 26.9848 142.951 27.1413 143.042L46.1401 154.012C46.5765 154.263 47.071 154.395 47.5743 154.395C48.0776 154.395 48.572 154.263 49.0084 154.012Z" fill="#E0E0E0"/>
<path d="M75.4918 138.732L114.905 115.974C115.12 115.85 115.298 115.671 115.422 115.456C115.546 115.241 115.612 114.997 115.612 114.749C115.612 114.5 115.546 114.257 115.422 114.041C115.298 113.826 115.12 113.648 114.905 113.523L83.3945 95.1455C82.8896 94.851 82.3156 94.6958 81.7311 94.6958C81.1467 94.6958 80.5727 94.851 80.0678 95.1455L40.6656 117.896C40.4507 118.02 40.2723 118.199 40.1483 118.414C40.0243 118.629 39.959 118.873 39.959 119.121C39.959 119.37 40.0243 119.614 40.1483 119.829C40.2723 120.044 40.4507 120.222 40.6656 120.347L72.18 138.725C72.6824 139.017 73.2533 139.172 73.8349 139.174C74.4165 139.175 74.9881 139.023 75.4918 138.732Z" fill="#E0E0E0"/>
<path d="M107.088 148.59C116.856 148.59 124.775 144.019 124.775 138.381C124.775 132.742 116.856 128.172 107.088 128.172C97.3199 128.172 89.4014 132.742 89.4014 138.381C89.4014 144.019 97.3199 148.59 107.088 148.59Z" fill="#E0E0E0"/>
<path d="M30.971 41.7307V59.251L15.7979 68.0149V50.4909L30.971 41.7307Z" fill="#FAFAFA"/>
<path d="M29.3299 42.677V58.3122L15.7979 66.115V50.4909L29.3299 42.677ZM30.1505 41.2539L14.9736 50.0178V67.5528L15.7979 68.026L30.9711 59.2658V41.7455L30.1505 41.2687V41.2539Z" fill="#E0E0E0"/>
<path d="M30.1505 43.1575V58.7816L16.6184 66.5918V50.964L30.1505 43.1575ZM30.971 41.7344L15.7979 50.4909V68.0112L30.971 59.251V41.7307V41.7344Z" fill="#EBEBEB"/>
<path d="M28.7462 55.2444L17.2656 61.8718L20.6551 53.0451L23.0059 55.8358L25.4048 52.4167L28.7462 55.2444Z" fill="#E0E0E0"/>
<path d="M24.4553 50.7702C24.8646 50.0612 24.8654 49.2954 24.457 49.0596C24.0486 48.8238 23.3858 49.2074 22.9765 49.9163C22.5672 50.6253 22.5664 51.3911 22.9748 51.6269C23.3832 51.8627 24.046 51.4791 24.4553 50.7702Z" fill="#E0E0E0"/>
<path d="M36.0348 19.9116V33.8724L23.9443 40.851V26.8939L36.0348 19.9116Z" fill="#FAFAFA"/>
<path d="M34.7263 20.6694V33.1184L23.9443 39.3393V26.8939L34.7263 20.6694ZM35.3805 19.5347L23.29 26.5243V40.4814L23.9443 40.851L36.0348 33.8725V19.9154L35.3805 19.5458V19.5347Z" fill="#E0E0E0"/>
<path d="M35.3806 21.0464V33.4954L24.5986 39.72V27.2635L35.3806 21.039M36.0348 19.908L23.9443 26.8939V40.851L36.0348 33.8725V19.9154V19.908Z" fill="#EBEBEB"/>
<path d="M34.2608 30.679L25.1162 35.961L27.8145 28.9307L29.6885 31.1521L31.5995 28.428L34.2608 30.679Z" fill="#E0E0E0"/>
<path d="M31.1004 26.2952C31.0843 26.5848 31.0003 26.8665 30.8552 27.1175C30.7101 27.3686 30.5079 27.582 30.265 27.7405C29.803 28.0066 29.4297 27.7885 29.4297 27.2563C29.4458 26.9667 29.5298 26.685 29.6749 26.434C29.82 26.1829 30.0222 25.9695 30.265 25.811C30.7308 25.5449 31.1004 25.763 31.1004 26.2952Z" fill="#E0E0E0"/>
<path d="M72.3916 134.208V136.85C72.403 136.983 72.4499 137.11 72.5273 137.218C72.6047 137.326 72.7098 137.411 72.8315 137.464C73.1599 137.632 73.5235 137.719 73.8923 137.719C74.2611 137.719 74.6247 137.632 74.9531 137.464C75.0748 137.411 75.1799 137.326 75.2573 137.218C75.3347 137.11 75.3816 136.983 75.393 136.85V134.208H72.3916Z" fill="#EBEBEB"/>
<path d="M109.11 113.017V115.66C109.122 115.792 109.169 115.919 109.246 116.027C109.323 116.135 109.429 116.22 109.55 116.273C109.879 116.439 110.243 116.525 110.611 116.525C110.979 116.525 111.343 116.439 111.672 116.273C111.794 116.22 111.899 116.135 111.976 116.027C112.053 115.919 112.1 115.792 112.112 115.66V113.017H109.11Z" fill="#EBEBEB"/>
<path d="M50.1328 121.3V123.947C50.1442 124.079 50.1911 124.206 50.2685 124.314C50.3459 124.422 50.451 124.507 50.5727 124.56C50.9017 124.726 51.265 124.812 51.6335 124.812C52.0019 124.812 52.3653 124.726 52.6943 124.56C52.816 124.507 52.9211 124.422 52.9985 124.314C53.0759 124.206 53.1228 124.079 53.1342 123.947V121.3H50.1328Z" fill="#EBEBEB"/>
<path d="M80.6231 65.6492L50.2842 82.1863V110.962L87.9122 90.7838L80.6231 65.6492Z" fill="#455A64"/>
<path d="M105.654 90.7839L103.758 89.6935L85.3692 79.1813C85.2142 79.0933 85.0843 78.9671 84.9918 78.8148C84.8993 78.6624 84.8472 78.489 84.8406 78.3109C84.8339 78.1328 84.8728 77.9559 84.9537 77.7971C85.0346 77.6383 85.1547 77.5028 85.3027 77.4034L86.4928 76.605L85.0143 66.4366C84.9134 65.7527 84.6621 65.0997 84.2786 64.5245C83.8952 63.9493 83.389 63.4662 82.7966 63.1099L80.0872 61.4836C79.9566 61.406 79.8077 61.3643 79.6557 61.3628C79.5037 61.3614 79.3541 61.4001 79.2219 61.4752C79.0898 61.5503 78.9798 61.659 78.9033 61.7903C78.8268 61.9216 78.7863 62.0709 78.7861 62.2228V99.2631C78.7873 99.9028 78.9591 100.531 79.284 101.082C79.6089 101.633 80.0751 102.087 80.6343 102.398L106.216 116.684C106.424 116.799 106.658 116.86 106.896 116.86C107.134 116.86 107.368 116.799 107.576 116.684L107.676 116.628C107.883 116.5 108.053 116.322 108.171 116.11C108.288 115.897 108.35 115.659 108.349 115.416V95.4338C108.348 94.4904 108.098 93.5639 107.625 92.7476C107.152 91.9313 106.472 91.254 105.654 90.7839Z" fill="#455A64"/>
<path d="M46.2734 81.2992V81.0441C46.2736 80.4371 46.433 79.8407 46.736 79.3146C47.0389 78.7886 47.4746 78.3513 47.9996 78.0464L77.3036 61.0214C77.627 60.8298 77.9959 60.7288 78.3718 60.7288C78.7477 60.7288 79.1166 60.8298 79.44 61.0214L82.6114 62.9324C82.8175 63.0549 82.9881 63.2288 83.1067 63.4371C83.2252 63.6455 83.2875 63.8811 83.2875 64.1208C83.2875 64.3604 83.2252 64.596 83.1067 64.8044C82.9881 65.0127 82.8175 65.1866 82.6114 65.3091L51.7661 83.5502L46.2734 81.2992Z" fill="#37474F"/>
<path d="M84.8252 78.198V107.265L105.258 116.613C105.679 116.806 106.138 116.896 106.6 116.877C107.062 116.857 107.513 116.729 107.916 116.502L110.998 114.761V90.307L84.8252 78.198Z" fill="#263238"/>
<path d="M84.3815 129.78L100.545 120.716C101.33 120.279 101.987 119.643 102.448 118.872C102.91 118.101 103.161 117.222 103.176 116.323C103.191 115.425 102.969 114.538 102.534 113.752C102.098 112.966 101.463 112.309 100.693 111.845L84.607 102.109C84.5636 102.085 84.5146 102.072 84.4647 102.072C84.4148 102.072 84.3658 102.085 84.3224 102.109L59.3208 115.93C59.2779 115.955 59.2422 115.991 59.2175 116.034C59.1927 116.077 59.1797 116.126 59.1797 116.175C59.1797 116.225 59.1927 116.274 59.2175 116.317C59.2422 116.36 59.2779 116.396 59.3208 116.421L81.4984 129.728C81.933 129.986 82.4275 130.127 82.9331 130.136C83.4387 130.145 83.9379 130.022 84.3815 129.78Z" fill="#263238"/>
<path d="M82.6895 128.541C82.6903 128.764 82.7495 128.983 82.8611 129.176C82.9726 129.369 83.1328 129.53 83.3255 129.642C83.5183 129.754 83.737 129.814 83.96 129.815C84.183 129.817 84.4025 129.76 84.5967 129.65L104.557 118.524C105.138 118.199 105.623 117.724 105.96 117.149C106.297 116.574 106.475 115.92 106.475 115.253V113.291L83.5876 127.063C83.3191 127.211 83.0952 127.428 82.9392 127.692C82.7832 127.956 82.7008 128.257 82.7005 128.564L82.6895 128.541Z" fill="#455A64"/>
<path d="M84.2153 126.693L105.362 115.065C105.691 114.883 105.967 114.619 106.163 114.299C106.358 113.978 106.467 113.612 106.478 113.236C106.489 112.86 106.401 112.488 106.224 112.157C106.047 111.826 105.787 111.546 105.469 111.346L85.0655 98.5422L59.4873 112.677L82.7812 126.693C82.9988 126.82 83.2463 126.887 83.4983 126.887C83.7502 126.887 83.9977 126.82 84.2153 126.693Z" fill="#37474F"/>
<path d="M83.3506 125.743L104.704 113.63L84.4668 97.426L58.8887 111.564L82.4783 125.732C82.6098 125.811 82.7597 125.853 82.9129 125.855C83.0661 125.857 83.2171 125.818 83.3506 125.743Z" fill="#263238"/>
<path d="M82.6895 118.413V123.939C82.6903 124.162 82.7495 124.381 82.8611 124.574C82.9727 124.767 83.1328 124.928 83.3256 125.04C83.5183 125.152 83.7371 125.212 83.96 125.213C84.183 125.215 84.4025 125.158 84.5967 125.048L104.704 113.63C105.247 113.323 105.699 112.877 106.012 112.338C106.326 111.799 106.491 111.186 106.49 110.563V102.738L84.0756 115.974C83.652 116.224 83.3012 116.581 83.0581 117.009C82.815 117.437 82.6879 117.921 82.6895 118.413Z" fill="#455A64"/>
<path d="M84.2377 116.48L105.595 104.516C105.863 104.366 106.087 104.148 106.244 103.885C106.402 103.621 106.487 103.321 106.492 103.014C106.497 102.707 106.421 102.404 106.272 102.136C106.123 101.867 105.906 101.643 105.643 101.485L84.4668 88.666L58.8887 102.804L81.6096 116.447C82.0056 116.685 82.4575 116.813 82.9192 116.819C83.3809 116.825 83.8358 116.708 84.2377 116.48Z" fill="#37474F"/>
<path d="M90.9978 75.7252C90.48 75.4242 89.8881 75.2746 89.2895 75.2936C88.6909 75.3125 88.1097 75.4992 87.612 75.8324L86.4772 76.5939L85.2871 77.3923C85.1391 77.4916 85.019 77.6271 84.9381 77.786C84.8572 77.9448 84.8183 78.1216 84.825 78.2997C84.8316 78.4778 84.8837 78.6513 84.9762 78.8036C85.0687 78.956 85.1986 79.0821 85.3536 79.1702L103.743 89.6823L105.591 90.7321C105.62 90.7321 105.646 90.7727 105.679 90.7875C106.512 91.2826 107.199 91.9901 107.668 92.8377C108.138 93.6853 108.374 94.6424 108.352 95.6112V115.434C108.353 115.677 108.291 115.916 108.174 116.128C108.056 116.34 107.885 116.519 107.679 116.647L112.222 114.081C112.752 113.783 113.193 113.348 113.501 112.823C113.808 112.297 113.97 111.7 113.97 111.091V91.8705C113.97 91.0269 113.749 90.1979 113.329 89.4664C112.908 88.7348 112.304 88.1262 111.575 87.7011L90.9978 75.7252Z" fill="#455A64"/>
<path d="M111.556 87.7085L90.9978 75.7252C90.48 75.4242 89.8881 75.2746 89.2895 75.2936C88.6909 75.3125 88.1097 75.4992 87.612 75.8324L86.4772 76.5939L85.2871 77.3923C85.1391 77.4916 85.019 77.6271 84.9381 77.786C84.8572 77.9448 84.8183 78.1216 84.825 78.2997C84.8316 78.4778 84.8837 78.6513 84.9762 78.8036C85.0687 78.956 85.1986 79.0821 85.3536 79.1702L103.743 89.6823L105.591 90.7321C105.62 90.7321 105.646 90.7727 105.679 90.7875C106.579 91.2962 107.3 92.0709 107.742 93.0053L113.305 89.4458C112.881 88.7261 112.279 88.1278 111.556 87.7085Z" fill="#37474F"/>
<path d="M64.0416 56.3642C64.0416 56.3642 63.2358 50.21 73.3635 50.21C81.8058 50.21 81.4953 59.3139 76.0988 61.9308L64.0416 56.3642Z" fill="#263238"/>
<path d="M64.8772 62.2043C66.8308 62.2043 68.4145 60.6206 68.4145 58.667C68.4145 56.7134 66.8308 55.1296 64.8772 55.1296C62.9236 55.1296 61.3398 56.7134 61.3398 58.667C61.3398 60.6206 62.9236 62.2043 64.8772 62.2043Z" fill="#263238"/>
<path d="M80.3934 58.6596C80.3942 59.2228 80.2278 59.7736 79.9153 60.2422C79.6028 60.7108 79.1584 61.0762 78.6382 61.292C78.118 61.5079 77.5454 61.5646 76.993 61.4549C76.4405 61.3452 75.933 61.074 75.5348 60.6758C75.1365 60.2775 74.8654 59.77 74.7557 59.2176C74.646 58.6652 74.7027 58.0926 74.9185 57.5724C75.1344 57.0522 75.4998 56.6077 75.9684 56.2953C76.437 55.9828 76.9878 55.8164 77.551 55.8171C78.3049 55.8171 79.0278 56.1166 79.5609 56.6497C80.094 57.1827 80.3934 57.9057 80.3934 58.6596Z" fill="#263238"/>
<path d="M65.5237 66.9799C67.4773 66.9799 69.061 65.3962 69.061 63.4426C69.061 61.489 67.4773 59.9053 65.5237 59.9053C63.57 59.9053 61.9863 61.489 61.9863 63.4426C61.9863 65.3962 63.57 66.9799 65.5237 66.9799Z" fill="#263238"/>
<path d="M69.4602 69.1867C71.4138 69.1867 72.9975 67.603 72.9975 65.6494C72.9975 63.6958 71.4138 62.1121 69.4602 62.1121C67.5066 62.1121 65.9229 63.6958 65.9229 65.6494C65.9229 67.603 67.5066 69.1867 69.4602 69.1867Z" fill="#263238"/>
<path d="M96.4395 121.112L103.599 130.622L101.611 132.193C101.611 132.193 98.7422 131.594 97.7331 127.802C97.1342 125.608 96.7018 123.371 96.4395 121.112Z" fill="#FFA8A7"/>
<path d="M95.7852 120.465C95.7852 120.465 93.8003 122.265 94.6764 123.88C95.5524 125.495 97.0789 126.789 97.127 128.915C97.175 131.04 98.2359 134.829 100.59 135.427C102.945 136.026 105.251 135.206 105.207 134.37C105.163 133.535 103.592 130.622 103.592 130.622C103.592 130.622 101.426 131.964 99.829 130.67C98.2322 129.377 97.8625 123.928 97.8625 123.928L95.7852 120.465Z" fill="#CC0000"/>
<path opacity="0.2" d="M95.7852 120.465C95.7852 120.465 93.8003 122.265 94.6764 123.88C95.5524 125.495 97.0789 126.789 97.127 128.915C97.175 131.04 98.2359 134.829 100.59 135.427C102.945 136.026 105.251 135.206 105.207 134.37C105.163 133.535 103.592 130.622 103.592 130.622C103.592 130.622 101.426 131.964 99.829 130.67C98.2322 129.377 97.8625 123.928 97.8625 123.928L95.7852 120.465Z" fill="black"/>
<path d="M83.5876 91.0168C83.5876 91.0168 99.5296 97.7625 100.823 98.4094C102.117 99.0562 104.379 100.258 104.15 105.432C103.921 110.607 102.623 123.503 102.623 123.503L93.8817 106.693L71.3086 95.9514L83.5876 91.0168Z" fill="#CC0000"/>
<path opacity="0.5" d="M83.5876 91.0168C83.5876 91.0168 99.5296 97.7625 100.823 98.4094C102.117 99.0562 104.379 100.258 104.15 105.432C103.921 110.607 102.623 123.503 102.623 123.503L93.8817 106.693L71.3086 95.9514L83.5876 91.0168Z" fill="black"/>
<path d="M103.263 116.85C102.923 120.524 102.623 123.503 102.623 123.503L93.8816 106.693L77.7881 99.045L81.4437 96.1841C86.5889 98.7715 94.059 102.516 96.2879 103.658C99.1303 105.111 100.006 109.228 102.453 114.946C102.712 115.553 102.986 116.192 103.263 116.85Z" fill="#CC0000"/>
<path opacity="0.7" d="M103.263 116.85C102.923 120.524 102.623 123.503 102.623 123.503L93.8816 106.693L77.7881 99.045L81.4437 96.1841C86.5889 98.7715 94.059 102.516 96.2879 103.658C99.1303 105.111 100.006 109.228 102.453 114.946C102.712 115.553 102.986 116.192 103.263 116.85Z" fill="black"/>
<path d="M82.2679 94.4543L80.623 96.9419L81.9094 97.1378L82.2679 94.4543Z" fill="#CC0000"/>
<path opacity="0.7" d="M82.2679 94.4543L80.623 96.9419L81.9094 97.1378L82.2679 94.4543Z" fill="black"/>
<path d="M103.503 134.37C103.503 134.37 103.273 134.74 103.273 136.677C103.273 138.614 104.013 138.98 104.992 139.327C105.972 139.675 108.77 141.719 109.55 142.617C110.33 143.515 113.446 144.465 116.525 143.899C119.604 143.334 120.261 141.312 118.776 140.022C117.29 138.732 113.069 136.326 113.069 136.326L103.503 134.37Z" fill="#CC0000"/>
<path d="M66.5844 94.9977L73.4446 93.4268C73.4446 93.4268 92.4915 102.978 95.3302 104.434C98.169 105.891 99.0487 110.005 101.496 115.723C103.344 120.025 105.739 125.928 107.325 129.473C107.325 129.473 106.197 132.467 102.623 131.716C101.411 129.074 99.2704 126.708 96.1619 122.513C93.4673 118.876 92.4176 115.664 92.0073 113.738C91.8883 113.169 91.6111 112.646 91.2076 112.228C90.8041 111.81 90.2907 111.515 89.7267 111.376C86.5812 110.611 80.1755 108.955 73.4114 106.622C63.8861 103.325 66.5844 94.9977 66.5844 94.9977Z" fill="#CC0000"/>
<path opacity="0.5" d="M66.5844 94.9977L73.4446 93.4268C73.4446 93.4268 92.4915 102.978 95.3302 104.434C98.169 105.891 99.0487 110.005 101.496 115.723C103.344 120.025 105.739 125.928 107.325 129.473C107.325 129.473 106.197 132.467 102.623 131.716C101.411 129.074 99.2704 126.708 96.1619 122.513C93.4673 118.876 92.4176 115.664 92.0073 113.738C91.8883 113.169 91.6111 112.646 91.2076 112.228C90.8041 111.81 90.2907 111.515 89.7267 111.376C86.5812 110.611 80.1755 108.955 73.4114 106.622C63.8861 103.325 66.5844 94.9977 66.5844 94.9977Z" fill="black"/>
<path d="M107.324 129.458C107.846 130.626 108.282 131.539 108.578 132.045C109.771 134.123 113.261 136.374 114.492 137.435C115.722 138.495 115.97 138.913 114.809 139.8C111.852 142.077 109.265 139.593 107.602 138C106.487 136.98 105.263 136.085 103.953 135.331C103.857 135.278 103.773 135.203 103.709 135.113C103.645 135.023 103.603 134.919 103.584 134.81C103.402 133.732 103.077 132.683 102.619 131.691C106.197 132.452 107.324 129.458 107.324 129.458Z" fill="#FFA8A7"/>
<path d="M73.8584 101.51L85.8528 108.434L105.79 96.9049L93.7998 89.8413L73.8584 101.51Z" fill="#EBEBEB"/>
<path d="M84.5634 99.5403L89.0618 96.9418L86.2415 95.3154L81.7432 97.9139L84.5634 99.5403Z" fill="#E0E0E0"/>
<path d="M86.3627 106.704L80.3008 103.137L92.1436 95.9697L86.3627 106.704Z" fill="#E0E0E0"/>
<path d="M86.0081 85.3135L90.8133 87.5608C92.2457 87.9235 93.6583 88.3602 95.0455 88.8693C95.0455 88.8693 98.3721 90.2369 98.5348 91.1314C98.6974 92.0259 96.0287 94.1808 93.6964 93.1311C93.0818 92.8092 92.4265 92.5717 91.7484 92.4251C91.1237 92.3586 89.2608 92.0555 87.9154 90.784L84.0306 89.7305C84.0306 89.7305 82.0346 85.8679 86.0081 85.3135Z" fill="#FFA8A7"/>
<path d="M89.1318 92.0037C89.6899 92.5988 91.2719 94.0995 91.6194 94.5357C91.9668 94.9718 92.78 93.8518 91.3496 92.1885C90.1113 91.7347 88.9468 91.1008 87.8936 90.3071C88.263 90.903 88.6769 91.4702 89.1318 92.0037Z" fill="#FFA8A7"/>
<path d="M76.1943 68.6321C77.2965 68.4571 78.425 68.6786 79.3793 69.2573C80.3335 69.8359 81.0517 70.7342 81.4061 71.7924C81.9116 73.3203 82.2379 74.9018 82.3782 76.5051C82.7959 81.447 82.9105 83.9161 82.9105 83.9161L87.8745 86.1672C87.8745 86.1672 85.1947 86.2965 85.3759 90.0815L79.192 88.5217L76.1943 68.6321Z" fill="#FFA8A7"/>
<path d="M82.5223 78.2461C82.478 77.7064 82.4299 77.1261 82.3782 76.5051C82.2379 74.9018 81.9116 73.3203 81.4061 71.7924C81.0517 70.7342 80.3335 69.8359 79.3793 69.2573C78.425 68.6786 77.2965 68.4571 76.1943 68.6321L78.0092 80.6856L82.5223 78.2461Z" fill="#CC0000"/>
<path opacity="0.2" d="M82.5223 78.2461C82.478 77.7064 82.4299 77.1261 82.3782 76.5051C82.2379 74.9018 81.9116 73.3203 81.4061 71.7924C81.0517 70.7342 80.3335 69.8359 79.3793 69.2573C78.425 68.6786 77.2965 68.4571 76.1943 68.6321L78.0092 80.6856L82.5223 78.2461Z" fill="black"/>
<path d="M82.9111 83.9162C82.3495 84.086 81.8406 84.3965 81.4326 84.8181C81.4326 84.8181 82.0314 83.6797 82.8705 83.3396L82.9111 83.9162Z" fill="#F28F8F"/>
<path d="M68.3625 70.5948L64.877 72.0733V82.2861C65.9695 84.9002 66.5614 87.6962 66.6216 90.5288V95.5853C66.6216 95.5853 73.7406 98.1209 79.2628 95.3783C81.9389 94.0476 83.5912 91.013 83.5912 91.013C83.5912 91.013 80.6341 89.2832 80.6341 87.1689C80.6914 85.5166 80.888 83.8721 81.2218 82.2529C81.8659 81.6129 82.3539 80.8332 82.6481 79.9743C82.9423 79.1154 83.0348 78.2003 82.9184 77.2999C82.5266 73.9289 76.1801 68.6284 76.1801 68.6284L73.8145 68.9537L68.3625 70.5948Z" fill="#CC0000"/>
<path d="M68.3623 70.5948L73.8291 68.9574V62.3411H68.3623V70.5948Z" fill="#FFA8A7"/>
<path d="M73.8287 68.9575C72.7107 68.5429 71.6887 67.9055 70.8245 67.084C69.9604 66.2624 69.2722 65.2738 68.8018 64.1782V62.3301H73.8287V68.9575Z" fill="#F28F8F"/>
<path d="M75.1044 53.3776C75.1044 53.3776 80.1055 53.6696 79.4845 62.219C79.1999 66.1741 78.2758 68.2218 75.2301 68.0702C71.7815 67.9002 66.8839 65.5309 67.2055 58.7667C67.5271 52.0026 75.1044 53.3776 75.1044 53.3776Z" fill="#FFA8A7"/>
<path d="M68.3628 62.341C68.3628 62.341 69.7341 62.7106 69.7341 60.7368C69.7341 60.7368 75.8255 60.3228 77.171 54.2794C77.171 54.2794 76.5685 52.4683 72.765 52.4683C68.9616 52.4683 65.7643 55.8319 66.7586 60.4559L68.3628 62.341Z" fill="#263238"/>
<path d="M75.8213 60.5042V63.4427L77.5401 62.9141L75.8213 60.5042Z" fill="#F28F8F"/>
<path d="M73.2373 60.8146C73.2373 60.933 73.2724 61.0488 73.3382 61.1473C73.404 61.2458 73.4975 61.3225 73.6069 61.3678C73.7164 61.4132 73.8368 61.425 73.9529 61.4019C74.0691 61.3788 74.1758 61.3218 74.2595 61.238C74.3433 61.1543 74.4003 61.0476 74.4234 60.9314C74.4465 60.8153 74.4346 60.6949 74.3893 60.5855C74.344 60.4761 74.2672 60.3825 74.1688 60.3167C74.0703 60.2509 73.9545 60.2158 73.8361 60.2158C73.6773 60.2158 73.525 60.2789 73.4127 60.3912C73.3004 60.5035 73.2373 60.6558 73.2373 60.8146Z" fill="#263238"/>
<path d="M77.1709 60.4006C77.1709 60.519 77.206 60.6348 77.2718 60.7332C77.3376 60.8317 77.4311 60.9084 77.5405 60.9538C77.65 60.9991 77.7704 61.0109 77.8865 60.9878C78.0027 60.9647 78.1094 60.9077 78.1931 60.824C78.2769 60.7402 78.3339 60.6335 78.357 60.5174C78.3801 60.4012 78.3682 60.2808 78.3229 60.1714C78.2776 60.062 78.2008 59.9685 78.1024 59.9027C78.0039 59.8369 77.8881 59.8018 77.7697 59.8018C77.6911 59.8018 77.6132 59.8172 77.5405 59.8473C77.4679 59.8774 77.4019 59.9215 77.3463 59.9771C77.2907 60.0327 77.2466 60.0988 77.2165 60.1714C77.1864 60.2441 77.1709 60.3219 77.1709 60.4006Z" fill="#263238"/>
<path d="M78.4979 59.1512L77.3262 58.4563C77.3262 58.4563 77.7771 57.9906 78.2244 58.2715C78.3536 58.3733 78.4489 58.5118 78.4977 58.6689C78.5466 58.8259 78.5466 58.9941 78.4979 59.1512Z" fill="#263238"/>
<path d="M75.6696 64.4184C74.9879 64.4668 74.3096 64.2846 73.7439 63.9009C73.7439 63.9009 73.6108 64.9174 74.461 65.1096C75.3111 65.3018 75.6696 64.4184 75.6696 64.4184Z" fill="#F28F8F"/>
<path d="M68.8469 62.5628C68.867 62.0645 68.7748 61.5681 68.5771 61.1102C68.4812 60.8259 68.304 60.576 68.0675 60.3914C67.831 60.2068 67.5455 60.0956 67.2464 60.0715C65.7088 60.0272 65.5018 61.5057 65.524 62.0343C65.5794 63.4167 66.6957 64.9099 68.7804 64.9654L68.8469 62.5628Z" fill="#FFA8A7"/>
<path d="M73.8291 68.9575L75.4407 71.0533C75.6225 71.2889 75.7505 71.5615 75.8156 71.8519C75.8808 72.1423 75.8815 72.4434 75.8177 72.7341C75.7539 73.0248 75.6272 73.298 75.4465 73.5345C75.2658 73.7709 75.0354 73.9649 74.7716 74.1027C74.0561 74.477 73.2328 74.5909 72.4425 74.4251C71.6523 74.2592 70.9442 73.8238 70.4396 73.1934L68.3623 70.6061L73.8291 68.9575Z" fill="#FFA8A7"/>
<path d="M73.8583 94.166L78.4306 96.6536C79.1306 96.5992 79.8337 96.5992 80.5337 96.6536C81.3395 96.7497 83.4907 97.1415 84.0415 97.1674C84.5922 97.1933 84.0637 98.2282 82.611 98.1358C82.611 98.1358 85.8896 99.6365 86.0042 100.538C86.1188 101.44 83.3762 103.495 81.0845 102.338C80.4862 101.988 79.8417 101.723 79.1698 101.551C78.5451 101.459 76.7007 101.089 75.407 99.7511L71.574 98.5276C71.574 98.5276 69.8663 94.5615 73.8583 94.166Z" fill="#FFA8A7"/>
<path d="M64.8769 72.0771C64.8769 72.0771 67.6528 73.9955 67.1908 79.8911C66.9129 83.4674 66.9129 87.0598 67.1908 90.6361L73.8588 94.166C73.1404 94.6407 72.5541 95.2897 72.1547 96.0525C71.7552 96.8152 71.5556 97.6668 71.5745 98.5276C71.5745 98.5276 61.9864 96.5538 61.4135 94.3213C60.8406 92.0887 60.6299 81.4065 60.6299 79.5362C60.6299 77.6659 61.4098 73.563 64.8769 72.0771Z" fill="#FFA8A7"/>
<path d="M60.6299 79.5547C60.6299 80.342 60.6705 82.7113 60.7556 85.3504C62.742 86.1585 64.9529 86.2241 66.9838 85.5353C66.9838 83.8904 67.0281 81.9536 67.1908 79.8911C67.6528 73.9955 64.8769 72.0771 64.8769 72.0771C61.4098 73.563 60.6299 77.6955 60.6299 79.5547Z" fill="#CC0000"/>
<path opacity="0.2" d="M60.6299 79.5547C60.6299 80.342 60.6705 82.7113 60.7556 85.3504C62.742 86.1585 64.9529 86.2241 66.9838 85.5353C66.9838 83.8904 67.0281 81.9536 67.1908 79.8911C67.6528 73.9955 64.8769 72.0771 64.8769 72.0771C61.4098 73.563 60.6299 77.6955 60.6299 79.5547Z" fill="black"/>
<path d="M67.1829 90.636C66.449 90.6185 65.7193 90.7519 65.0391 91.0278C65.6508 90.5471 66.3744 90.2292 67.1422 90.1038L67.1829 90.636Z" fill="#F28F8F"/>
<path d="M108.57 83.6946L106.504 97.3412C106.504 97.3412 106.504 97.3412 106.504 97.3633L85.8051 109.373C85.7997 109.375 85.7938 109.376 85.7878 109.376C85.7818 109.376 85.7761 109.374 85.7712 109.37C85.7663 109.367 85.7623 109.362 85.7598 109.357C85.7574 109.351 85.7564 109.345 85.757 109.339L87.7789 96.1066C87.8235 95.8249 87.9285 95.5561 88.0867 95.3188C88.2449 95.0814 88.4526 94.8811 88.6956 94.7316L107.646 83.0773C107.746 83.0169 107.861 82.9863 107.978 82.9889C108.094 82.9916 108.208 83.0274 108.305 83.0921C108.402 83.1569 108.478 83.248 108.525 83.3547C108.572 83.4614 108.588 83.5793 108.57 83.6946Z" fill="#FAFAFA"/>
<path d="M85.7605 109.372L74.716 102.967C74.4615 102.818 74.2501 102.606 74.103 102.35C73.9558 102.095 73.8779 101.805 73.877 101.51L85.8713 108.434L85.7605 109.372Z" fill="#E0E0E0"/>
<path d="M96.583 96.8459C96.583 97.818 97.2705 98.2135 98.1133 97.7256C98.5577 97.4354 98.9276 97.0446 99.1928 96.5848C99.458 96.1249 99.6112 95.6091 99.6398 95.0791C99.6398 94.1032 98.956 93.7114 98.1133 94.1956C97.6682 94.4864 97.2978 94.8778 97.032 95.3382C96.7662 95.7986 96.6124 96.3151 96.583 96.8459Z" fill="#E0E0E0"/>
<path opacity="0.2" d="M76.1951 82.9885C76.1951 82.9885 72.0146 84.1269 69.7969 80.9851C69.7969 80.9851 71.231 85.0399 76.1951 82.9885Z" fill="black"/>
<path d="M64.5995 54.9042C64.5995 54.9042 63.583 52.3168 62.9731 52.631C62.3632 52.9451 63.6015 54.5863 63.6015 54.5863C63.6015 54.5863 61.5242 53.7731 61.3505 54.2536C61.1767 54.7341 64.0044 55.8171 64.0044 55.8171L64.5995 54.9042Z" fill="#263238"/>
<path d="M73.1494 109.879L71.2532 108.77L52.8643 98.2578C52.7096 98.1695 52.5799 98.043 52.4878 97.8905C52.3956 97.738 52.3439 97.5645 52.3376 97.3864C52.3313 97.2083 52.3706 97.0315 52.4518 96.8729C52.533 96.7143 52.6534 96.579 52.8015 96.4799L53.988 95.6815L52.5095 85.5168C52.4095 84.8326 52.1586 84.1792 51.7751 83.6038C51.3915 83.0285 50.8848 82.5456 50.2917 82.1901L47.5823 80.5675C47.4519 80.4886 47.3028 80.446 47.1503 80.4439C46.9979 80.4419 46.8477 80.4805 46.7152 80.5558C46.5826 80.6311 46.4725 80.7404 46.3963 80.8724C46.32 81.0044 46.2803 81.1543 46.2813 81.3067V118.358C46.2828 118.998 46.4548 119.625 46.7797 120.176C47.1045 120.727 47.5705 121.182 48.1294 121.493L73.7113 135.779C73.9174 135.896 74.1499 135.959 74.3871 135.963C74.6244 135.966 74.8585 135.909 75.0678 135.797L75.1676 135.742C75.3715 135.612 75.539 135.433 75.6542 135.221C75.7694 135.009 75.8283 134.771 75.8255 134.529V114.529C75.8259 113.587 75.5788 112.662 75.1092 111.846C74.6395 111.03 73.9637 110.352 73.1494 109.879Z" fill="#263238"/>
<path d="M58.4936 94.824C57.9765 94.5216 57.3846 94.3709 56.7859 94.3892C56.1871 94.4075 55.6055 94.594 55.1078 94.9275L53.9694 95.6889L52.7829 96.4873C52.6348 96.5864 52.5144 96.7216 52.4332 96.8803C52.352 97.0389 52.3127 97.2157 52.319 97.3938C52.3253 97.5719 52.377 97.7454 52.4692 97.8979C52.5614 98.0504 52.691 98.1768 52.8457 98.2652L71.2347 108.777L73.0828 109.827L73.1715 109.886C74.0018 110.379 74.6863 111.084 75.1552 111.928C75.624 112.772 75.8604 113.726 75.8402 114.691V134.529C75.8415 134.772 75.7802 135.011 75.6624 135.223C75.5446 135.436 75.3742 135.614 75.1675 135.742L79.7139 133.18C80.244 132.881 80.685 132.445 80.9916 131.919C81.2981 131.393 81.4593 130.795 81.4585 130.186V110.966C81.4604 110.122 81.2404 109.294 80.8206 108.562C80.4009 107.831 79.7961 107.223 79.067 106.8L58.4936 94.824Z" fill="#455A64"/>
<path d="M79.0523 106.807L58.4936 94.824C57.9765 94.5216 57.3846 94.3709 56.7859 94.3892C56.1871 94.4075 55.6055 94.594 55.1078 94.9275L53.9694 95.6889L52.7829 96.4873C52.6348 96.5864 52.5144 96.7216 52.4332 96.8803C52.352 97.0389 52.3127 97.2157 52.319 97.3938C52.3253 97.5719 52.377 97.7454 52.4692 97.8979C52.5614 98.0504 52.691 98.1768 52.8457 98.2652L71.2347 108.777L73.0828 109.827L73.1715 109.886C74.072 110.395 74.7936 111.17 75.2377 112.104L80.7821 108.548C80.3659 107.828 79.7698 107.228 79.0523 106.807Z" fill="#37474F"/>
<path d="M64.8475 119.271V143.348L47.2939 133.213V109.136L64.8475 119.271Z" fill="#CC0000"/>
<path opacity="0.4" d="M64.8475 119.271V143.348L47.2939 133.213V109.136L64.8475 119.271Z" fill="black"/>
<path d="M66.2338 118.498V142.579L64.8477 143.348V119.271L66.2338 118.498Z" fill="#CC0000"/>
<path d="M48.6798 128.633V152.711L31.1299 142.579V118.498L48.6798 128.633Z" fill="#CC0000"/>
<path opacity="0.4" d="M48.6798 128.633V152.711L31.1299 142.579V118.498L48.6798 128.633Z" fill="black"/>
<path d="M50.0695 127.865V151.942L48.6797 152.711V128.634L50.0695 127.865Z" fill="#CC0000"/>
<path d="M48.6797 130.552L66.2333 120.42V118.498L48.6797 128.633V130.552Z" fill="#CC0000"/>
<path d="M48.6797 152.711L66.2333 142.579V128.748L48.6797 138.883V152.711Z" fill="#CC0000"/>
<path d="M48.6798 128.634L66.2333 118.498L48.6798 108.367L31.1299 118.498L48.6798 128.634Z" fill="#CC0000"/>
<path opacity="0.2" d="M48.6798 128.634L66.2333 118.498L48.6798 108.367L31.1299 118.498L48.6798 128.634Z" fill="black"/>
<path d="M50.0693 138.44L64.847 129.909V121.215L50.0693 129.746V138.44Z" fill="#CC0000"/>
<path opacity="0.6" d="M50.0693 138.44L64.847 129.909V121.215L50.0693 129.746V138.44Z" fill="white"/>
<path d="M57.3066 129.107C57.3066 129.319 57.3697 129.527 57.4879 129.704C57.6061 129.881 57.7741 130.019 57.9706 130.1C58.1672 130.182 58.3835 130.203 58.5921 130.162C58.8007 130.12 58.9924 130.018 59.1428 129.867C59.2933 129.717 59.3957 129.525 59.4372 129.316C59.4787 129.108 59.4574 128.892 59.376 128.695C59.2946 128.498 59.1567 128.33 58.9798 128.212C58.803 128.094 58.595 128.031 58.3823 128.031C58.097 128.031 57.8234 128.144 57.6217 128.346C57.42 128.548 57.3066 128.821 57.3066 129.107Z" fill="white"/>
<path d="M50.0693 149.259L64.847 140.728V132.034L50.0693 140.565V149.259Z" fill="#CC0000"/>
<path opacity="0.6" d="M50.0693 149.259L64.847 140.728V132.034L50.0693 140.565V149.259Z" fill="white"/>
<path d="M57.3066 139.926C57.3066 140.138 57.3697 140.346 57.4879 140.523C57.6061 140.7 57.7741 140.838 57.9706 140.919C58.1672 141.001 58.3835 141.022 58.5921 140.981C58.8007 140.939 58.9924 140.837 59.1428 140.686C59.2933 140.536 59.3957 140.344 59.4372 140.136C59.4787 139.927 59.4574 139.711 59.376 139.514C59.2946 139.318 59.1567 139.15 58.9798 139.031C58.803 138.913 58.595 138.85 58.3823 138.85C58.097 138.85 57.8234 138.963 57.6217 139.165C57.42 139.367 57.3066 139.64 57.3066 139.926Z" fill="white"/>
<path d="M44.0821 116.861C44.333 116.425 44.702 116.069 45.1466 115.834C46.8136 114.873 49.5156 114.873 51.1826 115.834C51.6272 116.069 51.9962 116.425 52.2471 116.861H52.4319V117.578C52.4319 118.21 52.018 118.839 51.1826 119.319C49.5156 120.284 46.8136 120.284 45.1466 119.319C44.3112 118.839 43.8936 118.21 43.8936 117.578V116.861H44.0821Z" fill="#263238"/>
<path d="M45.1467 118.602C46.8138 119.567 49.5157 119.567 51.1828 118.602C52.8498 117.637 52.8498 116.081 51.1828 115.116C49.5157 114.152 46.8138 114.155 45.1467 115.116C43.4797 116.077 43.4797 117.641 45.1467 118.602Z" fill="#37474F"/>
<path d="M48.2553 116.861H48.0741C47.8526 116.861 47.6401 116.773 47.4835 116.616C47.3268 116.46 47.2388 116.247 47.2388 116.026V96.4355H49.0869V116.026C49.0869 116.247 48.9989 116.46 48.8422 116.616C48.6856 116.773 48.4731 116.861 48.2516 116.861H48.2553Z" fill="#263238"/>
<path d="M39.8903 104.176C39.9162 104.076 39.9494 103.972 39.9864 103.873L42.6034 95.5486H53.7254L56.3424 103.873C56.3794 103.972 56.4126 104.076 56.4385 104.176C56.8081 105.632 56.0134 107.166 54.0766 108.286C50.8091 110.167 45.516 110.167 42.2485 108.286C40.3154 107.166 39.5281 105.625 39.8903 104.176Z" fill="#CC0000"/>
<path opacity="0.4" d="M39.8903 104.176C39.9162 104.076 39.9494 103.972 39.9864 103.873L42.6034 95.5486H53.7254L56.3424 103.873C56.3794 103.972 56.4126 104.076 56.4385 104.176C56.8081 105.632 56.0134 107.166 54.0766 108.286C50.8091 110.167 45.516 110.167 42.2485 108.286C40.3154 107.166 39.5281 105.625 39.8903 104.176Z" fill="white"/>
<path d="M48.1623 99.2557C51.2652 99.2557 53.7806 97.8044 53.7806 96.0141C53.7806 94.2238 51.2652 92.7725 48.1623 92.7725C45.0594 92.7725 42.5439 94.2238 42.5439 96.0141C42.5439 97.8044 45.0594 99.2557 48.1623 99.2557Z" fill="#CC0000"/>
<path d="M48.1624 92.7689V93.4268C49.4309 93.3977 50.6856 93.6942 51.8069 94.288C52.6533 94.7759 53.1228 95.3969 53.1228 96.0105C53.1228 96.6241 52.6533 97.2414 51.8069 97.733C50.6762 98.2995 49.4289 98.5945 48.1642 98.5945C46.8995 98.5945 45.6523 98.2995 44.5216 97.733C43.6751 97.2414 43.2057 96.6241 43.2057 96.0105C43.2057 95.3969 43.6751 94.7759 44.5216 94.288C45.6416 93.6945 46.8951 93.398 48.1624 93.4268V92.7652M48.1624 92.7652C46.7799 92.7392 45.4136 93.0661 44.1926 93.7151C41.997 94.9829 41.997 97.0418 44.1926 98.3022C45.4234 98.9266 46.7841 99.252 48.1642 99.252C49.5444 99.252 50.9051 98.9266 52.1359 98.3022C54.3314 97.0381 54.3314 94.9756 52.1359 93.7151C50.9138 93.0655 49.5461 92.7385 48.1624 92.7652Z" fill="#CC0000"/>
<path opacity="0.2" d="M48.1624 92.7689V93.4268C49.4309 93.3977 50.6856 93.6942 51.8069 94.288C52.6533 94.7759 53.1228 95.3969 53.1228 96.0105C53.1228 96.6241 52.6533 97.2414 51.8069 97.733C50.6762 98.2995 49.4289 98.5945 48.1642 98.5945C46.8995 98.5945 45.6523 98.2995 44.5216 97.733C43.6751 97.2414 43.2057 96.6241 43.2057 96.0105C43.2057 95.3969 43.6751 94.7759 44.5216 94.288C45.6416 93.6945 46.8951 93.398 48.1624 93.4268V92.7652M48.1624 92.7652C46.7799 92.7392 45.4136 93.0661 44.1926 93.7151C41.997 94.9829 41.997 97.0418 44.1926 98.3022C45.4234 98.9266 46.7841 99.252 48.1642 99.252C49.5444 99.252 50.9051 98.9266 52.1359 98.3022C54.3314 97.0381 54.3314 94.9756 52.1359 93.7151C50.9138 93.0655 49.5461 92.7385 48.1624 92.7652Z" fill="white"/>
<path d="M156.522 41.7567L107.055 13.1956C106.49 12.8667 105.976 12.8925 105.617 13.1956L103.917 14.3747L105.07 15.8052V55.7249C105.07 57.1849 105.961 58.8815 107.055 59.5172L156.034 87.7826L156.127 89.335L157.931 88.1005C158.137 87.9057 158.297 87.6663 158.398 87.4005C158.498 87.1347 158.537 86.8495 158.511 86.5665V45.538C158.507 44.0853 157.62 42.3887 156.522 41.7567Z" fill="#CC0000"/>
<path opacity="0.3" d="M156.522 41.7567L107.055 13.1956C106.49 12.8667 105.976 12.8925 105.617 13.1956L103.917 14.3747L105.07 15.8052V55.7249C105.07 57.1849 105.961 58.8815 107.055 59.5172L156.034 87.7826L156.127 89.335L157.931 88.1005C158.137 87.9057 158.297 87.6663 158.398 87.4005C158.498 87.1347 158.537 86.8495 158.511 86.5665V45.538C158.507 44.0853 157.62 42.3887 156.522 41.7567Z" fill="black"/>
<path d="M154.84 89.224L105.37 60.6629C104.261 60.0309 103.385 58.3343 103.385 56.8705V15.842C103.385 14.382 104.276 13.7092 105.37 14.3635L154.84 42.9208C155.949 43.5566 156.822 45.2532 156.822 46.7132V87.7418C156.822 89.187 155.935 89.856 154.84 89.224Z" fill="#CC0000"/>
<path d="M145.6 83.8904L149.049 85.8827L124.513 25.4081L120.646 23.1755L145.6 83.8904Z" fill="#CC0000"/>
<path opacity="0.2" d="M145.6 83.8904L149.049 85.8827L124.513 25.4081L120.646 23.1755L145.6 83.8904Z" fill="white"/>
<path d="M153.366 88.3814L154.567 89.043L130.028 28.5684L128.416 27.6665L153.366 88.3814Z" fill="#CC0000"/>
<path opacity="0.2" d="M153.366 88.3814L154.567 89.043L130.028 28.5684L128.416 27.6665L153.366 88.3814Z" fill="white"/>
<path d="M110.104 22.8501C110.104 23.6892 109.513 24.0293 108.785 23.6116C108.404 23.3629 108.088 23.0289 107.859 22.6362C107.631 22.2435 107.497 21.8029 107.469 21.3495C107.469 20.5067 108.06 20.1667 108.785 20.588C109.166 20.8357 109.484 21.1693 109.713 21.5622C109.943 21.9551 110.076 22.3962 110.104 22.8501Z" fill="#455A64"/>
<path d="M118.192 27.5076C118.134 27.5073 118.076 27.492 118.026 27.4632L111.712 23.815C111.675 23.7932 111.641 23.7641 111.615 23.7294C111.588 23.6947 111.569 23.6552 111.557 23.6129C111.546 23.5707 111.543 23.5267 111.549 23.4834C111.554 23.44 111.569 23.3982 111.59 23.3604C111.612 23.3225 111.641 23.2893 111.676 23.2627C111.711 23.2361 111.75 23.2165 111.792 23.2052C111.835 23.1939 111.879 23.191 111.922 23.1967C111.965 23.2024 112.007 23.2165 112.045 23.2384L118.358 26.894C118.396 26.9158 118.429 26.9449 118.456 26.9796C118.483 27.0142 118.502 27.0538 118.514 27.096C118.525 27.1383 118.528 27.1823 118.522 27.2256C118.516 27.269 118.502 27.3108 118.48 27.3486C118.45 27.3981 118.408 27.4389 118.357 27.4668C118.307 27.4947 118.25 27.5087 118.192 27.5076Z" fill="#455A64"/>
<path d="M152.707 79.9428C152.624 79.9438 152.542 79.9221 152.471 79.8799L107.243 53.7584C107.189 53.7271 107.141 53.6854 107.103 53.6357C107.065 53.5859 107.037 53.5292 107.02 53.4686C107.004 53.408 107 53.3448 107.008 53.2826C107.016 53.2204 107.036 53.1604 107.068 53.106C107.099 53.0516 107.141 53.004 107.19 52.9657C107.24 52.9275 107.297 52.8994 107.357 52.8831C107.418 52.8668 107.481 52.8626 107.543 52.8707C107.606 52.8788 107.666 52.8991 107.72 52.9304L152.955 79.052C153.047 79.1043 153.118 79.1855 153.159 79.2829C153.199 79.3802 153.206 79.4883 153.179 79.5901C153.151 79.6919 153.091 79.7818 153.007 79.8456C152.923 79.9094 152.82 79.9436 152.715 79.9428H152.707Z" fill="#455A64"/>
<path d="M152.707 46.1146C152.664 46.1144 152.622 46.103 152.585 46.0813L151.369 45.3753C151.341 45.3589 151.316 45.3371 151.297 45.3111C151.277 45.2851 151.262 45.2554 151.254 45.2238C151.246 45.1922 151.244 45.1592 151.248 45.1269C151.253 45.0945 151.264 45.0634 151.281 45.0353C151.296 45.0064 151.318 44.9809 151.344 44.9605C151.369 44.9401 151.399 44.9251 151.431 44.9165C151.463 44.9079 151.496 44.9057 151.528 44.9103C151.561 44.9148 151.592 44.9259 151.621 44.9429L152.829 45.6415C152.883 45.6652 152.926 45.7072 152.952 45.76C152.977 45.8128 152.983 45.8729 152.969 45.9297C152.954 45.9865 152.92 46.0363 152.872 46.0701C152.824 46.104 152.766 46.1197 152.707 46.1146Z" fill="#455A64"/>
<path d="M152.707 47.0017C152.665 47.0016 152.623 46.9901 152.586 46.9685L151.373 46.2699C151.345 46.2535 151.32 46.2316 151.3 46.2056C151.281 46.1796 151.266 46.1499 151.258 46.1183C151.25 46.0867 151.248 46.0538 151.252 46.0214C151.257 45.9891 151.268 45.9579 151.284 45.9298C151.3 45.9009 151.322 45.8755 151.347 45.8551C151.373 45.8346 151.403 45.8197 151.435 45.811C151.467 45.8024 151.5 45.8003 151.532 45.8048C151.565 45.8094 151.596 45.8204 151.624 45.8374L152.833 46.536C152.882 46.5624 152.921 46.6048 152.943 46.6561C152.966 46.7074 152.97 46.7648 152.955 46.8188C152.941 46.8727 152.908 46.9202 152.863 46.9534C152.818 46.9867 152.763 47.0037 152.707 47.0017Z" fill="#455A64"/>
<path d="M152.707 47.8924C152.665 47.8922 152.623 47.8807 152.586 47.8591L151.373 47.1605C151.345 47.1441 151.32 47.1222 151.3 47.0962C151.281 47.0702 151.266 47.0406 151.258 47.0089C151.25 46.9773 151.248 46.9444 151.252 46.9121C151.257 46.8797 151.268 46.8486 151.284 46.8205C151.3 46.7915 151.322 46.7661 151.347 46.7457C151.373 46.7253 151.403 46.7103 151.435 46.7017C151.467 46.693 151.5 46.6909 151.532 46.6954C151.565 46.7 151.596 46.7111 151.624 46.728L152.833 47.4266C152.882 47.4531 152.921 47.4954 152.943 47.5467C152.966 47.5981 152.97 47.6554 152.955 47.7094C152.941 47.7634 152.908 47.8108 152.863 47.8441C152.818 47.8773 152.763 47.8943 152.707 47.8924Z" fill="#455A64"/>
<path d="M125.4 43.494V50.3579C125.4 50.4229 125.414 50.4871 125.44 50.5464C125.467 50.6057 125.506 50.6587 125.554 50.7019C125.603 50.7452 125.66 50.7777 125.722 50.7974C125.783 50.8171 125.849 50.8235 125.913 50.8163L132.149 50.077C132.235 50.0667 132.317 50.0322 132.385 49.9775C132.452 49.9229 132.503 49.8503 132.531 49.7681C132.559 49.6858 132.564 49.5974 132.544 49.5127C132.524 49.4281 132.481 49.3508 132.419 49.2897L126.183 43.1576C126.118 43.0923 126.036 43.048 125.945 43.0304C125.855 43.0128 125.761 43.0229 125.677 43.0591C125.592 43.0954 125.521 43.1563 125.471 43.2338C125.422 43.3114 125.397 43.402 125.4 43.494Z" fill="#FAFAFA"/>
<path d="M126.715 63.9047L107.709 52.9304C107.655 52.8991 107.595 52.8788 107.533 52.8707C107.471 52.8626 107.407 52.8668 107.347 52.8831C107.286 52.8994 107.229 52.9275 107.18 52.9657C107.13 53.004 107.088 53.0516 107.057 53.106C107.026 53.1604 107.005 53.2204 106.997 53.2826C106.989 53.3448 106.993 53.408 107.01 53.4686C107.026 53.5292 107.054 53.5859 107.092 53.6357C107.13 53.6854 107.178 53.7271 107.232 53.7584L126.715 65.0098V63.9047Z" fill="#EBEBEB"/>
<path d="M128.031 65.1059C128.031 65.9449 127.443 66.285 126.715 65.8673C126.332 65.6168 126.013 65.2795 125.784 64.8826C125.555 64.4857 125.424 64.0404 125.399 63.583C125.399 62.744 125.987 62.4039 126.715 62.8438C127.096 63.0916 127.414 63.4254 127.642 63.8183C127.871 64.2112 128.004 64.6522 128.031 65.1059Z" fill="#FAFAFA"/>
<path d="M111.231 58.6818V60.4856C111.232 60.5026 111.236 60.5194 111.243 60.5348C111.25 60.5502 111.261 60.5639 111.274 60.5751C111.286 60.5862 111.302 60.5945 111.318 60.5995C111.334 60.6044 111.351 60.6059 111.368 60.6039L113.006 60.4154C113.028 60.4124 113.049 60.4031 113.067 60.3887C113.085 60.3742 113.098 60.3552 113.105 60.3337C113.112 60.3121 113.113 60.289 113.108 60.2669C113.103 60.2447 113.092 60.2245 113.076 60.2084L111.438 58.5931C111.421 58.5763 111.399 58.565 111.376 58.5606C111.352 58.5562 111.328 58.559 111.305 58.5685C111.283 58.5779 111.264 58.5938 111.251 58.6139C111.238 58.6341 111.231 58.6577 111.231 58.6818Z" fill="#FAFAFA"/>
<path d="M115.268 61.1471V62.9509C115.268 62.9676 115.272 62.984 115.279 62.9992C115.286 63.0143 115.296 63.0278 115.308 63.0389C115.321 63.05 115.336 63.0584 115.351 63.0636C115.367 63.0688 115.384 63.0707 115.401 63.0692L117.042 62.8807C117.064 62.8777 117.086 62.8684 117.103 62.854C117.121 62.8396 117.134 62.8205 117.141 62.799C117.148 62.7775 117.15 62.7543 117.144 62.7322C117.139 62.7101 117.128 62.6898 117.112 62.6737L115.475 61.0584C115.457 61.0416 115.435 61.0304 115.412 61.026C115.388 61.0216 115.364 61.0243 115.342 61.0338C115.319 61.0433 115.301 61.0591 115.287 61.0793C115.274 61.0994 115.267 61.1231 115.268 61.1471Z" fill="#FAFAFA"/>
<path d="M117.15 64.1006C117.131 64.1011 117.111 64.0978 117.094 64.0907C117.076 64.0837 117.059 64.0732 117.045 64.0597C117.032 64.0463 117.021 64.0302 117.013 64.0125C117.006 63.9948 117.002 63.9757 117.002 63.9565V61.9457C117.002 61.9065 117.018 61.8689 117.045 61.8412C117.073 61.8134 117.111 61.7979 117.15 61.7979C117.189 61.7979 117.227 61.8134 117.254 61.8412C117.282 61.8689 117.298 61.9065 117.298 61.9457V63.9565C117.298 63.9757 117.294 63.9948 117.286 64.0125C117.279 64.0302 117.268 64.0463 117.254 64.0597C117.24 64.0732 117.224 64.0837 117.206 64.0907C117.188 64.0978 117.169 64.1011 117.15 64.1006Z" fill="#FAFAFA"/>
<path d="M109.021 58.9184V57.1146C109.022 57.0972 109.018 57.0801 109.011 57.0642C109.004 57.0484 108.994 57.0342 108.981 57.0226C108.968 57.0111 108.952 57.0025 108.936 56.9973C108.919 56.9921 108.902 56.9905 108.885 56.9926L107.243 57.2033C107.221 57.2063 107.2 57.2156 107.182 57.23C107.165 57.2444 107.151 57.2635 107.144 57.285C107.137 57.3065 107.136 57.3296 107.141 57.3518C107.146 57.3739 107.157 57.3942 107.173 57.4103L108.811 59.0219C108.828 59.0416 108.852 59.055 108.878 59.0601C108.904 59.0651 108.931 59.0615 108.955 59.0498C108.979 59.0381 108.998 59.0189 109.01 58.9952C109.022 58.9715 109.026 58.9445 109.021 58.9184Z" fill="#FAFAFA"/>
<path d="M107.14 58.2678C107.101 58.2678 107.063 58.2522 107.035 58.2245C107.008 58.1968 106.992 58.1591 106.992 58.1199V56.0944C106.992 56.0552 107.008 56.0176 107.035 55.9898C107.063 55.9621 107.101 55.9465 107.14 55.9465C107.179 55.9465 107.217 55.9621 107.245 55.9898C107.272 56.0176 107.288 56.0552 107.288 56.0944V58.1052C107.29 58.1258 107.288 58.1466 107.281 58.1663C107.275 58.186 107.264 58.2041 107.25 58.2194C107.236 58.2347 107.219 58.247 107.2 58.2553C107.181 58.2636 107.161 58.2679 107.14 58.2678Z" fill="#FAFAFA"/>
<path d="M150.933 81.8132C150.889 81.8132 150.847 81.7956 150.815 81.7644C150.784 81.7333 150.767 81.6909 150.767 81.6468V80.9076C150.767 80.8785 150.776 80.8502 150.791 80.8253C150.806 80.8003 150.827 80.7797 150.852 80.7652C150.877 80.7508 150.906 80.743 150.935 80.7427C150.964 80.7424 150.992 80.7495 151.018 80.7634L151.635 81.1331C151.673 81.1548 151.701 81.1906 151.713 81.2329C151.725 81.2751 151.719 81.3202 151.698 81.3585C151.676 81.3968 151.639 81.4249 151.596 81.4366C151.553 81.4484 151.508 81.4429 151.469 81.4214L151.099 81.207V81.6505C151.098 81.694 151.08 81.7354 151.049 81.7658C151.018 81.7962 150.976 81.8132 150.933 81.8132Z" fill="#FAFAFA"/>
<path d="M151.554 83.6686C151.524 83.6683 151.495 83.6607 151.469 83.6465L150.852 83.2768C150.826 83.2625 150.805 83.2416 150.79 83.2162C150.775 83.1909 150.767 83.1621 150.767 83.1327V82.4674C150.767 82.4232 150.784 82.3809 150.815 82.3497C150.847 82.3186 150.889 82.301 150.933 82.301C150.977 82.301 151.019 82.3186 151.051 82.3497C151.082 82.3809 151.099 82.4232 151.099 82.4674V83.0366L151.635 83.3471C151.673 83.3688 151.701 83.4047 151.713 83.4469C151.725 83.4891 151.719 83.5343 151.698 83.5725C151.686 83.6008 151.666 83.6249 151.64 83.642C151.615 83.659 151.585 83.6683 151.554 83.6686Z" fill="#FAFAFA"/>
<path d="M152.866 84.4264C152.836 84.4251 152.807 84.4162 152.781 84.4005L152.142 84.0309C152.104 84.0079 152.077 83.9711 152.066 83.9283C152.055 83.8855 152.061 83.8402 152.083 83.8018C152.105 83.7643 152.141 83.7371 152.183 83.7261C152.226 83.715 152.27 83.721 152.308 83.7426L152.7 83.9681V83.5985C152.7 83.5543 152.718 83.512 152.749 83.4808C152.78 83.4496 152.822 83.4321 152.866 83.4321C152.911 83.4321 152.953 83.4496 152.984 83.4808C153.015 83.512 153.033 83.5543 153.033 83.5985V84.249C153.032 84.2778 153.024 84.3061 153.009 84.3307C152.994 84.3554 152.973 84.3757 152.948 84.3895C152.924 84.4087 152.896 84.4214 152.866 84.4264Z" fill="#FAFAFA"/>
<path d="M152.866 82.922C152.822 82.922 152.78 82.9045 152.749 82.8733C152.717 82.8421 152.7 82.7998 152.7 82.7557V82.1273L152.33 81.9056C152.311 81.8946 152.295 81.8801 152.281 81.8628C152.268 81.8454 152.258 81.8256 152.253 81.8045C152.247 81.7834 152.246 81.7614 152.248 81.7397C152.251 81.7181 152.258 81.6972 152.269 81.6782C152.28 81.6593 152.295 81.6427 152.312 81.6294C152.329 81.6161 152.349 81.6063 152.37 81.6007C152.391 81.595 152.414 81.5935 152.435 81.5964C152.457 81.5992 152.478 81.6063 152.497 81.6172L152.962 81.8871C152.988 81.9011 153.01 81.922 153.025 81.9474C153.04 81.9728 153.048 82.0017 153.047 82.0312V82.7705C153.046 82.7924 153.039 82.8136 153.029 82.8331C153.019 82.8526 153.005 82.8699 152.988 82.884C152.972 82.8981 152.952 82.9087 152.931 82.9152C152.91 82.9217 152.888 82.9241 152.866 82.922Z" fill="#FAFAFA"/>
<path d="M148.59 81.9683C148.56 81.9685 148.531 81.9609 148.505 81.9462L146.157 80.5896C146.133 80.5743 146.113 80.553 146.099 80.5279C146.084 80.5027 146.077 80.4744 146.076 80.4455V78.2277C146.077 78.1988 146.084 78.1705 146.099 78.1453C146.113 78.1202 146.133 78.0989 146.157 78.0836C146.183 78.069 146.211 78.0613 146.241 78.0613C146.27 78.0613 146.299 78.069 146.324 78.0836L148.671 79.4401C148.697 79.4545 148.718 79.4754 148.733 79.5007C148.748 79.526 148.756 79.5548 148.756 79.5842V81.802C148.755 81.8458 148.737 81.8876 148.706 81.9186C148.675 81.9496 148.633 81.9674 148.59 81.9683ZM146.409 80.3494L148.423 81.5137V79.6656L146.424 78.4938L146.409 80.3494Z" fill="#FAFAFA"/>
<path d="M100.221 9.05575L85.7686 0.768719C85.6616 0.689493 85.5321 0.646729 85.399 0.646729C85.2659 0.646729 85.1363 0.689493 85.0293 0.768719L84.1533 1.38969L84.7484 2.12895V12.8112C84.754 13.1911 84.8489 13.5644 85.0255 13.9009C85.202 14.2374 85.4554 14.5276 85.7649 14.748L99.9659 22.8798L100.014 23.6782L100.934 23.0461C101.041 22.9464 101.123 22.8236 101.175 22.6872C101.227 22.5507 101.247 22.4042 101.234 22.2588V11C101.23 10.6191 101.136 10.2445 100.96 9.90667C100.784 9.56884 100.531 9.2773 100.221 9.05575Z" fill="#CC0000"/>
<path opacity="0.3" d="M100.221 9.05575L85.7686 0.768719C85.6616 0.689493 85.5321 0.646729 85.399 0.646729C85.2659 0.646729 85.1363 0.689493 85.0293 0.768719L84.1533 1.38969L84.7484 2.12895V12.8112C84.754 13.1911 84.8489 13.5644 85.0255 13.9009C85.202 14.2374 85.4554 14.5276 85.7649 14.748L99.9659 22.8798L100.014 23.6782L100.934 23.0461C101.041 22.9464 101.123 22.8236 101.175 22.6872C101.227 22.5507 101.247 22.4042 101.234 22.2588V11C101.23 10.6191 101.136 10.2445 100.96 9.90667C100.784 9.56884 100.531 9.2773 100.221 9.05575Z" fill="black"/>
<path d="M99.3556 23.608L84.9032 15.321C84.5936 15.1005 84.3403 14.8103 84.1637 14.4739C83.9872 14.1374 83.8923 13.7641 83.8867 13.3841V2.12898C83.8867 1.38972 84.3414 1.03858 84.9032 1.36385L99.3556 9.64718C99.6648 9.8688 99.9178 10.1598 100.094 10.4967C100.271 10.8337 100.366 11.2074 100.372 11.5877V22.8281C100.372 23.5895 99.9174 23.937 99.3556 23.608Z" fill="#CC0000"/>
<path d="M87.321 5.70698C87.321 6.13575 87.0216 6.30948 86.6483 6.07661C86.4516 5.94917 86.2881 5.7768 86.1711 5.57372C86.0541 5.37064 85.9871 5.14266 85.9756 4.90859C85.9756 4.47982 86.275 4.3061 86.6483 4.53896C86.845 4.6664 87.0085 4.83877 87.1255 5.04185C87.2425 5.24493 87.3095 5.47291 87.321 5.70698Z" fill="#455A64"/>
<path d="M91.4564 8.08728C91.4266 8.08746 91.3973 8.07982 91.3713 8.0651L88.1445 6.19479C88.1226 6.18515 88.103 6.17098 88.0869 6.15323C88.0708 6.13547 88.0587 6.11452 88.0513 6.09176C88.0439 6.06899 88.0414 6.04491 88.0439 6.02111C88.0465 5.9973 88.054 5.9743 88.0661 5.95361C88.0781 5.93292 88.0944 5.91501 88.1138 5.90105C88.1333 5.88709 88.1555 5.87739 88.1789 5.87259C88.2024 5.86779 88.2266 5.868 88.25 5.8732C88.2733 5.87841 88.2953 5.88849 88.3145 5.90279L91.5414 7.75092C91.58 7.77405 91.6081 7.81124 91.6198 7.85467C91.6315 7.8981 91.6259 7.94439 91.6042 7.98378C91.5911 8.01268 91.5704 8.03753 91.5444 8.05574C91.5184 8.07394 91.488 8.08483 91.4564 8.08728Z" fill="#455A64"/>
<path d="M90.2998 10.7301V14.2415C90.3001 14.2746 90.3074 14.3072 90.3211 14.3373C90.3348 14.3674 90.3546 14.3942 90.3793 14.4162C90.4041 14.4381 90.4331 14.4546 90.4646 14.4647C90.4961 14.4747 90.5294 14.478 90.5622 14.4744L93.7484 14.1047C93.7927 14.0998 93.8348 14.0824 93.8697 14.0546C93.9045 14.0268 93.9308 13.9896 93.9455 13.9475C93.9602 13.9054 93.9627 13.86 93.9526 13.8165C93.9426 13.773 93.9205 13.7333 93.8889 13.7019L90.7027 10.5637C90.6696 10.531 90.6276 10.5088 90.582 10.4998C90.5364 10.4908 90.4891 10.4955 90.4461 10.5133C90.4031 10.531 90.3663 10.561 90.3403 10.5996C90.3142 10.6382 90.3002 10.6835 90.2998 10.7301Z" fill="#FAFAFA"/>
<path d="M100.22 26.5427L85.7678 18.2557C85.6604 18.1776 85.531 18.1355 85.3982 18.1355C85.2654 18.1355 85.136 18.1776 85.0286 18.2557L84.1562 18.8619L84.7513 19.6012V30.2797C84.7569 30.6596 84.8518 31.0329 85.0284 31.3694C85.205 31.7059 85.4583 31.9961 85.7678 32.2165L99.9689 40.3483L100.017 41.143L100.937 40.5109C101.044 40.4112 101.126 40.2884 101.178 40.152C101.23 40.0155 101.25 39.869 101.237 39.7236V28.4796C101.231 28.0997 101.135 27.7266 100.959 27.3902C100.782 27.0539 100.529 26.7636 100.22 26.5427Z" fill="#CC0000"/>
<path opacity="0.3" d="M100.22 26.5427L85.7678 18.2557C85.6604 18.1776 85.531 18.1355 85.3982 18.1355C85.2654 18.1355 85.136 18.1776 85.0286 18.2557L84.1562 18.8619L84.7513 19.6012V30.2797C84.7569 30.6596 84.8518 31.0329 85.0284 31.3694C85.205 31.7059 85.4583 31.9961 85.7678 32.2165L99.9689 40.3483L100.017 41.143L100.937 40.5109C101.044 40.4112 101.126 40.2884 101.178 40.152C101.23 40.0155 101.25 39.869 101.237 39.7236V28.4796C101.231 28.0997 101.135 27.7266 100.959 27.3902C100.782 27.0539 100.529 26.7636 100.22 26.5427Z" fill="black"/>
<path d="M99.3556 41.0951L84.9032 32.8081C84.594 32.5864 84.341 32.2955 84.1645 31.9585C83.988 31.6215 83.8929 31.2479 83.8867 30.8675V19.6161C83.8867 18.8768 84.3414 18.5072 84.9032 18.851L99.3556 27.138C99.6651 27.3584 99.9185 27.6486 100.095 27.9851C100.272 28.3215 100.367 28.6949 100.372 29.0748V40.33C100.372 41.0766 99.9174 41.4204 99.3556 41.0951Z" fill="#CC0000"/>
<path d="M87.321 23.1978C87.321 23.6265 87.0216 23.8003 86.6483 23.5859C86.4516 23.4584 86.2881 23.2861 86.1711 23.083C86.0541 22.8799 85.9871 22.6519 85.9756 22.4179C85.9756 21.9891 86.275 21.8154 86.6483 22.0482C86.8426 22.1739 87.0046 22.3433 87.1214 22.543C87.2383 22.7426 87.3066 22.9669 87.321 23.1978Z" fill="#455A64"/>
<path d="M91.4564 25.5743C91.4266 25.5745 91.3973 25.5668 91.3713 25.5521L88.1445 23.6855C88.1226 23.6759 88.103 23.6617 88.0869 23.6439C88.0708 23.6262 88.0587 23.6052 88.0513 23.5825C88.0439 23.5597 88.0414 23.5356 88.0439 23.5118C88.0465 23.488 88.054 23.465 88.0661 23.4443C88.0781 23.4236 88.0944 23.4057 88.1138 23.3918C88.1333 23.3778 88.1555 23.3681 88.1789 23.3633C88.2024 23.3585 88.2266 23.3587 88.25 23.3639C88.2733 23.3691 88.2953 23.3792 88.3145 23.3935L91.5414 25.2416C91.58 25.2648 91.6081 25.302 91.6198 25.3454C91.6315 25.3888 91.6259 25.4351 91.6042 25.4745C91.5912 25.5032 91.5705 25.5277 91.5444 25.5454C91.5183 25.563 91.4878 25.573 91.4564 25.5743Z" fill="#455A64"/>
<path d="M93.4491 28.3726L90.396 28.9898L90.2851 31.6918C90.1639 31.6323 90.0266 31.614 89.894 31.6396C89.7614 31.6651 89.6407 31.7332 89.5503 31.8335C89.4599 31.9338 89.4047 32.0609 89.393 32.1954C89.3813 32.3299 89.4137 32.4646 89.4854 32.579C89.5571 32.6935 89.6642 32.7814 89.7903 32.8295C89.9165 32.8776 90.0549 32.8833 90.1846 32.8457C90.3143 32.8081 90.4282 32.7292 90.509 32.621C90.5899 32.5128 90.6332 32.3813 90.6326 32.2462L90.81 29.7734L93.0277 29.2486L93.0499 31.6179C92.9542 31.5755 92.8493 31.5581 92.745 31.5674C92.6407 31.5767 92.5405 31.6124 92.4538 31.6711C92.3671 31.7298 92.2967 31.8096 92.2494 31.903C92.202 31.9963 92.1792 32.1002 92.183 32.2049C92.1868 32.3095 92.2172 32.4114 92.2713 32.5011C92.3254 32.5907 92.4014 32.6652 92.4921 32.7173C92.5829 32.7695 92.6855 32.7978 92.7901 32.7994C92.8948 32.8011 92.9982 32.7761 93.0906 32.7268C93.1858 32.6757 93.2662 32.6009 93.3238 32.5096C93.3815 32.4182 93.4145 32.3135 93.4196 32.2056L93.4491 28.3726Z" fill="#FAFAFA"/>
</svg>
