<svg width="54" height="63" viewBox="0 0 54 63" fill="none" xmlns="http://www.w3.org/2000/svg">
<path fill-rule="evenodd" clip-rule="evenodd" d="M30.478 14.2567C35.6878 11.8359 40.0804 7.48686 45.7667 7.08954C51.9453 6.65782 58.4769 8.0898 62.9636 11.9868C67.4127 15.851 68.7084 22.0136 69.6175 27.8053C70.4477 33.0939 69.6921 38.4331 67.9291 43.6186C66.1921 48.7277 63.3699 53.326 59.5766 57.3389C55.4032 61.7538 50.9005 66.2021 45.0127 67.8614C38.7951 69.6138 32.0857 69.1001 26.2916 66.7197C20.4852 64.3344 15.8543 59.9156 12.7865 54.6224C9.82085 49.5056 8.94846 43.5057 9.37452 37.5315C9.78524 31.7725 11.1417 25.7445 15.1622 21.3102C18.9799 17.0998 25.2753 16.6741 30.478 14.2567Z" fill="#FCF0F0"/>
<mask id="mask0_455_287" style="mask-type:alpha" maskUnits="userSpaceOnUse" x="17" y="14" width="48" height="49">
<rect x="17" y="30.0005" width="36" height="36" transform="rotate(-24.8646 17 30.0005)" fill="#D9D9D9"/>
</mask>
<g mask="url(#mask0_455_287)">
<path d="M25.0976 32.8609C24.808 32.9951 24.5202 33.0098 24.2342 32.905C23.9482 32.8001 23.7381 32.6029 23.6039 32.3132C23.4697 32.0236 23.455 31.7358 23.5598 31.4498C23.6647 31.1638 23.8619 30.9537 24.1516 30.8195L25.9967 29.9644C26.2864 29.8301 26.5742 29.8155 26.8602 29.9203C27.1462 30.0252 27.3563 30.2224 27.4905 30.5121C27.6247 30.8017 27.6394 31.0895 27.5345 31.3755C27.4297 31.6614 27.2324 31.8715 26.9428 32.0058L25.0976 32.8609ZM34.8613 51.0682L35.5327 53.841C35.5671 53.984 35.6491 54.0865 35.7784 54.1484C35.9078 54.2103 36.038 54.211 36.1688 54.1503L44.913 50.098L43.506 47.062L34.8613 51.0682ZM29.3908 36.9725L30.0915 35.0612C30.1926 34.7854 30.3823 34.5831 30.6606 34.4541C30.9389 34.3252 31.2229 34.308 31.5126 34.4026C31.8176 34.5072 32.0333 34.7018 32.1599 34.9865C32.2866 35.2712 32.2956 35.5616 32.187 35.8578L31.4862 37.769C31.3851 38.0448 31.1954 38.2472 30.9171 38.3762C30.6389 38.5051 30.3549 38.5223 30.0651 38.4276C29.7602 38.3231 29.5444 38.1285 29.4178 37.8438C29.2912 37.5591 29.2822 37.2687 29.3908 36.9725ZM34.3288 48.8352L42.56 45.0206L41.1348 41.9453L33.8537 45.3196C33.7577 45.3641 33.6856 45.4373 33.6374 45.5391C33.5892 45.6409 33.5786 45.7439 33.6057 45.8479L34.3288 48.8352ZM37.7526 31.9718C36.0445 32.7634 34.3152 32.8383 32.5648 32.1966C30.8145 31.5548 29.5435 30.3798 28.7519 28.6717L30.7933 27.7256C31.3229 28.8685 32.1718 29.6541 33.34 30.0824C34.5082 30.5107 35.6637 30.46 36.8066 29.9304C37.9494 29.4008 38.735 28.5519 39.1633 27.3837C39.5916 26.2155 39.541 25.0599 39.0113 23.9171L41.0527 22.9711C41.8444 24.6792 41.9193 26.4085 41.2775 28.1588C40.6357 29.9092 39.4608 31.1802 37.7526 31.9718ZM38.8363 36.9857L37.9812 35.1405C37.847 34.8509 37.8323 34.5631 37.9372 34.2771C38.042 33.9912 38.2392 33.7811 38.5289 33.6468C38.8185 33.5126 39.1063 33.4979 39.3923 33.6028C39.6783 33.7076 39.8884 33.9049 40.0226 34.1945L40.8777 36.0397C41.0119 36.3293 41.0266 36.6171 40.9218 36.9031C40.8169 37.1891 40.6197 37.3992 40.33 37.5334C40.0404 37.6676 39.7526 37.6823 39.4666 37.5775C39.1807 37.4726 38.9706 37.2754 38.8363 36.9857ZM46.9544 49.152L55.6854 45.1057C55.8163 45.045 55.8999 44.9453 55.9363 44.8066C55.9727 44.6678 55.9475 44.5391 55.8606 44.4204L54.179 42.1157L45.5474 46.1159L46.9544 49.152ZM44.6013 44.0746L52.8195 40.266L51.0076 37.7833C50.9456 37.6954 50.8602 37.6369 50.7514 37.6079C50.6426 37.5788 50.5402 37.5866 50.4442 37.631L43.1761 40.9993L44.6013 44.0746ZM46.2299 30.9109L44.2995 30.2031C44.0237 30.102 43.82 29.9129 43.6884 29.6358C43.5568 29.3588 43.5453 29.0721 43.6539 28.7759C43.755 28.5002 43.9461 28.2972 44.227 28.167C44.5079 28.0369 44.7862 28.0223 45.062 28.1234L47.0204 28.8024C47.3188 28.8929 47.5325 29.0774 47.6615 29.3557C47.7904 29.634 47.7983 29.9276 47.685 30.2366C47.5717 30.5455 47.3781 30.7635 47.1042 30.8904C46.8303 31.0174 46.5388 31.0242 46.2299 30.9109ZM46.6112 22.8908L43.7453 24.2189L42.7992 22.1775L45.6651 20.8494C45.9548 20.7152 46.2426 20.7005 46.5286 20.8054C46.8145 20.9102 47.0246 21.1074 47.1589 21.3971C47.2931 21.6867 47.3078 21.9745 47.2029 22.2605C47.0981 22.5465 46.9008 22.7566 46.6112 22.8908ZM33.3075 54.3699L31.3805 46.3768C31.2279 45.7502 31.2929 45.1473 31.5755 44.568C31.8581 43.9888 32.2978 43.5609 32.8945 43.2843L49.5112 35.5836C50.108 35.3071 50.7187 35.2482 51.3433 35.407C51.968 35.5658 52.47 35.9059 52.8495 36.4274L57.7025 43.0645C58.2168 43.7672 58.3649 44.5315 58.1468 45.3575C57.9287 46.1834 57.428 46.7779 56.6445 47.141L37.1018 56.1978C36.3184 56.5608 35.5411 56.5586 34.7699 56.1911C33.9987 55.8236 33.5112 55.2166 33.3075 54.3699Z" fill="#CC0000"/>
</g>
</svg>
