<svg width="54" height="63" viewBox="0 0 54 63" fill="none" xmlns="http://www.w3.org/2000/svg">
<path fill-rule="evenodd" clip-rule="evenodd" d="M30.478 14.2567C35.6878 11.8359 40.0804 7.48686 45.7667 7.08954C51.9453 6.65782 58.4769 8.0898 62.9636 11.9868C67.4127 15.851 68.7084 22.0136 69.6175 27.8053C70.4477 33.0939 69.6921 38.4331 67.9291 43.6186C66.1921 48.7277 63.3699 53.326 59.5766 57.3389C55.4032 61.7538 50.9005 66.2021 45.0127 67.8614C38.7951 69.6138 32.0857 69.1001 26.2916 66.7197C20.4852 64.3344 15.8543 59.9156 12.7865 54.6224C9.82085 49.5056 8.94846 43.5057 9.37452 37.5315C9.78524 31.7725 11.1417 25.7445 15.1622 21.3102C18.9799 17.0998 25.2753 16.6741 30.478 14.2567Z" fill="#FCF0F0"/>
<mask id="mask0_455_194" style="mask-type:alpha" maskUnits="userSpaceOnUse" x="17" y="14" width="48" height="49">
<rect x="17" y="30.0005" width="36" height="36" transform="rotate(-24.8646 17 30.0005)" fill="#D9D9D9"/>
</mask>
<g mask="url(#mask0_455_194)">
<path d="M31.4381 55.8659L30.6061 54.0705C30.2956 53.4005 30.1855 52.7033 30.2758 51.979C30.3662 51.2546 30.6526 50.5899 31.1352 49.9847C32.0006 48.8884 33.0465 47.8294 34.2728 46.8075C35.4991 45.7856 36.8852 44.9164 38.4311 44.2C39.977 43.4836 41.5361 42.9878 43.1085 42.7127C44.6809 42.4376 46.165 42.3242 47.5608 42.3725C48.3345 42.3955 49.0269 42.6066 49.638 43.0059C50.249 43.4052 50.7098 43.9399 51.0203 44.6099L51.8524 46.4052C52.0149 46.756 52.0332 47.103 51.9073 47.4465C51.7814 47.7899 51.543 48.0429 51.1923 48.2054L33.2383 56.5259C32.8876 56.6884 32.5405 56.7067 32.1971 56.5808C31.8536 56.4549 31.6007 56.2166 31.4381 55.8659ZM33.1035 54.1085L49.435 46.54L48.9789 45.556C48.835 45.2454 48.6275 45.0183 48.3564 44.8747C48.0854 44.7312 47.7892 44.649 47.4681 44.6283C46.4367 44.5891 45.1938 44.6797 43.7392 44.9003C42.2846 45.1208 40.8305 45.5678 39.3771 46.2414C37.9237 46.915 36.6427 47.7354 35.5342 48.7027C34.4257 49.67 33.5531 50.5598 32.9163 51.3721C32.7245 51.6305 32.5958 51.9096 32.5301 52.2092C32.4644 52.5088 32.5035 52.8139 32.6475 53.1245L33.1035 54.1085ZM37.4122 42.0015C36.0809 42.6185 34.7406 42.6795 33.3911 42.1847C32.0416 41.69 31.0463 40.7508 30.405 39.3671L30.091 39.5127C29.913 39.5952 29.7423 39.6064 29.5789 39.5465C29.4155 39.4866 29.2925 39.3677 29.2101 39.1897C29.1276 39.0117 29.1163 38.841 29.1762 38.6776C29.2361 38.5142 29.3551 38.3912 29.533 38.3088L29.8471 38.1632C29.4684 37.3002 29.3075 36.4363 29.3646 35.5716C29.4217 34.7069 29.683 33.8667 30.1486 33.0511L30.7478 34.344C30.8302 34.522 30.9532 34.6409 31.1166 34.7009C31.28 34.7608 31.4507 34.7495 31.6287 34.667C31.8066 34.5845 31.9256 34.4616 31.9855 34.2982C32.0454 34.1348 32.0341 33.9641 31.9517 33.7861L31.1123 31.975C31.2762 31.8164 31.4639 31.6621 31.6752 31.5122C31.8866 31.3623 32.117 31.2296 32.3665 31.114C32.6161 30.9983 32.8663 30.9083 33.1173 30.8439C33.3683 30.7795 33.6073 30.7361 33.8342 30.7135L34.6736 32.5247C34.756 32.7026 34.879 32.8216 35.0424 32.8815C35.2059 32.9414 35.3766 32.9301 35.5545 32.8476C35.7325 32.7652 35.8514 32.6422 35.9113 32.4788C35.9713 32.3154 35.96 32.1447 35.8775 31.9667L35.2783 30.6738C36.2103 30.8417 37.0224 31.1844 37.7148 31.7019C38.4071 32.2193 38.9601 32.9014 39.3737 33.7483L39.6878 33.6027C39.8658 33.5203 40.0364 33.509 40.1999 33.5689C40.3633 33.6288 40.4862 33.7478 40.5687 33.9257C40.6512 34.1037 40.6625 34.2744 40.6025 34.4378C40.5426 34.6012 40.4237 34.7242 40.2457 34.8066L39.9316 34.9522C40.5729 36.3358 40.6461 37.7024 40.1513 39.0518C39.6565 40.4013 38.7435 41.3845 37.4122 42.0015ZM36.4661 39.9601C37.2321 39.6051 37.7558 39.044 38.0371 38.2767C38.3184 37.5094 38.2816 36.7427 37.9266 35.9768L32.4828 38.4996C32.8378 39.2656 33.3989 39.7892 34.1663 40.0706C34.9335 40.3519 35.7002 40.3151 36.4661 39.9601ZM48.5606 39.4325L48.2579 38.9782C48.0833 39.004 47.9002 39.0136 47.7085 39.0071C47.5169 39.0005 47.3316 38.9645 47.1529 38.8989L46.7866 39.2817C46.6663 39.3926 46.5317 39.4576 46.3827 39.4769C46.2337 39.4961 46.0854 39.4541 45.9379 39.3507L45.761 39.2229C45.62 39.1335 45.5316 39.0113 45.4957 38.8562C45.4599 38.7011 45.4765 38.5494 45.5454 38.4008L45.783 37.9187C45.7259 37.8413 45.6796 37.7642 45.644 37.6874L45.4214 37.2072C45.3879 37.1348 45.358 37.0474 45.3318 36.9451L44.8104 36.8148C44.6525 36.7714 44.526 36.6859 44.4308 36.5583C44.3357 36.4307 44.2996 36.2842 44.3225 36.1189L44.3393 35.9012C44.3558 35.7219 44.4196 35.5816 44.5306 35.4803C44.6415 35.3791 44.7782 35.3184 44.9406 35.2983L45.4694 35.2663C45.5274 35.1079 45.6178 34.9484 45.7404 34.7877C45.8631 34.627 45.9907 34.4884 46.1232 34.3719L45.9723 33.8473C45.9434 33.689 45.9587 33.5368 46.0181 33.3905C46.0775 33.2443 46.1779 33.1384 46.3192 33.0729L46.5129 32.9832C46.6542 32.9177 46.7998 32.9095 46.9498 32.9587C47.0998 33.0079 47.2258 33.0947 47.328 33.219L47.6307 33.6733C47.8053 33.6475 47.9935 33.6397 48.1954 33.65C48.3973 33.6603 48.5774 33.6945 48.7357 33.7526L49.102 33.3698C49.2223 33.2589 49.3569 33.1939 49.5059 33.1746C49.6549 33.1554 49.8031 33.1974 49.9506 33.3008L50.1275 33.4286C50.2686 33.518 50.357 33.6402 50.3928 33.7953C50.4287 33.9504 50.4121 34.1022 50.3432 34.2507L50.1056 34.7328C50.1667 34.8189 50.214 34.8982 50.2476 34.9706L50.4702 35.4508C50.5058 35.5276 50.5346 35.6128 50.5568 35.7064L51.0782 35.8367C51.2361 35.8802 51.3626 35.9656 51.4578 36.0932C51.5529 36.2208 51.589 36.3673 51.566 36.5326L51.5492 36.7503C51.5327 36.9296 51.469 37.0699 51.358 37.1711C51.247 37.2724 51.1104 37.333 50.948 37.3532L50.4192 37.3852C50.3536 37.564 50.2614 37.7286 50.1425 37.8791C50.0236 38.0296 49.8979 38.1631 49.7654 38.2796L49.9163 38.8042C49.9452 38.9625 49.9299 39.1147 49.8705 39.261C49.8111 39.4072 49.7107 39.5131 49.5694 39.5786L49.3757 39.6683C49.2344 39.7338 49.0887 39.742 48.9388 39.6928C48.7888 39.6436 48.6627 39.5568 48.5606 39.4325ZM48.4658 37.4512C48.7729 37.3088 48.9859 37.0755 49.1048 36.7513C49.2237 36.427 49.212 36.1113 49.0697 35.8042C48.9274 35.4971 48.6941 35.2841 48.3698 35.1652C48.0455 35.0463 47.7298 35.058 47.4227 35.2003C47.1156 35.3427 46.9026 35.576 46.7837 35.9002C46.6648 36.2245 46.6766 36.5402 46.8189 36.8473C46.9612 37.1544 47.1945 37.3674 47.5188 37.4863C47.8431 37.6052 48.1587 37.5935 48.4658 37.4512ZM48.4032 30.7368L48.0213 30.1666C47.7635 30.214 47.4915 30.2262 47.2052 30.2031C46.9189 30.1799 46.6574 30.1141 46.4206 30.0055L45.895 30.5384C45.7532 30.6762 45.5855 30.7523 45.3919 30.7668C45.1984 30.7813 45.0176 30.7331 44.8497 30.6223L44.6018 30.451C44.4339 30.3402 44.3239 30.1898 44.2719 29.9998C44.2199 29.8099 44.2428 29.617 44.3407 29.4211L44.6666 28.7455C44.5647 28.6444 44.4855 28.5444 44.429 28.4455C44.3726 28.3466 44.3161 28.236 44.2595 28.1139C44.2029 27.9918 44.1551 27.8772 44.1161 27.7702C44.0771 27.6632 44.052 27.5381 44.0408 27.395L43.3146 27.2069C43.1019 27.155 42.9399 27.0478 42.8286 26.8854C42.7172 26.7229 42.6736 26.5418 42.6976 26.342L42.7271 26.0422C42.7511 25.8424 42.8312 25.6734 42.9674 25.535C43.1035 25.3967 43.27 25.3179 43.4667 25.2988L44.2131 25.2423C44.2833 24.9914 44.4022 24.7493 44.5696 24.5159C44.737 24.2825 44.9221 24.0828 45.1249 23.9167L44.9367 23.2568C44.8885 23.0567 44.9066 22.8649 44.9912 22.6815C45.0758 22.4982 45.2097 22.3641 45.3929 22.2792L45.6284 22.17C45.8117 22.0851 46.0005 22.0697 46.1951 22.1236C46.3897 22.1776 46.5477 22.2877 46.6693 22.4539L47.0511 23.0241C47.309 22.9767 47.581 22.9645 47.8673 22.9876C48.1535 23.0108 48.4151 23.0766 48.6519 23.1852L49.1775 22.6523C49.3192 22.5145 49.4869 22.4384 49.6805 22.4239C49.8741 22.4095 50.0549 22.4576 50.2228 22.5684L50.4707 22.7397C50.6386 22.8505 50.7485 23.0009 50.8006 23.1909C50.8526 23.3808 50.8296 23.5737 50.7317 23.7696L50.4058 24.4452C50.5078 24.5463 50.587 24.6463 50.6434 24.7453C50.6999 24.8441 50.7564 24.9547 50.813 25.0768C50.8696 25.1989 50.9174 25.3135 50.9563 25.4205C50.9953 25.5275 51.0204 25.6526 51.0317 25.7957L51.7579 25.9838C51.9706 26.0357 52.1326 26.1429 52.2439 26.3053C52.3552 26.4678 52.3989 26.6489 52.3749 26.8487L52.3454 27.1485C52.3214 27.3483 52.2413 27.5173 52.1051 27.6557C51.9689 27.7941 51.8025 27.8728 51.6057 27.8919L50.8594 27.9485C50.7891 28.1993 50.6703 28.4414 50.5029 28.6748C50.3355 28.9082 50.1504 29.1079 49.9476 29.274L50.1358 29.9339C50.184 30.1341 50.1658 30.3258 50.0813 30.5092C49.9967 30.6925 49.8628 30.8266 49.6795 30.9115L49.444 31.0207C49.2608 31.1056 49.0719 31.1211 48.8774 31.0671C48.6828 31.0131 48.5247 30.903 48.4032 30.7368ZM48.361 28.3751C48.8635 28.1422 49.2065 27.7755 49.39 27.275C49.5735 26.7746 49.5488 26.2731 49.3159 25.7706C49.0831 25.2681 48.7164 24.9251 48.2159 24.7416C47.7155 24.5581 47.214 24.5827 46.7115 24.8156C46.2089 25.0485 45.8659 25.4152 45.6824 25.9157C45.4989 26.4161 45.5236 26.9176 45.7565 27.4201C45.9894 27.9226 46.3561 28.2656 46.8565 28.4491C47.357 28.6326 47.8585 28.608 48.361 28.3751Z" fill="#CC0000"/>
</g>
</svg>
