<svg width="11" height="7" viewBox="0 0 11 7" fill="none" xmlns="http://www.w3.org/2000/svg">
<path d="M5.49991 6.3731C5.39221 6.3731 5.29285 6.35547 5.20183 6.32022C5.1108 6.28496 5.0217 6.22374 4.93453 6.13657L0.546055 1.7481C0.452472 1.65451 0.402472 1.53977 0.396055 1.40387C0.389639 1.26797 0.439639 1.14681 0.546055 1.0404C0.652472 0.933998 0.770422 0.880798 0.899905 0.880798C1.02939 0.880798 1.14734 0.933998 1.25375 1.0404L5.49991 5.28655L9.74605 1.0404C9.83964 0.946814 9.95438 0.896814 10.0903 0.890398C10.2262 0.883998 10.3473 0.933998 10.4538 1.0404C10.5602 1.14681 10.6134 1.26476 10.6134 1.39425C10.6134 1.52375 10.5602 1.6417 10.4538 1.7481L6.06528 6.13657C5.97811 6.22374 5.88901 6.28496 5.79798 6.32022C5.70696 6.35547 5.6076 6.3731 5.49991 6.3731Z" fill="#312F33"/>
</svg>
