<svg width="36" height="36" viewBox="0 0 36 36" fill="none" xmlns="http://www.w3.org/2000/svg">
<g clip-path="url(#clip0_869_850)">
<path d="M18 36C27.9411 36 36 27.9411 36 18C36 8.05887 27.9411 0 18 0C8.05887 0 0 8.05887 0 18C0 27.9411 8.05887 36 18 36Z" fill="#CC0000"/>
<path d="M23.8528 5.52502H19.8654C17.4991 5.52502 14.8671 6.52025 14.8671 9.95027C14.8787 11.1454 14.8671 12.29 14.8671 13.5782H12.1296V17.9343H14.9518V30.4749H20.1377V17.8516H23.5606L23.8703 13.566H20.0484C20.0484 13.566 20.0569 11.6596 20.0484 11.1059C20.0484 9.75047 21.4588 9.82809 21.5436 9.82809C22.2148 9.82809 23.5198 9.83005 23.8548 9.82809V5.52502H23.8528Z" fill="white"/>
</g>
<defs>
<clipPath id="clip0_869_850">
<rect width="36" height="36" fill="white"/>
</clipPath>
</defs>
</svg>
