<svg width="53" height="63" viewBox="0 0 53 63" fill="none" xmlns="http://www.w3.org/2000/svg">
<path fill-rule="evenodd" clip-rule="evenodd" d="M30.478 14.2567C35.6878 11.8359 40.0804 7.48686 45.7667 7.08954C51.9453 6.65782 58.4769 8.0898 62.9636 11.9868C67.4127 15.851 68.7084 22.0136 69.6175 27.8053C70.4477 33.0939 69.6921 38.4331 67.9291 43.6186C66.1921 48.7277 63.3699 53.326 59.5766 57.3389C55.4032 61.7538 50.9005 66.2021 45.0127 67.8614C38.7951 69.6138 32.0857 69.1001 26.2916 66.7197C20.4852 64.3344 15.8543 59.9156 12.7865 54.6224C9.82085 49.5056 8.94846 43.5057 9.37452 37.5315C9.78524 31.7725 11.1417 25.7445 15.1622 21.3102C18.9799 17.0998 25.2753 16.6741 30.478 14.2567Z" fill="#FCF0F0"/>
<mask id="mask0_294_1370" style="mask-type:alpha" maskUnits="userSpaceOnUse" x="17" y="14" width="48" height="49">
<rect x="17" y="30" width="36" height="36" transform="rotate(-24.8646 17 30)" fill="#D9D9D9"/>
</mask>
<g mask="url(#mask0_294_1370)">
<path d="M33.5572 45.7431L35.9703 44.6248L35.9279 44.5331C35.7663 44.1846 35.7488 43.8378 35.8753 43.4928C36.0018 43.1478 36.2394 42.8945 36.5879 42.733L46.7165 38.0391C47.065 37.8775 47.4118 37.86 47.7568 37.9865C48.1019 38.113 48.3551 38.3505 48.5166 38.6991L48.5591 38.7907L50.9591 37.6784C51.1964 37.5685 51.356 37.3938 51.438 37.1545C51.52 36.9151 51.5027 36.6698 51.3863 36.4186C51.3095 36.2528 51.1981 36.1211 51.0521 36.0234C50.9062 35.9257 50.7337 35.8795 50.5348 35.8848L39.6436 36.0519L32.4891 44.2478C32.3565 44.3961 32.2781 44.5586 32.2539 44.7351C32.2297 44.9116 32.2561 45.0828 32.3329 45.2485C32.4493 45.4998 32.6228 45.6727 32.8532 45.7673C33.0836 45.8619 33.3183 45.8538 33.5572 45.7431ZM41.6929 51.622L50.1989 47.68L46.8512 40.4564L38.3452 44.3984L41.6929 51.622ZM39.3854 28.1405C39.1771 28.377 38.9192 28.5008 38.6117 28.5119C38.3042 28.523 38.0322 28.4243 37.7958 28.2159C37.5242 27.9781 37.2181 27.8223 36.8775 27.7488C36.5369 27.6752 36.1939 27.7184 35.8487 27.8784C35.3971 28.0876 35.0869 28.4203 34.9178 28.8765C34.7487 29.3327 34.7707 29.7906 34.9838 30.2504C35.1969 30.7101 35.531 31.0235 35.9861 31.1904C36.4413 31.3572 36.8988 31.3341 37.3585 31.1211C37.6477 30.9871 37.9354 30.9725 38.2217 31.0775C38.508 31.1825 38.7182 31.3795 38.8522 31.6687L39.8335 33.7861L50.46 33.624C51.0901 33.6225 51.6782 33.7919 52.2241 34.1321C52.77 34.4723 53.1769 34.9314 53.4448 35.5094C53.8142 36.3066 53.8495 37.1152 53.5507 37.9351C53.2519 38.755 52.7034 39.3499 51.9051 39.7198L49.5051 40.8321L52.6162 47.5453C52.7778 47.8938 52.7953 48.2405 52.6688 48.5856C52.5423 48.9306 52.3048 49.1839 51.9562 49.3454L41.8276 54.0393C41.4791 54.2009 41.1323 54.2184 40.7873 54.0918C40.4423 53.9653 40.189 53.7278 40.0275 53.3793L36.9164 46.6661L34.5033 47.7844C33.7087 48.1527 32.9037 48.1862 32.0885 47.8851C31.2733 47.584 30.6806 47.0342 30.3106 46.2358C30.0423 45.657 29.9521 45.0494 30.0398 44.4132C30.1275 43.7769 30.3764 43.2197 30.7864 42.7415L37.7921 34.7321L37.1941 33.4418C36.3081 33.579 35.4718 33.4414 34.6852 33.0292C33.8985 32.6169 33.3176 32.006 32.9424 31.1964C32.4707 30.1786 32.426 29.1484 32.8083 28.1058C33.1906 27.0631 33.8906 26.306 34.9084 25.8343C35.6781 25.4776 36.4599 25.3728 37.2539 25.5199C38.0479 25.667 38.7382 26.0031 39.3249 26.5281C39.5614 26.7365 39.6826 26.9982 39.6888 27.3133C39.6949 27.6283 39.5938 27.9041 39.3854 28.1405Z" fill="#CC0000"/>
</g>
</svg>
