<svg width="20" height="19" viewBox="0 0 20 19" fill="none" xmlns="http://www.w3.org/2000/svg">
<path d="M1.94703 1.5H18.0533C18.1988 1.50005 18.3411 1.5424 18.4629 1.62191C18.5847 1.70141 18.6808 1.81463 18.7395 1.94777C18.7981 2.08092 18.8167 2.22824 18.7931 2.37179C18.7695 2.51533 18.7046 2.64891 18.6064 2.75625L12.447 9.53437C12.3188 9.67159 12.2483 9.85286 12.2502 10.0406V15.3469C12.2513 15.4715 12.221 15.5944 12.162 15.7042C12.103 15.814 12.0172 15.9072 11.9127 15.975L8.91265 17.9719C8.80012 18.046 8.66969 18.0884 8.53509 18.0947C8.40049 18.101 8.26668 18.0709 8.14773 18.0076C8.02878 17.9443 7.92908 17.8501 7.85912 17.7349C7.78916 17.6198 7.75152 17.4879 7.75015 17.3531V10.0406C7.75196 9.85286 7.68147 9.67159 7.55328 9.53437L1.3939 2.75625C1.2957 2.64891 1.23084 2.51533 1.20722 2.37179C1.1836 2.22824 1.20223 2.08092 1.26086 1.94777C1.31948 1.81463 1.41556 1.70141 1.53739 1.62191C1.65922 1.5424 1.80155 1.50005 1.94703 1.5V1.5Z" stroke="#736D6D" stroke-width="1.5" stroke-linecap="round" stroke-linejoin="round"/>
</svg>
