<svg width="54" height="63" viewBox="0 0 54 63" fill="none" xmlns="http://www.w3.org/2000/svg">
<path fill-rule="evenodd" clip-rule="evenodd" d="M30.478 14.2567C35.6878 11.8359 40.0804 7.48686 45.7667 7.08954C51.9453 6.65782 58.4769 8.0898 62.9636 11.9868C67.4127 15.851 68.7084 22.0136 69.6175 27.8053C70.4477 33.0939 69.6921 38.4331 67.9291 43.6186C66.1921 48.7277 63.3699 53.326 59.5766 57.3389C55.4032 61.7538 50.9005 66.2021 45.0127 67.8614C38.7951 69.6138 32.0857 69.1001 26.2916 66.7197C20.4852 64.3344 15.8543 59.9156 12.7865 54.6224C9.82085 49.5056 8.94846 43.5057 9.37452 37.5315C9.78524 31.7725 11.1417 25.7445 15.1622 21.3102C18.9799 17.0998 25.2753 16.6741 30.478 14.2567Z" fill="#FCF0F0"/>
<mask id="mask0_455_247" style="mask-type:alpha" maskUnits="userSpaceOnUse" x="17" y="14" width="48" height="49">
<rect x="17" y="30.0005" width="36" height="36" transform="rotate(-24.8646 17 30.0005)" fill="#D9D9D9"/>
</mask>
<g mask="url(#mask0_455_247)">
<path d="M36.5314 42.3714L32.9315 34.6036C32.77 34.2551 32.7525 33.9083 32.879 33.5633C33.0055 33.2182 33.243 32.965 33.5916 32.8034L34.429 32.4153C34.7331 32.2744 35.0356 32.2592 35.3365 32.3695C35.6375 32.4799 35.8585 32.6871 35.9994 32.9911L39.672 40.916L39.5188 40.8598C38.9233 40.6461 38.3413 40.6711 37.7727 40.9346C37.2041 41.1981 36.8091 41.626 36.5876 42.2182L36.5314 42.3714ZM44.0678 41.9628L36.7685 26.2124C36.607 25.8639 36.5895 25.5171 36.716 25.1721C36.8425 24.8271 37.08 24.5738 37.4285 24.4123L38.266 24.0242C38.57 23.8833 38.8725 23.868 39.1735 23.9783C39.4745 24.0887 39.6954 24.2959 39.8363 24.5999L45.7529 37.3667L44.0678 41.9628ZM33.0855 51.675L29.0684 43.0069C28.9069 42.6584 28.8894 42.3116 29.0159 41.9666C29.1424 41.6215 29.3799 41.3683 29.7284 41.2068L30.5659 40.8186C30.8699 40.6777 31.1724 40.6625 31.4734 40.7728C31.7744 40.8832 31.9953 41.0904 32.1362 41.3944L34.7706 47.079L33.0855 51.675ZM37.4632 54.9049C37.0163 55.1121 36.6078 55.0486 36.2379 54.7145C35.868 54.3805 35.7705 53.9747 35.9456 53.4972L38.8694 45.5229C38.9892 45.1961 39.2039 44.9471 39.5136 44.7761C39.8232 44.6051 40.1536 44.5738 40.505 44.6822L46.057 46.2551L50.5677 33.9527L48.9397 34.7071C48.6505 34.8411 48.3627 34.8556 48.0764 34.7506C47.7901 34.6455 47.5799 34.4483 47.4458 34.159C47.3117 33.8697 47.2972 33.582 47.4022 33.2959C47.5073 33.0098 47.7044 32.7998 47.9936 32.6657L51.8671 30.8706C52.2156 30.7091 52.5624 30.6916 52.9074 30.8181C53.2525 30.9446 53.5057 31.1821 53.6672 31.5307L55.4623 35.4041C55.5964 35.6933 55.6109 35.9811 55.5058 36.2674C55.4007 36.5538 55.2036 36.764 54.9142 36.898C54.6249 37.0321 54.3372 37.0466 54.0511 36.9416C53.7651 36.8365 53.555 36.6394 53.421 36.3502L52.6665 34.7222L47.8637 47.8213C47.7439 48.1481 47.5292 48.3971 47.2196 48.5681C46.9099 48.7392 46.5795 48.7704 46.2281 48.662L40.6762 47.0891L38.0444 54.2668C37.9976 54.3909 37.9234 54.5124 37.8218 54.6312C37.7202 54.75 37.6007 54.8412 37.4632 54.9049Z" fill="#CC0000"/>
</g>
</svg>
