<svg width="54" height="63" viewBox="0 0 54 63" fill="none" xmlns="http://www.w3.org/2000/svg">
<path fill-rule="evenodd" clip-rule="evenodd" d="M30.478 14.2567C35.6878 11.8359 40.0804 7.48686 45.7667 7.08954C51.9453 6.65782 58.4769 8.0898 62.9636 11.9868C67.4127 15.851 68.7084 22.0136 69.6175 27.8053C70.4477 33.0939 69.6921 38.4331 67.9291 43.6186C66.1921 48.7277 63.3699 53.326 59.5766 57.3389C55.4032 61.7538 50.9005 66.2021 45.0127 67.8614C38.7951 69.6138 32.0857 69.1001 26.2916 66.7197C20.4852 64.3344 15.8543 59.9156 12.7865 54.6224C9.82085 49.5056 8.94846 43.5057 9.37452 37.5315C9.78524 31.7725 11.1417 25.7445 15.1622 21.3102C18.9799 17.0998 25.2753 16.6741 30.478 14.2567Z" fill="#FCF0F0"/>
<mask id="mask0_455_210" style="mask-type:alpha" maskUnits="userSpaceOnUse" x="17" y="14" width="48" height="49">
<rect x="17" y="30.0005" width="36" height="36" transform="rotate(-24.8646 17 30.0005)" fill="#D9D9D9"/>
</mask>
<g mask="url(#mask0_455_210)">
<path d="M52.3356 49.1697C50.2593 50.1319 48.1551 50.2222 46.023 49.4404C43.8909 48.6587 42.3437 47.2297 41.3815 45.1534C40.4193 43.077 40.329 40.9728 41.1108 38.8407C41.8925 36.7086 43.3215 35.1615 45.3978 34.1992C47.4741 33.237 49.5784 33.1467 51.7104 33.9285C53.8425 34.7102 55.3897 36.1392 56.352 38.2156C57.3142 40.2919 57.4044 42.3961 56.6227 44.5282C55.841 46.6603 54.4119 48.2074 52.3356 49.1697ZM51.3896 47.1283C52.8866 46.4345 53.9212 45.3075 54.4932 43.7474C55.0652 42.1873 55.0043 40.6587 54.3106 39.1616C53.6168 37.6646 52.4898 36.63 50.9297 36.058C49.3695 35.486 47.8409 35.5468 46.3439 36.2406C44.8468 36.9344 43.8123 38.0614 43.2403 39.6215C42.6682 41.1817 42.7291 42.7102 43.4229 44.2073C44.1167 45.7044 45.2436 46.7389 46.8038 47.3109C48.3639 47.8829 49.8925 47.8221 51.3896 47.1283ZM35.1615 53.8222C34.4741 54.1408 33.7818 54.1723 33.0847 53.9167C32.3876 53.6612 31.8798 53.1896 31.5612 52.5022L26.9983 42.6562C26.9142 42.4748 26.8497 42.2683 26.805 42.0368C26.7602 41.8053 26.7298 41.5831 26.7138 41.3701L26.5702 33.5137L25.9211 33.8145C25.5791 33.973 25.2523 33.9951 24.9409 33.8809C24.6293 33.7667 24.3943 33.5386 24.2358 33.1966L23.8477 32.3592C23.6892 32.0172 23.6671 31.6904 23.7813 31.3789C23.8955 31.0674 24.1236 30.8324 24.4656 30.6739L33.1024 26.6713C33.4444 26.5129 33.7711 26.4907 34.0826 26.605C34.3941 26.7192 34.6291 26.9473 34.7876 27.2892L35.1757 28.1267C35.3342 28.4687 35.3564 28.7954 35.2421 29.107C35.1279 29.4185 34.8998 29.6535 34.5578 29.812L33.9087 30.1128L39.7091 35.2332C39.4771 35.5421 39.2641 35.8612 39.0702 36.1906C38.8763 36.52 38.7059 36.8692 38.559 37.2382L31.7156 31.1292L28.7634 32.4973L28.9851 41.5924L33.6026 51.5561C33.6592 51.6783 33.745 51.7604 33.8599 51.8025C33.9748 51.8447 34.0933 51.8374 34.2155 51.7808L40.2874 48.9669C40.5429 49.2894 40.8234 49.5907 41.1292 49.8708C41.4349 50.1508 41.7549 50.3978 42.0893 50.6117L35.1615 53.8222ZM44.6458 32.5766C43.84 32.8546 43.0446 32.8316 42.2596 32.5076C41.4747 32.1836 40.8978 31.6238 40.5291 30.8282C40.1604 30.0325 40.1061 29.2305 40.3663 28.4222C40.6265 27.6138 41.1231 26.9921 41.8562 26.557L44.6458 32.5766C44.3678 31.7707 44.3907 30.9753 44.7147 30.1904C45.0387 29.4054 45.5986 28.8286 46.3942 28.4598C47.1898 28.0911 47.9918 28.0369 48.8002 28.297C49.6085 28.5572 50.2303 29.0538 50.6654 29.7869L44.6458 32.5766Z" fill="#CC0000"/>
</g>
</svg>
