<svg width="54" height="63" viewBox="0 0 54 63" fill="none" xmlns="http://www.w3.org/2000/svg">
<path fill-rule="evenodd" clip-rule="evenodd" d="M30.478 14.2567C35.6878 11.8359 40.0804 7.48686 45.7667 7.08954C51.9453 6.65782 58.4769 8.0898 62.9636 11.9868C67.4127 15.851 68.7084 22.0136 69.6175 27.8053C70.4477 33.0939 69.6921 38.4331 67.9291 43.6186C66.1921 48.7277 63.3699 53.326 59.5766 57.3389C55.4032 61.7538 50.9005 66.2021 45.0127 67.8614C38.7951 69.6138 32.0857 69.1001 26.2916 66.7197C20.4852 64.3344 15.8543 59.9156 12.7865 54.6224C9.82085 49.5056 8.94846 43.5057 9.37452 37.5315C9.78524 31.7725 11.1417 25.7445 15.1622 21.3102C18.9799 17.0998 25.2753 16.6741 30.478 14.2567Z" fill="#FCF0F0"/>
<mask id="mask0_455_231" style="mask-type:alpha" maskUnits="userSpaceOnUse" x="17" y="14" width="48" height="49">
<rect x="17" y="30.0005" width="36" height="36" transform="rotate(-24.8646 17 30.0005)" fill="#D9D9D9"/>
</mask>
<g mask="url(#mask0_455_231)">
<path d="M44.3993 46.314C43.5983 46.6853 42.7713 46.9318 41.9185 47.0536C41.0657 47.1754 40.2174 47.1722 39.3737 47.0439C38.418 47.4147 37.3743 47.6552 36.2426 47.7653C35.1109 47.8753 33.9641 47.7265 32.8021 47.3186C31.6402 46.9108 30.5083 46.1949 29.4064 45.171C28.3046 44.147 27.3146 42.6876 26.4365 40.7927L26.1393 40.1515C25.742 39.2941 25.7022 38.4322 26.0202 37.5657C26.3381 36.6992 26.9259 36.0672 27.7837 35.6697C28.5802 35.3005 29.4038 35.2723 30.2544 35.5849C31.1051 35.8976 31.7565 36.4514 32.2087 37.2465C32.7676 36.7671 33.2231 36.299 33.5752 35.8422C33.9274 35.3855 34.282 34.9388 34.6391 34.502C35.0441 33.9624 35.4748 33.4698 35.9315 33.0239C36.3882 32.578 36.977 32.1881 37.6977 31.8541C38.434 31.5128 39.116 31.3139 39.7436 31.2572C40.3713 31.2006 41.0218 31.1922 41.6952 31.232C42.2453 31.2483 42.8119 31.2681 43.395 31.2914C43.9781 31.3148 44.6332 31.2682 45.3603 31.1517C45.0354 30.27 45.0315 29.4092 45.3487 28.5691C45.6659 27.729 46.2224 27.1245 47.0183 26.7557C47.8753 26.3585 48.7372 26.3186 49.604 26.6361C50.4707 26.9536 51.1027 27.5411 51.5001 28.3985L51.7972 29.0397C52.6754 30.9346 53.149 32.6333 53.218 34.1359C53.2871 35.6385 53.1016 36.9649 52.6617 38.115C52.2218 39.2652 51.5941 40.2365 50.7786 41.0288C49.963 41.8211 49.1049 42.462 48.2042 42.9515C47.7567 43.6782 47.2109 44.3275 46.5669 44.8994C45.9229 45.4713 45.2003 45.9428 44.3993 46.314ZM36.2102 45.9665C35.4324 45.5322 34.7108 44.9721 34.0454 44.2864C33.38 43.6007 32.8395 42.8095 32.4239 41.9126L30.6409 38.0653C30.4541 37.6622 30.1571 37.3861 29.7498 37.2367C29.3425 37.0874 28.9374 37.1062 28.5343 37.2929C28.1313 37.4797 27.8551 37.7768 27.7057 38.184C27.5564 38.5913 27.5752 38.9965 27.762 39.3995L28.0591 40.0407C29.2478 42.6056 30.574 44.2531 32.0378 44.9831C33.5016 45.7132 34.8924 46.041 36.2102 45.9665ZM43.646 44.692C45.4595 43.8515 46.7084 42.4933 47.3926 40.6173C48.0769 38.7413 47.9989 36.8968 47.1588 35.084L46.1181 32.8384C45.2715 33.0103 44.5193 33.1104 43.8616 33.1386C43.2038 33.1668 42.59 33.1445 42.02 33.0716C41.2404 32.9857 40.5766 32.9733 40.0284 33.0345C39.4802 33.0956 38.9554 33.2424 38.454 33.4748C37.9526 33.7071 37.5043 34.0113 37.1092 34.3873C36.7141 34.7633 36.293 35.2785 35.8459 35.9329C35.5226 36.3922 35.1428 36.875 34.7066 37.3813C34.2704 37.8876 33.7035 38.3989 33.0058 38.915L34.0465 41.1606C34.8867 42.9735 36.2432 44.2254 38.1162 44.9163C39.9891 45.6072 41.8324 45.5324 43.646 44.692ZM39.6969 36.1576C40.0223 36.0067 40.3367 35.9315 40.6399 35.9319C40.9432 35.9324 41.2869 35.9538 41.6712 35.9961C41.8869 36.0258 42.0925 36.0471 42.2879 36.0603C42.4834 36.0734 42.7031 36.087 42.947 36.1011C43.149 36.1071 43.3143 36.0383 43.4427 35.8947C43.5712 35.7511 43.6389 35.5816 43.6458 35.3862C43.6471 35.197 43.5764 35.0443 43.4335 34.9282C43.2907 34.8121 43.1247 34.7534 42.9354 34.7521C42.7225 34.7474 42.5282 34.7404 42.3527 34.7313C42.1772 34.7221 41.9937 34.7101 41.8024 34.6954C41.3568 34.6433 40.9246 34.6162 40.5061 34.6142C40.0876 34.6121 39.6306 34.7258 39.135 34.9555C38.6395 35.1851 38.2546 35.4605 37.9802 35.7816C37.7058 36.1026 37.4385 36.4528 37.1783 36.832C37.0692 36.9889 36.963 37.1378 36.8596 37.2788C36.7562 37.4198 36.6371 37.5713 36.5023 37.7334C36.381 37.8787 36.3198 38.0427 36.3187 38.2255C36.3175 38.4083 36.3896 38.5603 36.5348 38.6817C36.6801 38.803 36.8485 38.8553 37.04 38.8386C37.2315 38.822 37.3879 38.741 37.5092 38.5957C37.6534 38.3974 37.7863 38.2174 37.9081 38.0557C38.0299 37.894 38.1571 37.7299 38.2897 37.5632C38.501 37.2554 38.7071 36.9819 38.9077 36.7426C39.1084 36.5034 39.3715 36.3084 39.6969 36.1576ZM49.42 39.8605C50.3374 38.8992 50.9896 37.6219 51.3768 36.0288C51.764 34.4356 51.3632 32.3566 50.1746 29.7917L49.8774 29.1505C49.6906 28.7474 49.3936 28.4712 48.9863 28.3219C48.579 28.1726 48.1739 28.1913 47.7708 28.3781C47.3678 28.5649 47.0916 28.8619 46.9422 29.2692C46.7929 29.6765 46.8117 30.0816 46.9985 30.4847L48.7814 34.332C49.197 35.2288 49.4569 36.1555 49.561 37.1119C49.6651 38.0683 49.6181 38.9845 49.42 39.8605Z" fill="#CC0000"/>
</g>
</svg>
