<svg width="54" height="63" viewBox="0 0 54 63" fill="none" xmlns="http://www.w3.org/2000/svg">
<path fill-rule="evenodd" clip-rule="evenodd" d="M30.478 14.2567C35.6878 11.8359 40.0804 7.48686 45.7667 7.08954C51.9453 6.65782 58.4769 8.0898 62.9636 11.9868C67.4127 15.851 68.7084 22.0136 69.6175 27.8053C70.4477 33.0939 69.6921 38.4331 67.9291 43.6186C66.1921 48.7277 63.3699 53.326 59.5766 57.3389C55.4032 61.7538 50.9005 66.2021 45.0127 67.8614C38.7951 69.6138 32.0857 69.1001 26.2916 66.7197C20.4852 64.3344 15.8543 59.9156 12.7865 54.6224C9.82085 49.5056 8.94846 43.5057 9.37452 37.5315C9.78524 31.7725 11.1417 25.7445 15.1622 21.3102C18.9799 17.0998 25.2753 16.6741 30.478 14.2567Z" fill="#FCF0F0"/>
<g clip-path="url(#clip0_455_176)">
<path d="M43.9927 21.6836L24.5072 32.9336C23.9904 33.232 23.6133 33.7234 23.4588 34.2998C23.3044 34.8762 23.3852 35.4904 23.6836 36.0072L34.9336 55.4927C35.232 56.0095 35.7234 56.3866 36.2998 56.5411C36.8762 56.6955 37.4904 56.6146 38.0072 56.3163L57.4927 45.0663C58.0095 44.7679 58.3866 44.2765 58.5411 43.7001C58.6955 43.1237 58.6146 42.5095 58.3163 41.9927L47.0663 22.5072C46.7679 21.9904 46.2765 21.6133 45.7001 21.4588C45.1237 21.3044 44.5095 21.3852 43.9927 21.6836ZM38.3785 45.7096C38.5712 45.5983 38.7926 45.5467 39.0146 45.5612C39.2366 45.5758 39.4494 45.6559 39.6259 45.7913C39.8024 45.9268 39.9348 46.1115 40.0063 46.3222C40.0779 46.5329 40.0853 46.7601 40.0277 46.975C39.9701 47.1899 39.8501 47.3829 39.6828 47.5296C39.5155 47.6764 39.3085 47.7702 39.0879 47.7992C38.8673 47.8282 38.643 47.7912 38.4435 47.6928C38.2439 47.5944 38.078 47.439 37.9668 47.2463C37.8176 46.9879 37.7772 46.6809 37.8544 46.3927C37.9316 46.1045 38.1201 45.8587 38.3785 45.7096ZM25.6322 34.8822L29.5293 32.6322L36.3763 44.4916C35.8589 45.0967 35.5722 45.8652 35.5666 46.6614C35.5611 47.4575 35.8372 48.2299 36.3462 48.8422C36.8551 49.4544 37.5641 49.867 38.3478 50.0071C39.1316 50.1472 39.9396 50.0056 40.6291 49.6076C41.3185 49.2095 41.8451 48.5805 42.1157 47.8317C42.3863 47.083 42.3834 46.2627 42.1077 45.5158C41.8319 44.7689 41.301 44.1436 40.6088 43.7503C39.9166 43.357 39.1076 43.2211 38.3249 43.3666L36.2106 39.7045L45.4312 42.1752L48.5735 47.6177L36.8822 54.3677L25.6322 34.8822ZM56.3677 43.1177L50.5221 46.4927L47.1471 40.6471C47.0733 40.519 46.975 40.4068 46.8578 40.3167C46.7406 40.2267 46.6068 40.1606 46.4641 40.1223L34.6201 36.9497L31.4778 31.5072L35.3749 29.2572L37.0624 32.18C37.1362 32.308 37.2345 32.4203 37.3517 32.5103C37.4689 32.6004 37.6027 32.6664 37.7454 32.7048L40.8189 33.5283C40.8571 34.0302 41.0082 34.5169 41.261 34.9521C41.5947 35.5302 42.0924 35.9963 42.6911 36.2915C43.2898 36.5868 43.9626 36.6979 44.6244 36.6107C45.2862 36.5236 45.9073 36.2422 46.4091 35.8021C46.911 35.3619 47.2711 34.7829 47.4438 34.1381C47.6166 33.4933 47.5943 32.8118 47.3797 32.1797C47.1652 31.5477 46.768 30.9934 46.2384 30.587C45.7088 30.1807 45.0706 29.9405 44.4046 29.8968C43.7385 29.8532 43.0744 30.008 42.4963 30.3418C42.0599 30.5927 41.6859 30.9391 41.4023 31.355L38.7783 30.6519L37.3235 28.1322L45.1177 23.6322L56.3677 43.1177ZM43.6213 32.2903C43.814 32.1791 44.0354 32.1275 44.2574 32.142C44.4794 32.1566 44.6922 32.2366 44.8687 32.3721C45.0452 32.5075 45.1776 32.6923 45.2491 32.903C45.3206 33.1137 45.3281 33.3408 45.2705 33.5558C45.2129 33.7707 45.0929 33.9637 44.9256 34.1104C44.7583 34.2571 44.5513 34.3509 44.3307 34.38C44.1101 34.409 43.8858 34.372 43.6863 34.2736C43.4867 34.1752 43.3208 34.0198 43.2096 33.8271C43.0604 33.5687 43.0199 33.2616 43.0972 32.9734C43.1744 32.6852 43.3629 32.4395 43.6213 32.2903Z" fill="#CC0000"/>
</g>
<defs>
<clipPath id="clip0_455_176">
<rect width="36" height="36" fill="white" transform="translate(16.4116 32.4116) rotate(-30)"/>
</clipPath>
</defs>
</svg>
