<svg width="36" height="36" viewBox="0 0 36 36" fill="none" xmlns="http://www.w3.org/2000/svg">
<g clip-path="url(#clip0_167_551)">
<path d="M23.3649 9.57764H12.6352C10.9226 9.57764 9.5293 10.971 9.5293 12.6836V23.4132C9.5293 25.1258 10.9226 26.5196 12.6352 26.5196H23.3649C25.0775 26.5196 26.4713 25.1262 26.4713 23.4132V12.6836C26.4713 10.971 25.0779 9.57764 23.3649 9.57764ZM18.0001 23.6258C14.925 23.6258 12.4231 21.1239 12.4231 18.0484C12.4231 14.9733 14.925 12.4714 18.0001 12.4714C21.0755 12.4714 23.5775 14.9733 23.5775 18.0484C23.5775 21.1235 21.0751 23.6258 18.0001 23.6258ZM23.7568 13.6245C23.0288 13.6245 22.4368 13.0325 22.4368 12.305C22.4368 11.5774 23.0288 10.9854 23.7568 10.9854C24.4843 10.9854 25.0763 11.5774 25.0763 12.305C25.0763 13.0325 24.4843 13.6245 23.7568 13.6245Z" fill="white"/>
<path d="M18 14.8281C16.2248 14.8281 14.7793 16.2728 14.7793 18.048C14.7793 19.824 16.2248 21.269 18 21.269C19.7759 21.269 21.2202 19.824 21.2202 18.048C21.2202 16.2732 19.7755 14.8281 18 14.8281Z" fill="white"/>
<path d="M18 0C8.05927 0 0 8.05927 0 18C0 27.9407 8.05927 36 18 36C27.9407 36 36 27.9407 36 18C36 8.05927 27.9407 0 18 0ZM28.8275 23.4134C28.8275 26.4259 26.3773 28.876 23.3648 28.876H12.6352C9.62307 28.876 7.17249 26.4259 7.17249 23.4134V12.6837C7.17249 9.67161 9.62307 7.22102 12.6352 7.22102H23.3648C26.3773 7.22102 28.8275 9.67161 28.8275 12.6837V23.4134Z" fill="white"/>
</g>
<defs>
<clipPath id="clip0_167_551">
<rect width="36" height="36" fill="white"/>
</clipPath>
</defs>
</svg>
