<svg width="36" height="36" viewBox="0 0 36 36" fill="none" xmlns="http://www.w3.org/2000/svg">
<g clip-path="url(#clip0_869_843)">
<path d="M23.3649 9.57776H12.6352C10.9226 9.57776 9.5293 10.9711 9.5293 12.6837V23.4134C9.5293 25.126 10.9226 26.5197 12.6352 26.5197H23.3649C25.0775 26.5197 26.4713 25.1264 26.4713 23.4134V12.6837C26.4713 10.9711 25.0779 9.57776 23.3649 9.57776ZM18.0001 23.6259C14.925 23.6259 12.4231 21.124 12.4231 18.0485C12.4231 14.9735 14.925 12.4715 18.0001 12.4715C21.0755 12.4715 23.5775 14.9735 23.5775 18.0485C23.5775 21.1236 21.0751 23.6259 18.0001 23.6259ZM23.7568 13.6246C23.0288 13.6246 22.4368 13.0326 22.4368 12.3051C22.4368 11.5775 23.0288 10.9855 23.7568 10.9855C24.4843 10.9855 25.0763 11.5775 25.0763 12.3051C25.0763 13.0326 24.4843 13.6246 23.7568 13.6246Z" fill="#CC0000"/>
<path d="M18 14.8282C16.2248 14.8282 14.7793 16.2729 14.7793 18.0481C14.7793 19.8241 16.2248 21.2692 18 21.2692C19.7759 21.2692 21.2202 19.8241 21.2202 18.0481C21.2202 16.2733 19.7755 14.8282 18 14.8282Z" fill="#CC0000"/>
<path d="M18 0C8.05927 0 0 8.05927 0 18C0 27.9407 8.05927 36 18 36C27.9407 36 36 27.9407 36 18C36 8.05927 27.9407 0 18 0ZM28.8275 23.4134C28.8275 26.4259 26.3773 28.876 23.3648 28.876H12.6352C9.62307 28.876 7.17249 26.4259 7.17249 23.4134V12.6837C7.17249 9.67161 9.62307 7.22102 12.6352 7.22102H23.3648C26.3773 7.22102 28.8275 9.67161 28.8275 12.6837V23.4134Z" fill="#CC0000"/>
</g>
<defs>
<clipPath id="clip0_869_843">
<rect width="36" height="36" fill="white"/>
</clipPath>
</defs>
</svg>
