<svg width="16" height="18" viewBox="0 0 16 18" fill="none" xmlns="http://www.w3.org/2000/svg">
<path d="M7.99996 16.6769C9.87944 15.041 11.3653 13.3772 12.4577 11.6856C13.55 9.99391 14.0961 8.53077 14.0961 7.29615C14.0961 5.46667 13.5169 3.95673 12.3586 2.76635C11.2003 1.57597 9.74739 0.980776 7.99996 0.980776C6.25253 0.980776 4.79964 1.57597 3.64131 2.76635C2.48298 3.95673 1.90381 5.46667 1.90381 7.29615C1.90381 8.53077 2.44996 9.99391 3.54226 11.6856C4.63457 13.3772 6.12048 15.041 7.99996 16.6769ZM7.99996 17.5558C7.84354 17.5558 7.68713 17.5301 7.53073 17.4789C7.37432 17.4276 7.23008 17.3442 7.09803 17.2289C6.3865 16.575 5.66534 15.8468 4.93456 15.0442C4.20379 14.2417 3.54001 13.4106 2.94321 12.551C2.34643 11.6913 1.85732 10.8138 1.47591 9.91828C1.09451 9.02276 0.903809 8.14872 0.903809 7.29615C0.903809 5.18077 1.59259 3.43589 2.97016 2.06153C4.34771 0.687175 6.02431 0 7.99996 0C9.97561 0 11.6522 0.687175 13.0298 2.06153C14.4073 3.43589 15.0961 5.18077 15.0961 7.29615C15.0961 8.14872 14.9054 9.01955 14.524 9.90865C14.1426 10.7978 13.6567 11.6753 13.0663 12.5414C12.4759 13.4074 11.8154 14.2385 11.0846 15.0346C10.3538 15.8308 9.63266 16.5558 8.92111 17.2096C8.79366 17.325 8.64883 17.4115 8.48661 17.4692C8.32439 17.5269 8.16218 17.5558 7.99996 17.5558ZM8.00336 8.73078C8.44852 8.73078 8.82848 8.57227 9.14323 8.25525C9.45797 7.93823 9.61533 7.55714 9.61533 7.11198C9.61533 6.66681 9.45683 6.28686 9.13983 5.97213C8.82282 5.65738 8.44173 5.5 7.99656 5.5C7.55139 5.5 7.17143 5.65851 6.85668 5.97553C6.54195 6.29253 6.38458 6.67362 6.38458 7.1188C6.38458 7.56397 6.54308 7.94392 6.86008 8.25865C7.1771 8.5734 7.55819 8.73078 8.00336 8.73078Z" fill="#332F2F"/>
</svg>
