<svg width="54" height="63" viewBox="0 0 54 63" fill="none" xmlns="http://www.w3.org/2000/svg">
<path fill-rule="evenodd" clip-rule="evenodd" d="M30.478 14.2567C35.6878 11.8359 40.0804 7.48686 45.7667 7.08954C51.9453 6.65782 58.4769 8.0898 62.9636 11.9868C67.4127 15.851 68.7084 22.0136 69.6175 27.8053C70.4477 33.0939 69.6921 38.4331 67.9291 43.6186C66.1921 48.7277 63.3699 53.326 59.5766 57.3389C55.4032 61.7538 50.9005 66.2021 45.0127 67.8614C38.7951 69.6138 32.0857 69.1001 26.2916 66.7197C20.4852 64.3344 15.8543 59.9156 12.7865 54.6224C9.82085 49.5056 8.94846 43.5057 9.37452 37.5315C9.78524 31.7725 11.1417 25.7445 15.1622 21.3102C18.9799 17.0998 25.2753 16.6741 30.478 14.2567Z" fill="#FCF0F0"/>
<mask id="mask0_455_259" style="mask-type:alpha" maskUnits="userSpaceOnUse" x="17" y="14" width="48" height="49">
<rect x="17" y="30.0005" width="36" height="36" transform="rotate(-24.8646 17 30.0005)" fill="#D9D9D9"/>
</mask>
<g mask="url(#mask0_455_259)">
<path d="M36.4228 56.5441C35.744 56.8586 35.0529 56.8869 34.3495 56.629C33.646 56.3711 33.137 55.9028 32.8224 55.224L27.6628 44.0904C27.4347 43.5984 27.3569 43.0839 27.4292 42.547C27.5015 42.0101 27.7258 41.5326 28.1022 41.1144L32.082 36.7362C32.416 36.3821 32.8192 36.2313 33.2918 36.2836C33.7643 36.3359 34.1061 36.5897 34.3172 37.0451L34.7114 37.8958L38.8771 33.4726C39.2111 33.1186 39.614 32.9817 40.0857 33.062C40.5574 33.1422 40.8935 33.3987 41.0941 33.8314L41.9952 35.776L52.8829 30.7303L58.6805 43.2405C58.9951 43.9192 59.0234 44.6104 58.7654 45.3138C58.5075 46.0173 58.0392 46.5263 57.3605 46.8409L36.4228 56.5441ZM35.4767 54.5027L56.4144 44.7995C56.5366 44.7429 56.6187 44.6571 56.6608 44.5422C56.703 44.4272 56.6957 44.3087 56.6391 44.1866L51.7875 33.7177L40.8999 38.7634L39.6069 35.9735L34.0636 41.8489L32.8337 39.1951L29.7866 42.6705C29.7243 42.7418 29.6864 42.8203 29.6731 42.9059C29.6599 42.9916 29.6734 43.0781 29.7139 43.1653L34.8638 54.278C34.9204 54.4001 35.0062 54.4823 35.1211 54.5244C35.236 54.5665 35.3546 54.5593 35.4767 54.5027ZM43.3347 47.173L45.7425 46.0572L43.5108 41.2415L41.103 42.3573L43.3347 47.173ZM37.8909 49.6959L40.2987 48.58L38.0669 43.7643L35.6591 44.8802L37.8909 49.6959ZM48.7785 44.6502L51.1863 43.5343L48.9546 38.7186L46.5468 39.8345L48.7785 44.6502ZM52.8829 30.7303L47.3606 33.2895L44.2391 23.2746C44.1504 22.9872 44.1642 22.7106 44.2805 22.4447C44.3969 22.1789 44.5902 21.9833 44.8606 21.858L45.9075 21.3728C46.1605 21.2556 46.4185 21.2394 46.6814 21.3242C46.9443 21.409 47.1527 21.5694 47.3065 21.8054L52.8829 30.7303ZM35.4767 54.5027L35.0579 54.6968L56.8332 44.6054L35.4767 54.5027Z" fill="#CC0000"/>
</g>
</svg>
