<svg width="32" height="32" viewBox="0 0 32 32" fill="none" xmlns="http://www.w3.org/2000/svg">
<path d="M0 8C0 3.58172 3.58172 0 8 0H24C28.4183 0 32 3.58172 32 8V24C32 28.4183 28.4183 32 24 32H8C3.58172 32 0 28.4183 0 24V8Z" fill="#FFF7F8"/>
<path d="M19.477 16.8896L20.992 25.4156C21.009 25.516 20.9949 25.6192 20.9516 25.7114C20.9084 25.8036 20.838 25.8803 20.7499 25.9314C20.6619 25.9825 20.5603 26.0055 20.4588 25.9974C20.3573 25.9892 20.2607 25.9502 20.182 25.8856L16.602 23.1986C16.4292 23.0695 16.2192 22.9998 16.0035 22.9998C15.7878 22.9998 15.5778 23.0695 15.405 23.1986L11.819 25.8846C11.7403 25.9491 11.6439 25.988 11.5425 25.9962C11.4411 26.0044 11.3397 25.9815 11.2517 25.9305C11.1636 25.8796 11.0933 25.803 11.0499 25.711C11.0066 25.619 10.9923 25.516 11.009 25.4156L12.523 16.8896" stroke="#E3000F" stroke-width="2" stroke-linecap="round" stroke-linejoin="round"/>
<path d="M16 18C19.3137 18 22 15.3137 22 12C22 8.68629 19.3137 6 16 6C12.6863 6 10 8.68629 10 12C10 15.3137 12.6863 18 16 18Z" stroke="#E3000F" stroke-width="2" stroke-linecap="round" stroke-linejoin="round"/>
</svg>
