<svg width="54" height="63" viewBox="0 0 54 63" fill="none" xmlns="http://www.w3.org/2000/svg">
<path fill-rule="evenodd" clip-rule="evenodd" d="M30.478 14.2567C35.6878 11.8359 40.0804 7.48686 45.7667 7.08954C51.9453 6.65782 58.4769 8.0898 62.9636 11.9868C67.4127 15.851 68.7084 22.0136 69.6175 27.8053C70.4477 33.0939 69.6921 38.4331 67.9291 43.6186C66.1921 48.7277 63.3699 53.326 59.5766 57.3389C55.4032 61.7538 50.9005 66.2021 45.0127 67.8614C38.7951 69.6138 32.0857 69.1001 26.2916 66.7197C20.4852 64.3344 15.8543 59.9156 12.7865 54.6224C9.82085 49.5056 8.94846 43.5057 9.37452 37.5315C9.78524 31.7725 11.1417 25.7445 15.1622 21.3102C18.9799 17.0998 25.2753 16.6741 30.478 14.2567Z" fill="#FCF0F0"/>
<mask id="mask0_455_306" style="mask-type:alpha" maskUnits="userSpaceOnUse" x="17" y="14" width="48" height="49">
<rect x="17" y="30.0005" width="36" height="36" transform="rotate(-24.8646 17 30.0005)" fill="#D9D9D9"/>
</mask>
<g mask="url(#mask0_455_306)">
<path d="M35.7005 55.2257C35.4113 55.3597 35.1236 55.3742 34.8372 55.2691C34.5509 55.164 34.3407 54.9668 34.2066 54.6775C34.0725 54.3882 34.058 54.1005 34.1631 53.8144C34.2681 53.5283 34.4653 53.3183 34.7545 53.1843L36.2594 52.4868L32.3174 43.9808L30.8125 44.6783C30.5233 44.8123 30.2355 44.8268 29.9492 44.7217C29.6629 44.6167 29.4527 44.4195 29.3186 44.1302C29.1845 43.8408 29.17 43.5531 29.2751 43.267C29.3801 42.981 29.5773 42.7709 29.8665 42.6369L31.3714 41.9395L27.4294 33.4335L25.9245 34.1309C25.6353 34.2649 25.3475 34.2794 25.0612 34.1743C24.7749 34.0693 24.5647 33.8721 24.4306 33.5827C24.2965 33.2934 24.282 33.0057 24.3871 32.7197C24.4921 32.4336 24.6892 32.2235 24.9784 32.0895L46.0863 22.3074C46.3755 22.1734 46.6633 22.1589 46.9496 22.264C47.236 22.369 47.4462 22.5662 47.5803 22.8555C47.7143 23.1449 47.7289 23.4326 47.6238 23.7187C47.5187 24.0047 47.3216 24.2148 47.0324 24.3488L45.5405 25.0402L49.4825 33.5462L50.9743 32.8548C51.2635 32.7208 51.5513 32.7063 51.8376 32.8113C52.124 32.9164 52.3342 33.1136 52.4683 33.4029C52.6024 33.6922 52.6169 33.98 52.5118 34.266C52.4067 34.5521 52.2096 34.7622 51.9204 34.8962L50.4285 35.5875L54.3705 44.0936L55.8623 43.4022C56.1515 43.2682 56.4393 43.2537 56.7256 43.3588C57.012 43.4638 57.2222 43.661 57.3563 43.9503C57.4904 44.2396 57.5049 44.5273 57.3998 44.8134C57.2947 45.0995 57.0976 45.3096 56.8084 45.4436L35.7005 55.2257ZM38.3008 51.5408L52.3291 45.0396L48.3871 36.5336L48.0469 36.6913C47.7577 36.8253 47.4699 36.8398 47.1836 36.7347C46.8973 36.6297 46.687 36.4325 46.553 36.1432C46.4189 35.8538 46.4044 35.5661 46.5094 35.2801C46.6145 34.994 46.8117 34.7839 47.1009 34.6499L47.4411 34.4922L43.4991 25.9862L29.4708 32.4874L33.4128 40.9934L33.753 40.8357C34.0422 40.7017 34.33 40.6872 34.6163 40.7923C34.9027 40.8973 35.1129 41.0945 35.247 41.3838C35.381 41.6732 35.3956 41.9609 35.2905 42.247C35.1854 42.533 34.9883 42.7431 34.6991 42.8771L34.3588 43.0348L38.3008 51.5408ZM43.2211 43.7762C44.2603 43.2946 44.9782 42.5269 45.3747 41.4731C45.7712 40.4193 45.7338 39.3837 45.2623 38.3664C45.0723 37.9564 44.8611 37.623 44.6287 37.3661C44.3963 37.1093 44.0446 36.8547 43.5737 36.6024L40.335 35.0948C39.9498 34.9179 39.5671 34.9175 39.187 35.0936C38.8069 35.2698 38.5611 35.5607 38.4496 35.9663L37.513 39.3857C37.4012 39.9081 37.3685 40.3418 37.415 40.6868C37.4615 41.0319 37.5812 41.4125 37.7741 41.8288C38.2467 42.8486 39.0129 43.5485 40.0727 43.9286C41.1325 44.3086 42.182 44.2578 43.2211 43.7762Z" fill="#CC0000"/>
</g>
</svg>
