<svg width="54" height="63" viewBox="0 0 54 63" fill="none" xmlns="http://www.w3.org/2000/svg">
<path fill-rule="evenodd" clip-rule="evenodd" d="M30.478 14.2567C35.6878 11.8359 40.0804 7.48686 45.7667 7.08954C51.9453 6.65782 58.4769 8.0898 62.9636 11.9868C67.4127 15.851 68.7084 22.0136 69.6175 27.8053C70.4477 33.0939 69.6921 38.4331 67.9291 43.6186C66.1921 48.7277 63.3699 53.326 59.5766 57.3389C55.4032 61.7538 50.9005 66.2021 45.0127 67.8614C38.7951 69.6138 32.0857 69.1001 26.2916 66.7197C20.4852 64.3344 15.8543 59.9156 12.7865 54.6224C9.82085 49.5056 8.94846 43.5057 9.37452 37.5315C9.78524 31.7725 11.1417 25.7445 15.1622 21.3102C18.9799 17.0998 25.2753 16.6741 30.478 14.2567Z" fill="#FCF0F0"/>
<mask id="mask0_455_241" style="mask-type:alpha" maskUnits="userSpaceOnUse" x="17" y="14" width="48" height="49">
<rect x="17" y="30.0005" width="36" height="36" transform="rotate(-24.8646 17 30.0005)" fill="#D9D9D9"/>
</mask>
<g mask="url(#mask0_455_241)">
<path d="M30.9047 54.6188L29.1096 50.7453C28.8047 50.0875 28.7695 49.4272 29.0038 48.7643C29.2382 48.1014 29.6688 47.6141 30.2959 47.3024L34.4913 45.3581C34.9013 45.1681 35.3373 45.0879 35.7993 45.1175C36.2613 45.1471 36.6917 45.2879 37.0903 45.5398C38.1957 46.1551 39.3676 46.4895 40.6058 46.5431C41.8441 46.5966 43.0338 46.359 44.1749 45.8301C45.3299 45.2948 46.2894 44.5365 47.0534 43.5551C47.8173 42.5736 48.3148 41.4656 48.5459 40.2309C48.6393 39.7509 48.8205 39.3268 49.0896 38.9583C49.3587 38.5899 49.6869 38.3159 50.0742 38.1364L54.2696 36.1921C54.9267 35.9088 55.5826 35.8925 56.2372 36.1434C56.8919 36.3943 57.3716 36.8487 57.6765 37.5064L59.4716 41.3799C59.6341 41.7306 59.6524 42.0777 59.5264 42.4211C59.4005 42.7645 59.1622 43.0175 58.8115 43.18L52.4255 46.1395C52.0748 46.3021 51.7277 46.3204 51.3843 46.1944C51.0409 46.0685 50.7879 45.8302 50.6254 45.4795L49.7121 43.5087C49.2105 44.4618 48.5717 45.3106 47.7954 46.055C47.0192 46.7994 46.1277 47.4049 45.1209 47.8715C44.1368 48.3275 43.108 48.6104 42.0344 48.7201C40.9608 48.8297 39.894 48.7699 38.8339 48.5405L39.7508 50.5192C39.9134 50.8698 39.9317 51.2169 39.8057 51.5603C39.6798 51.9038 39.4415 52.1568 39.0908 52.3193L32.7048 55.2788C32.3541 55.4413 32.007 55.4596 31.6636 55.3337C31.3202 55.2078 31.0672 54.9695 30.9047 54.6188ZM43.3016 43.9457C42.4832 44.3249 41.6202 44.4944 40.7123 44.4541C39.8045 44.4138 38.948 44.1744 38.1428 43.7357C37.5576 43.3923 36.9387 43.1773 36.2861 43.0908C35.6334 43.0043 34.9943 43.0636 34.3688 43.2688C34.618 42.2927 35.372 41.2751 36.6308 40.2159C37.8897 39.1567 39.155 38.3324 40.427 37.7429C41.6989 37.1534 43.1458 36.7208 44.7677 36.445C46.3896 36.1692 47.6578 36.2497 48.5723 36.6864C48.0254 37.0246 47.5705 37.4723 47.2077 38.0294C46.8448 38.5865 46.6053 39.1993 46.4891 39.8678C46.3365 40.7779 45.9773 41.5876 45.4116 42.297C44.8459 43.0064 44.1426 43.5559 43.3016 43.9457ZM30.9144 44.7266C29.8849 45.2036 28.834 45.2456 27.7616 44.8524C26.6892 44.4591 25.9144 43.7478 25.4373 42.7184C24.9497 41.6663 24.9052 40.6097 25.3036 39.5486C25.7021 38.4875 26.4161 37.7184 27.4455 37.2414C28.4976 36.7538 29.5516 36.7035 30.6074 37.0906C31.6633 37.4778 32.435 38.1974 32.9226 39.2495C33.3996 40.2789 33.4472 41.3272 33.0654 42.3944C32.6835 43.4616 31.9665 44.239 30.9144 44.7266ZM51.9045 34.999C50.875 35.4761 49.8241 35.5181 48.7517 35.1249C47.6792 34.7317 46.9045 34.0203 46.4274 32.9909C45.9398 31.9388 45.8953 30.8822 46.2937 29.8211C46.6922 28.76 47.4061 27.9909 48.4356 27.5139C49.4877 27.0263 50.5417 26.976 51.5975 27.3632C52.6533 27.7503 53.425 28.4699 53.9126 29.522C54.3897 30.5514 54.4373 31.5997 54.0554 32.6669C53.6736 33.7341 52.9566 34.5115 51.9045 34.999ZM39.5173 35.7799C38.4879 36.257 37.4369 36.2989 36.3645 35.9058C35.2921 35.5125 34.5173 34.8012 34.0402 33.7718C33.5527 32.7197 33.5081 31.6631 33.9065 30.602C34.305 29.5409 35.019 28.7718 36.0484 28.2947C37.1005 27.8072 38.1545 27.7569 39.2103 28.144C40.2661 28.5312 41.0378 29.2508 41.5254 30.3029C42.0025 31.3323 42.0501 32.3806 41.6683 33.4478C41.2864 34.515 40.5694 35.2924 39.5173 35.7799Z" fill="#CC0000"/>
</g>
</svg>
