<svg width="54" height="63" viewBox="0 0 54 63" fill="none" xmlns="http://www.w3.org/2000/svg">
<path fill-rule="evenodd" clip-rule="evenodd" d="M30.478 14.2567C35.6878 11.8359 40.0804 7.48686 45.7667 7.08954C51.9453 6.65782 58.4769 8.0898 62.9636 11.9868C67.4127 15.851 68.7084 22.0136 69.6175 27.8053C70.4477 33.0939 69.6921 38.4331 67.9291 43.6186C66.1921 48.7277 63.3699 53.326 59.5766 57.3389C55.4032 61.7538 50.9005 66.2021 45.0127 67.8614C38.7951 69.6138 32.0857 69.1001 26.2916 66.7197C20.4852 64.3344 15.8543 59.9156 12.7865 54.6224C9.82085 49.5056 8.94846 43.5057 9.37452 37.5315C9.78524 31.7725 11.1417 25.7445 15.1622 21.3102C18.9799 17.0998 25.2753 16.6741 30.478 14.2567Z" fill="#FCF0F0"/>
<mask id="mask0_455_185" style="mask-type:alpha" maskUnits="userSpaceOnUse" x="17" y="14" width="48" height="49">
<rect x="17" y="30.0005" width="36" height="36" transform="rotate(-24.8646 17 30.0005)" fill="#D9D9D9"/>
</mask>
<g mask="url(#mask0_455_185)">
<path d="M48.8745 49.2891C48.9262 49.2863 48.9695 49.2769 49.0044 49.2607C49.0393 49.2445 49.0745 49.2176 49.11 49.18L55.9675 42.9911C55.7546 42.7146 55.5008 42.5445 55.2062 42.4807C54.9116 42.4169 54.6266 42.4489 54.351 42.5766L47.686 45.6654C47.0921 45.9406 46.577 46.1518 46.1407 46.2989C45.7044 46.446 45.2317 46.5442 44.7226 46.5936L42.2631 46.8846C41.9481 46.9245 41.67 46.8415 41.4286 46.6355C41.1872 46.4294 41.0472 46.1705 41.0087 45.8588C40.9702 45.547 41.0469 45.2699 41.2386 45.0274C41.4304 44.7848 41.6843 44.6433 42.0004 44.6028L44.0571 44.4031C44.5296 44.3432 45.0332 44.2226 45.5682 44.0415C46.1032 43.8603 46.7795 43.5887 47.5972 43.2268L47.9612 43.0581C47.8051 42.7213 47.5946 42.466 47.3295 42.2921C47.0646 42.1181 46.7884 42.0458 46.501 42.0751L37.2609 42.8346C37.2307 42.838 37.2037 42.8426 37.1798 42.8483C37.156 42.8541 37.131 42.863 37.1048 42.8751L34.587 44.042L37.8376 51.0561L48.8745 49.2891ZM49.2698 51.5348L38.8152 53.1655C38.9211 53.8011 38.8149 54.3998 38.4966 54.9616C38.1784 55.5235 37.7532 55.9277 37.221 56.1744L35.3367 57.0476C34.6601 57.3612 33.9693 57.3887 33.2643 57.1301C32.5592 56.8716 32.0499 56.4041 31.7364 55.7276L27.9764 47.6143C27.6629 46.9377 27.6354 46.2469 27.8939 45.5419C28.1524 44.8368 28.6199 44.3275 29.2965 44.014L36.1437 40.8408C36.2864 40.7746 36.4382 40.7233 36.5993 40.6868C36.7605 40.6503 36.9135 40.6239 37.0586 40.6075L46.3424 39.8532C47.0659 39.7956 47.7663 39.9622 48.4434 40.3531C49.1206 40.744 49.6403 41.3304 50.0025 42.112L53.405 40.5352C54.3821 40.0824 55.3243 40.0289 56.2316 40.3746C57.139 40.7203 57.8259 41.3965 58.2925 42.4032C58.4712 42.7889 58.513 43.1467 58.4181 43.4769C58.3231 43.807 58.1008 44.1368 57.7511 44.4663L50.6812 50.8553C50.4919 51.0321 50.2752 51.1796 50.0312 51.298C49.7872 51.4164 49.5334 51.4953 49.2698 51.5348ZM33.7778 54.7815C33.8344 54.9036 33.9201 54.9858 34.035 55.0279C34.1499 55.0701 34.2685 55.0628 34.3906 55.0062L36.275 54.133C36.3971 54.0764 36.4823 53.9971 36.5305 53.8953C36.5787 53.7935 36.5684 53.6684 36.4997 53.5201L32.5456 44.988L30.2425 46.0554C30.1203 46.112 30.0382 46.1977 29.9961 46.3126C29.954 46.4276 29.9612 46.5461 30.0178 46.6682L33.7778 54.7815ZM37.2801 24.7163C37.5277 24.6015 37.7885 24.5263 38.0623 24.4905C38.3361 24.4547 38.6206 24.4627 38.9159 24.5145L47.8667 26.1974C48.2982 26.2687 48.6874 26.4396 49.0343 26.7102C49.3812 26.9808 49.6476 27.3167 49.8336 27.718L53.499 35.6273C53.633 35.9165 53.6475 36.2042 53.5425 36.4906C53.4374 36.7769 53.2402 36.9871 52.9509 37.1212C52.6616 37.2553 52.3738 37.2698 52.0878 37.1647C51.8017 37.0597 51.5916 36.8625 51.4576 36.5733L47.7764 28.63C47.7441 28.5602 47.6985 28.5019 47.6397 28.4549C47.5808 28.408 47.5107 28.3769 47.4295 28.3616L38.526 26.7808C38.432 26.7608 38.3413 26.7711 38.2541 26.8115C38.1668 26.8519 38.1004 26.9145 38.0549 26.9992L33.5058 34.8143C33.465 34.8862 33.4434 34.9598 33.4412 35.035C33.4389 35.1102 33.454 35.1827 33.4864 35.2525L34.2323 36.8622C34.3663 37.1514 34.3808 37.4391 34.2758 37.7255C34.1707 38.0118 33.9735 38.222 33.6842 38.3561C33.3948 38.4902 33.1071 38.5047 32.8211 38.3996C32.535 38.2946 32.3249 38.0974 32.1909 37.8082L31.4607 36.2326C31.2747 35.8313 31.1906 35.4109 31.2084 34.9713C31.2262 34.5317 31.3474 34.1243 31.5719 33.7489L36.0737 25.8317C36.225 25.573 36.402 25.3511 36.6046 25.166C36.8072 24.981 37.0324 24.8311 37.2801 24.7163ZM39.5373 33.1478C39.7013 33.0718 39.8163 32.9438 39.8823 32.7637C39.9483 32.5837 39.9433 32.4117 39.8673 32.2477C39.7913 32.0837 39.6633 31.9687 39.4832 31.9027C39.3032 31.8367 39.1312 31.8417 38.9672 31.9177C38.8032 31.9937 38.6882 32.1217 38.6222 32.3017C38.5562 32.4817 38.5612 32.6537 38.6372 32.8178C38.7132 32.9818 38.8412 33.0968 39.0212 33.1628C39.2013 33.2288 39.3733 33.2238 39.5373 33.1478ZM42.2592 31.8864C42.4232 31.8103 42.5382 31.6823 42.6042 31.5023C42.6702 31.3223 42.6652 31.1503 42.5892 30.9863C42.5132 30.8223 42.3852 30.7072 42.2051 30.6412C42.0251 30.5752 41.8531 30.5802 41.6891 30.6563C41.5251 30.7323 41.4101 30.8603 41.3441 31.0403C41.2781 31.2203 41.2831 31.3923 41.3591 31.5563C41.4351 31.7204 41.5631 31.8354 41.7432 31.9014C41.9232 31.9674 42.0952 31.9624 42.2592 31.8864ZM40.7987 35.8697C40.9627 35.7937 41.0777 35.6657 41.1437 35.4857C41.2097 35.3056 41.2047 35.1336 41.1287 34.9696C41.0527 34.8056 40.9247 34.6906 40.7447 34.6246C40.5646 34.5586 40.3926 34.5636 40.2286 34.6396C40.0646 34.7156 39.9496 34.8436 39.8836 35.0236C39.8176 35.2036 39.8226 35.3757 39.8986 35.5397C39.9746 35.7037 40.1026 35.8187 40.2827 35.8847C40.4627 35.9507 40.6347 35.9457 40.7987 35.8697ZM43.5206 34.6083C43.6846 34.5323 43.7996 34.4042 43.8656 34.2242C43.9316 34.0442 43.9266 33.8722 43.8506 33.7082C43.7746 33.5442 43.6466 33.4292 43.4666 33.3632C43.2866 33.2971 43.1145 33.3022 42.9505 33.3782C42.7865 33.4542 42.6715 33.5822 42.6055 33.7622C42.5395 33.9422 42.5445 34.1142 42.6205 34.2783C42.6965 34.4423 42.8245 34.5573 43.0046 34.6233C43.1846 34.6893 43.3566 34.6843 43.5206 34.6083Z" fill="#CC0000"/>
</g>
</svg>
