<svg width="26" height="24" viewBox="0 0 26 24" fill="none" xmlns="http://www.w3.org/2000/svg">
<path d="M0.442383 2.78787C0.442383 1.97978 0.725219 1.31311 1.29087 0.787878C1.85651 0.262618 2.59188 0 3.49692 0C4.38582 0 5.10499 0.258569 5.6545 0.775756C6.22014 1.30909 6.50298 2.00402 6.50298 2.8606C6.50298 3.63636 6.22824 4.2828 5.67874 4.79999C5.11309 5.33332 4.36965 5.59999 3.44844 5.59999H3.4242C2.5353 5.59999 1.81613 5.33332 1.26662 4.79999C0.717122 4.26666 0.442383 3.59595 0.442383 2.78787ZM0.757534 24V7.80605H6.13934V24H0.757534ZM9.12116 24H14.503V14.9576C14.503 14.3919 14.5676 13.9555 14.6969 13.6485C14.9232 13.099 15.2666 12.6343 15.7272 12.2545C16.1878 11.8747 16.7656 11.6848 17.4605 11.6848C19.2706 11.6848 20.1757 12.905 20.1757 15.3454V24H25.5575V14.7151C25.5575 12.3232 24.9918 10.5091 23.8605 9.27271C22.7292 8.03635 21.2343 7.41817 19.3757 7.41817C17.2908 7.41817 15.6666 8.31514 14.503 10.1091V10.1576H14.4787L14.503 10.1091V7.80605H9.12116C9.15347 8.32321 9.16964 9.93128 9.16964 12.6303C9.16964 15.3293 9.15347 19.1191 9.12116 24Z" fill="#BB1D19"/>
</svg>
