<svg width="24" height="24" viewBox="0 0 24 24" fill="none" xmlns="http://www.w3.org/2000/svg">
<path d="M12 0.625C9.75024 0.625 7.551 1.29213 5.68039 2.54203C3.80978 3.79193 2.35182 5.56847 1.49088 7.64698C0.629929 9.72548 0.404666 12.0126 0.843573 14.2192C1.28248 16.4257 2.36584 18.4525 3.95667 20.0433C5.54749 21.6342 7.57432 22.7175 9.78085 23.1564C11.9874 23.5953 14.2745 23.3701 16.353 22.5091C18.4315 21.6482 20.2081 20.1902 21.458 18.3196C22.7079 16.449 23.375 14.2498 23.375 12C23.3718 8.98414 22.1724 6.09271 20.0398 3.96018C17.9073 1.82764 15.0159 0.628185 12 0.625ZM16.9941 9.99406L10.8691 16.1191C10.7878 16.2004 10.6913 16.265 10.5851 16.309C10.4789 16.353 10.365 16.3757 10.25 16.3757C10.135 16.3757 10.0212 16.353 9.91493 16.309C9.80871 16.265 9.71221 16.2004 9.63094 16.1191L7.00594 13.4941C6.84176 13.3299 6.74952 13.1072 6.74952 12.875C6.74952 12.6428 6.84176 12.4201 7.00594 12.2559C7.17013 12.0918 7.39281 11.9995 7.625 11.9995C7.8572 11.9995 8.07988 12.0918 8.24407 12.2559L10.25 14.263L15.7559 8.75594C15.8372 8.67464 15.9338 8.61015 16.04 8.56615C16.1462 8.52216 16.26 8.49951 16.375 8.49951C16.49 8.49951 16.6038 8.52216 16.71 8.56615C16.8163 8.61015 16.9128 8.67464 16.9941 8.75594C17.0754 8.83723 17.1399 8.93375 17.1838 9.03996C17.2278 9.14618 17.2505 9.26003 17.2505 9.375C17.2505 9.48997 17.2278 9.60382 17.1838 9.71003C17.1399 9.81625 17.0754 9.91277 16.9941 9.99406Z" fill="#E3000F"/>
</svg>
