<svg width="54" height="63" viewBox="0 0 54 63" fill="none" xmlns="http://www.w3.org/2000/svg">
<path fill-rule="evenodd" clip-rule="evenodd" d="M30.478 14.2567C35.6878 11.8359 40.0804 7.48686 45.7667 7.08954C51.9453 6.65782 58.4769 8.0898 62.9636 11.9868C67.4127 15.851 68.7084 22.0136 69.6175 27.8053C70.4477 33.0939 69.6921 38.4331 67.9291 43.6186C66.1921 48.7277 63.3699 53.326 59.5766 57.3389C55.4032 61.7538 50.9005 66.2021 45.0127 67.8614C38.7951 69.6138 32.0857 69.1001 26.2916 66.7197C20.4852 64.3344 15.8543 59.9156 12.7865 54.6224C9.82085 49.5056 8.94846 43.5057 9.37452 37.5315C9.78524 31.7725 11.1417 25.7445 15.1622 21.3102C18.9799 17.0998 25.2753 16.6741 30.478 14.2567Z" fill="#FCF0F0"/>
<mask id="mask0_455_222" style="mask-type:alpha" maskUnits="userSpaceOnUse" x="17" y="14" width="48" height="49">
<rect x="17" y="30.0005" width="36" height="36" transform="rotate(-24.8646 17 30.0005)" fill="#D9D9D9"/>
</mask>
<g mask="url(#mask0_455_222)">
<path d="M48.1174 27.5818C47.0793 28.0629 46.0271 28.1081 44.9611 27.7172C43.895 27.3264 43.1215 26.6118 42.6403 25.5737C42.1592 24.5355 42.1141 23.4834 42.505 22.4174C42.8958 21.3513 43.6104 20.5777 44.6485 20.0966C45.6867 19.6155 46.7388 19.5704 47.8048 19.9612C48.8709 20.3521 49.6444 21.0666 50.1256 22.1048C50.6067 23.1429 50.6518 24.195 50.2609 25.2611C49.8701 26.3271 49.1555 27.1007 48.1174 27.5818ZM48.7135 49.1952C47.5758 49.7224 46.459 49.7832 45.3628 49.3777C44.2666 48.9722 43.4594 48.2102 42.9411 47.0918C42.1826 45.4551 42.1868 43.6701 42.9536 41.7368C43.7204 39.8034 45.052 38.2278 46.9483 37.0098C46.4035 36.0584 45.8344 35.4282 45.2408 35.1194C44.6473 34.8105 44.0164 34.8109 43.3481 35.1206C42.6153 35.4602 41.9776 36.1081 41.4351 37.0642C40.8927 38.0204 40.3686 39.4486 39.8631 41.3489C39.1851 43.9289 38.5796 45.7175 38.0467 46.7148C37.5137 47.7121 36.8015 48.4173 35.9098 48.8305C34.8664 49.3141 33.8259 49.3338 32.7881 48.8895C31.7503 48.4453 30.9637 47.6456 30.4284 46.4906C29.9093 45.3704 29.6179 44.0944 29.5542 42.6625C29.4904 41.2306 29.6551 39.4571 30.0483 37.3418C30.2319 36.4026 30.33 35.6503 30.3425 35.0849C30.3549 34.5195 30.2912 34.0859 30.1513 33.7841C30.0495 33.5642 29.9239 33.4248 29.7746 33.3657C29.6254 33.3066 29.4548 33.3216 29.2629 33.4105C29.0971 33.4874 28.9338 33.6176 28.7731 33.8013C28.6123 33.9849 28.4632 34.2347 28.3256 34.5507C28.1653 34.9366 27.9108 35.2188 27.5622 35.3973C27.2136 35.5758 26.8517 35.5962 26.4763 35.4586C26.0653 35.3036 25.7676 35.0362 25.5832 34.6564C25.3987 34.2767 25.3936 33.8907 25.5679 33.4983C25.8734 32.7993 26.2315 32.2137 26.6422 31.7415C27.0528 31.2692 27.5059 30.9183 28.0015 30.6887C28.9402 30.2536 29.8726 30.2041 30.7987 30.54C31.7249 30.876 32.4099 31.5229 32.8538 32.4808C33.1465 33.1124 33.3032 33.8792 33.3237 34.7811C33.3443 35.6829 33.2171 36.8779 32.9424 38.366C32.6621 39.952 32.5335 41.2913 32.5566 42.3838C32.5796 43.4764 32.7582 44.3829 33.0921 45.1036C33.2951 45.5415 33.5376 45.8499 33.8197 46.0286C34.1017 46.2073 34.378 46.234 34.6485 46.1087C34.9015 45.9914 35.1073 45.8124 35.2658 45.5714C35.4244 45.3305 35.6192 44.899 35.8502 44.2769C36.0101 43.8488 36.1782 43.33 36.3546 42.7205C36.531 42.111 36.7443 41.372 36.9947 40.5036C37.6359 38.1186 38.3426 36.3117 39.1148 35.0827C39.8869 33.8538 40.8732 32.9611 42.0736 32.4048C43.4974 31.745 44.8817 31.7022 46.2267 32.2764C47.5717 32.8507 48.7033 33.9731 49.6217 35.6437L51.4721 34.7862C51.8524 34.6099 52.2354 34.5925 52.6209 34.7338C53.0065 34.8752 53.2874 35.1361 53.4637 35.5164C53.64 35.8968 53.6574 36.2798 53.5161 36.6653C53.3747 37.0509 53.1138 37.3318 52.7335 37.5081L50.8831 38.3656C51.86 40.9035 52.1522 43.1531 51.7598 45.1144C51.3673 47.0756 50.3518 48.4359 48.7135 49.1952ZM47.4939 46.4539C48.3157 46.073 48.7896 45.2843 48.9154 44.0878C49.0413 42.8913 48.8056 41.4564 48.2082 39.7833C47.1078 40.5327 46.3028 41.4998 45.7932 42.6845C45.2835 43.8692 45.2251 44.8856 45.6181 45.7335C45.8016 46.1296 46.0611 46.3946 46.3966 46.5285C46.7321 46.6623 47.0978 46.6375 47.4939 46.4539Z" fill="#CC0000"/>
</g>
</svg>
