<svg width="12" height="20" viewBox="0 0 12 20" fill="none" xmlns="http://www.w3.org/2000/svg">
<path d="M8.45005 9.99999L1.10005 17.35C0.850049 17.6 0.729216 17.8917 0.737549 18.225C0.745882 18.5583 0.875049 18.85 1.12505 19.1C1.37505 19.35 1.66672 19.475 2.00005 19.475C2.33338 19.475 2.62505 19.35 2.87505 19.1L10.575 11.425C10.775 11.225 10.925 11 11.025 10.75C11.125 10.5 11.175 10.25 11.175 9.99999C11.175 9.74999 11.125 9.49999 11.025 9.24999C10.925 8.99999 10.775 8.77499 10.575 8.57499L2.87505 0.874988C2.62505 0.624988 2.32922 0.504155 1.98755 0.512488C1.64588 0.520822 1.35005 0.649988 1.10005 0.899988C0.850049 1.14999 0.725049 1.44165 0.725049 1.77499C0.725049 2.10832 0.850049 2.39999 1.10005 2.64999L8.45005 9.99999Z" fill="white"/>
</svg>
