<svg width="54" height="63" viewBox="0 0 54 63" fill="none" xmlns="http://www.w3.org/2000/svg">
<path fill-rule="evenodd" clip-rule="evenodd" d="M30.478 14.2567C35.6878 11.8359 40.0804 7.48686 45.7667 7.08954C51.9453 6.65782 58.4769 8.0898 62.9636 11.9868C67.4127 15.851 68.7084 22.0136 69.6175 27.8053C70.4477 33.0939 69.6921 38.4331 67.9291 43.6186C66.1921 48.7277 63.3699 53.326 59.5766 57.3389C55.4032 61.7538 50.9005 66.2021 45.0127 67.8614C38.7951 69.6138 32.0857 69.1001 26.2916 66.7197C20.4852 64.3344 15.8543 59.9156 12.7865 54.6224C9.82085 49.5056 8.94846 43.5057 9.37452 37.5315C9.78524 31.7725 11.1417 25.7445 15.1622 21.3102C18.9799 17.0998 25.2753 16.6741 30.478 14.2567Z" fill="#FCF0F0"/>
<mask id="mask0_455_278" style="mask-type:alpha" maskUnits="userSpaceOnUse" x="17" y="14" width="48" height="49">
<rect x="17" y="30.0005" width="36" height="36" transform="rotate(-24.8646 17 30.0005)" fill="#D9D9D9"/>
</mask>
<g mask="url(#mask0_455_278)">
<path d="M52.2478 45.1727L54.263 44.2387C54.3852 44.1821 54.4673 44.0964 54.5094 43.9815C54.5516 43.8665 54.5443 43.748 54.4877 43.6259L46.0459 25.4101C45.9893 25.2879 45.9035 25.2058 45.7886 25.1636C45.6737 25.1215 45.5552 25.1287 45.4331 25.1854L43.4179 26.1193C43.2957 26.1759 43.2135 26.2616 43.1714 26.3766C43.1293 26.4914 43.1365 26.61 43.1931 26.7321L51.6349 44.9479C51.6915 45.0701 51.7773 45.1522 51.8922 45.1944C52.0071 45.2365 52.1257 45.2293 52.2478 45.1727ZM35.5461 44.3286C35.8797 44.174 36.1072 43.9315 36.2285 43.6011C36.3499 43.2708 36.3333 42.9388 36.1788 42.6052C36.0242 42.2717 35.7817 42.0442 35.4513 41.9228C35.121 41.8015 34.789 41.8181 34.4555 41.9727C34.1219 42.1272 33.8944 42.3697 33.773 42.7001C33.6517 43.0304 33.6683 43.3624 33.8229 43.696C33.9774 44.0295 34.2199 44.257 34.5502 44.3784C34.8806 44.4998 35.2126 44.4831 35.5461 44.3286ZM37.4383 48.4114C37.7718 48.2568 37.9993 48.0144 38.1207 47.684C38.2421 47.3536 38.2255 47.0217 38.0709 46.6881C37.9163 46.3546 37.6738 46.1271 37.3435 46.0057C37.0131 45.8843 36.6812 45.9009 36.3476 46.0555C36.014 46.2101 35.7865 46.4526 35.6652 46.7829C35.5438 47.1133 35.5604 47.4453 35.715 47.7788C35.8696 48.1124 36.112 48.3399 36.4424 48.4613C36.7727 48.5826 37.1047 48.566 37.4383 48.4114ZM33.634 40.0642L41.6951 36.3284C42.0436 36.1669 42.2811 35.9136 42.4076 35.5686C42.5341 35.2236 42.5166 34.8768 42.3551 34.5283L41.2878 32.2251C41.1262 31.8766 40.873 31.6391 40.5279 31.5126C40.1829 31.3861 39.8361 31.4036 39.4876 31.5651L31.4266 35.3009C31.078 35.4624 30.8405 35.7157 30.714 36.0607C30.5875 36.4057 30.605 36.7525 30.7665 37.101L31.8339 39.4042C31.9954 39.7527 32.2487 39.9902 32.5937 40.1167C32.9387 40.2432 33.2855 40.2257 33.634 40.0642ZM39.629 42.4364C39.9626 42.2818 40.19 42.0394 40.3114 41.709C40.4328 41.3786 40.4162 41.0467 40.2616 40.7131C40.107 40.3796 39.8646 40.1521 39.5342 40.0307C39.2039 39.9093 38.8719 39.9259 38.5383 40.0805C38.2047 40.2351 37.9773 40.4776 37.8559 40.8079C37.7345 41.1383 37.7512 41.4703 37.9057 41.8038C38.0603 42.1374 38.3028 42.3648 38.6331 42.4862C38.9635 42.6076 39.2954 42.591 39.629 42.4364ZM41.5211 46.5193C41.8547 46.3647 42.0822 46.1222 42.2036 45.7919C42.3249 45.4615 42.3083 45.1295 42.1538 44.796C41.9992 44.4624 41.7567 44.235 41.4263 44.1136C41.096 43.9922 40.764 44.0088 40.4305 44.1634C40.0969 44.318 39.8694 44.5604 39.748 44.8908C39.6267 45.2212 39.6433 45.5531 39.7979 45.8867C39.9525 46.2202 40.1949 46.4477 40.5253 46.5691C40.8556 46.6905 41.1876 46.6739 41.5211 46.5193ZM43.7119 40.5443C44.0454 40.3897 44.2729 40.1472 44.3943 39.8169C44.5157 39.4865 44.4991 39.1545 44.3445 38.821C44.1899 38.4874 43.9474 38.2599 43.6171 38.1386C43.2867 38.0172 42.9548 38.0338 42.6212 38.1884C42.2876 38.343 42.0601 38.5854 41.9388 38.9158C41.8174 39.2462 41.834 39.5781 41.9886 39.9117C42.1432 40.2452 42.3856 40.4727 42.716 40.5941C43.0463 40.7155 43.3783 40.6989 43.7119 40.5443ZM45.604 44.6272C45.9376 44.4726 46.1651 44.2301 46.2864 43.8997C46.4078 43.5694 46.3912 43.2374 46.2366 42.9038C46.0821 42.5703 45.8396 42.3428 45.5092 42.2214C45.1789 42.1001 44.8469 42.1167 44.5133 42.2713C44.1798 42.4258 43.9523 42.6683 43.8309 42.9987C43.7095 43.329 43.7262 43.661 43.8807 43.9946C44.0353 44.3281 44.2778 44.5556 44.6081 44.677C44.9385 44.7984 45.2704 44.7817 45.604 44.6272ZM49.1569 44.9518L41.5884 28.6204L28.2405 34.8062C28.1184 34.8628 28.0363 34.9485 27.9941 35.0635C27.952 35.1784 27.9592 35.2969 28.0158 35.419L35.1962 50.9129C35.2528 51.0351 35.3386 51.1172 35.4535 51.1594C35.5684 51.2015 35.6869 51.1943 35.8091 51.1377L49.1569 44.9518ZM53.1939 47.214C52.6964 47.4446 52.1995 47.5206 51.7034 47.4422C51.2072 47.3637 50.7636 47.1724 50.3725 46.8683L36.7551 53.179C36.0786 53.4925 35.3878 53.5201 34.6827 53.2616C33.9777 53.0031 33.4684 52.5355 33.1548 51.859L25.9744 36.3651C25.6609 35.6885 25.6334 34.9977 25.8919 34.2927C26.1504 33.5876 26.618 33.0783 27.2945 32.7648L40.9119 26.454C40.9326 25.9591 41.0734 25.4969 41.3343 25.0676C41.5951 24.6383 41.9743 24.3084 42.4718 24.0779L44.487 23.144C45.1635 22.8304 45.8543 22.8029 46.5594 23.0614C47.2645 23.3199 47.7738 23.7875 48.0873 24.464L56.5291 42.6798C56.8426 43.3564 56.8702 44.0472 56.6116 44.7522C56.3531 45.4573 55.8856 45.9666 55.2091 46.2801L53.1939 47.214Z" fill="#CC0000"/>
</g>
</svg>
