<svg width="54" height="63" viewBox="0 0 54 63" fill="none" xmlns="http://www.w3.org/2000/svg">
<path fill-rule="evenodd" clip-rule="evenodd" d="M30.478 14.2567C35.6878 11.8359 40.0804 7.48686 45.7667 7.08954C51.9453 6.65782 58.4769 8.0898 62.9636 11.9868C67.4127 15.851 68.7084 22.0136 69.6175 27.8053C70.4477 33.0939 69.6921 38.4331 67.9291 43.6186C66.1921 48.7277 63.3699 53.326 59.5766 57.3389C55.4032 61.7538 50.9005 66.2021 45.0127 67.8614C38.7951 69.6138 32.0857 69.1001 26.2916 66.7197C20.4852 64.3344 15.8543 59.9156 12.7865 54.6224C9.82085 49.5056 8.94846 43.5057 9.37452 37.5315C9.78524 31.7725 11.1417 25.7445 15.1622 21.3102C18.9799 17.0998 25.2753 16.6741 30.478 14.2567Z" fill="#FCF0F0"/>
<mask id="mask0_455_269" style="mask-type:alpha" maskUnits="userSpaceOnUse" x="17" y="14" width="48" height="49">
<rect x="17" y="30.0005" width="36" height="36" transform="rotate(-24.8646 17 30.0005)" fill="#D9D9D9"/>
</mask>
<g mask="url(#mask0_455_269)">
<path d="M36.8279 50.7291C35.8465 51.1839 34.853 51.227 33.8476 50.8584C32.8422 50.4897 32.1121 49.8147 31.6573 48.8333L31.4479 48.9303C30.7714 49.2438 30.0806 49.2714 29.3755 49.0128C28.6704 48.7543 28.1612 48.2868 27.8476 47.6102L23.8233 38.9265C23.5071 38.2442 23.4785 37.5511 23.7375 36.8471C23.9965 36.1431 24.4643 35.6344 25.1408 35.3208L42.1553 27.4357C42.4784 27.286 42.8141 27.2034 43.1626 27.1879C43.511 27.1724 43.8473 27.2234 44.1715 27.3407L53.3631 30.5587C53.6987 30.6745 54.0005 30.8547 54.2686 31.0993C54.5366 31.3439 54.7483 31.6336 54.9035 31.9686L56.0873 34.523C56.4009 35.1996 56.4284 35.8904 56.1699 36.5954C55.9114 37.3005 55.4438 37.8098 54.7673 38.1233C55.2221 39.1048 55.2652 40.0982 54.8966 41.1036C54.528 42.109 53.8529 42.8391 52.8715 43.294C51.89 43.7488 50.8966 43.7919 49.8912 43.4232C48.8858 43.0546 48.1557 42.3796 47.7009 41.3982L38.7237 45.5585C39.1765 46.5355 39.2191 47.5279 38.8515 48.5354C38.4839 49.543 37.8094 50.2742 36.8279 50.7291ZM43.3931 34.7786L49.8316 31.7948L43.2973 29.5294C43.2375 29.5147 43.1786 29.5076 43.1205 29.508C43.0624 29.5085 43.0072 29.5208 42.9548 29.5451L41.319 30.3031L43.3931 34.7786ZM35.5677 38.4052L41.3517 35.7247L39.2776 31.2492L33.4936 33.9297L35.5677 38.4052ZM27.7422 42.0318L33.5263 39.3512L31.4522 34.8758L26.0869 37.3622C25.9647 37.4188 25.8826 37.5046 25.8405 37.6195C25.7983 37.7344 25.8056 37.853 25.8622 37.9751L27.7422 42.0318ZM35.9789 48.8971C36.4552 48.6763 36.7816 48.3253 36.9581 47.844C37.1346 47.3626 37.1125 46.8838 36.8917 46.4075C36.671 45.9311 36.3199 45.6047 35.8386 45.4283C35.3573 45.2518 34.8785 45.2739 34.4021 45.4947C33.9258 45.7154 33.5994 46.0665 33.4229 46.5478C33.2464 47.0291 33.2686 47.5079 33.4893 47.9843C33.7101 48.4606 34.0611 48.787 34.5424 48.9635C35.0237 49.14 35.5026 49.1178 35.9789 48.8971ZM52.0225 41.4619C52.4988 41.2412 52.8252 40.8902 53.0017 40.4088C53.1782 39.9275 53.156 39.4487 52.9353 38.9724C52.7145 38.496 52.3635 38.1696 51.8822 37.9931C51.4009 37.8167 50.922 37.8388 50.4457 38.0596C49.9694 38.2803 49.643 38.6313 49.4665 39.1127C49.29 39.594 49.3121 40.0728 49.5329 40.5491C49.7536 41.0255 50.1047 41.3519 50.586 41.5284C51.0673 41.7048 51.5461 41.6827 52.0225 41.4619ZM37.0554 43.8518L47.4771 39.022C47.5776 38.4795 47.8028 37.9491 48.1529 37.4308C48.503 36.9124 48.9842 36.5114 49.5967 36.2275C50.2091 35.9437 50.8166 35.8323 51.4193 35.8932C52.0219 35.9541 52.5818 36.1286 53.0989 36.4167L53.8212 36.0819C53.9434 36.0253 54.0255 35.9396 54.0677 35.8247C54.1098 35.7097 54.1026 35.5912 54.046 35.4691L52.8452 32.878L28.6882 44.0732L29.889 46.6642C29.9456 46.7863 30.0314 46.8685 30.1463 46.9106C30.2612 46.9528 30.3797 46.9455 30.5019 46.8889L31.4336 46.4571C31.534 45.9146 31.7593 45.3842 32.1093 44.8659C32.4594 44.3475 32.9407 43.9465 33.5531 43.6627C34.1655 43.3788 34.7731 43.2674 35.3757 43.3283C35.9783 43.3892 36.5382 43.5637 37.0554 43.8518Z" fill="#CC0000"/>
</g>
</svg>
