<svg width="36" height="36" viewBox="0 0 36 36" fill="none" xmlns="http://www.w3.org/2000/svg">
<path d="M18.0001 35.9997C27.9411 35.9997 35.9999 27.9409 35.9999 17.9998C35.9999 8.0588 27.9411 0 18.0001 0C8.05905 0 0.000244141 8.0588 0.000244141 17.9998C0.000244141 27.9409 8.05905 35.9997 18.0001 35.9997Z" fill="white"/>
<path d="M29.026 12.9361C28.2546 13.2781 27.4249 13.5094 26.5547 13.6128C27.4432 13.0804 28.125 12.2382 28.4468 11.2329C27.6155 11.7261 26.6943 12.0838 25.7147 12.2767C24.9298 11.4408 23.8116 10.9185 22.5734 10.9185C20.1977 10.9185 18.2709 12.8452 18.2709 15.2209C18.2709 15.5582 18.3091 15.8864 18.3829 16.2015C14.8072 16.0221 11.6367 14.3093 9.51454 11.7055C9.14427 12.3408 8.93185 13.0804 8.93185 13.8688C8.93185 15.3611 9.69198 16.6786 10.8458 17.45C10.1409 17.4278 9.477 17.2343 8.8972 16.9112C8.89688 16.9295 8.89688 16.9478 8.89688 16.9658C8.89688 19.0504 10.3806 20.7892 12.3484 21.1842C11.9878 21.283 11.6069 21.3353 11.2151 21.3353C10.9373 21.3353 10.668 21.3087 10.4056 21.2586C10.953 22.9675 12.5416 24.2115 14.4247 24.2465C12.952 25.4007 11.097 26.0883 9.08073 26.0883C8.7342 26.0883 8.39088 26.0681 8.05493 26.028C9.95798 27.2492 12.2201 27.9612 14.6497 27.9612C22.5634 27.9612 26.8913 21.4053 26.8913 15.7192C26.8913 15.5328 26.8871 15.347 26.8787 15.1628C27.7201 14.5564 28.4494 13.7989 29.026 12.9361Z" fill="#1F1C1C"/>
</svg>
