<svg width="36" height="36" viewBox="0 0 36 36" fill="none" xmlns="http://www.w3.org/2000/svg">
<g clip-path="url(#clip0_869_838)">
<path d="M18.0001 35.9997C27.9411 35.9997 35.9999 27.9409 35.9999 17.9998C35.9999 8.0588 27.9411 0 18.0001 0C8.05905 0 0.000244141 8.0588 0.000244141 17.9998C0.000244141 27.9409 8.05905 35.9997 18.0001 35.9997Z" fill="#CC0000"/>
<path d="M29.026 12.9359C28.2546 13.278 27.4249 13.5093 26.5547 13.6126C27.4432 13.0803 28.125 12.238 28.4468 11.2328C27.6155 11.726 26.6943 12.0837 25.7147 12.2766C24.9298 11.4407 23.8116 10.9183 22.5734 10.9183C20.1977 10.9183 18.2709 12.8451 18.2709 15.2208C18.2709 15.558 18.3091 15.8863 18.3829 16.2014C14.8072 16.022 11.6367 14.3092 9.51454 11.7054C9.14427 12.3407 8.93185 13.0803 8.93185 13.8687C8.93185 15.361 9.69198 16.6785 10.8458 17.4498C10.1409 17.4277 9.477 17.2342 8.8972 16.9111C8.89688 16.9294 8.89688 16.9477 8.89688 16.9657C8.89688 19.0503 10.3806 20.7891 12.3484 21.1841C11.9878 21.2829 11.6069 21.3352 11.2151 21.3352C10.9373 21.3352 10.668 21.3086 10.4056 21.2585C10.953 22.9674 12.5416 24.2114 14.4247 24.2464C12.952 25.4005 11.097 26.0882 9.08073 26.0882C8.7342 26.0882 8.39088 26.0679 8.05493 26.0278C9.95798 27.249 12.2201 27.961 14.6497 27.961C22.5634 27.961 26.8913 21.4051 26.8913 15.7191C26.8913 15.5327 26.8871 15.3469 26.8787 15.1627C27.7201 14.5563 28.4494 13.7987 29.026 12.9359Z" fill="white"/>
</g>
<defs>
<clipPath id="clip0_869_838">
<rect width="36" height="36" fill="white"/>
</clipPath>
</defs>
</svg>
