<svg width="18" height="10" viewBox="0 0 18 10" fill="none" xmlns="http://www.w3.org/2000/svg">
<path d="M0.969444 8.46896L8.46945 0.968957C8.5391 0.899224 8.62182 0.843905 8.71287 0.806162C8.80392 0.768419 8.90151 0.748993 9.00007 0.748993C9.09863 0.748993 9.19623 0.768419 9.28728 0.806162C9.37833 0.843905 9.46104 0.899225 9.5307 0.968957L17.0307 8.46896C17.1714 8.60969 17.2505 8.80056 17.2505 8.99958C17.2505 9.19861 17.1714 9.38948 17.0307 9.53021C16.89 9.67094 16.6991 9.75 16.5001 9.75C16.301 9.75 16.1102 9.67094 15.9694 9.53021L9.00007 2.55989L2.0307 9.53021C1.96101 9.59989 1.87829 9.65516 1.78724 9.69288C1.6962 9.73059 1.59862 9.75 1.50007 9.75C1.40152 9.75 1.30394 9.73059 1.2129 9.69288C1.12185 9.65516 1.03913 9.59989 0.969444 9.53021C0.899763 9.46052 0.844488 9.3778 0.806776 9.28675C0.769064 9.19571 0.749653 9.09813 0.749653 8.99958C0.749653 8.90104 0.769064 8.80345 0.806776 8.71241C0.844488 8.62136 0.899763 8.53864 0.969444 8.46896Z" fill="#312F33"/>
</svg>
