<svg width="54" height="63" viewBox="0 0 54 63" fill="none" xmlns="http://www.w3.org/2000/svg">
<path fill-rule="evenodd" clip-rule="evenodd" d="M30.478 14.2567C35.6878 11.8359 40.0804 7.48686 45.7667 7.08954C51.9453 6.65782 58.4769 8.0898 62.9636 11.9868C67.4127 15.851 68.7084 22.0136 69.6175 27.8053C70.4477 33.0939 69.6921 38.4331 67.9291 43.6186C66.1921 48.7277 63.3699 53.326 59.5766 57.3389C55.4032 61.7538 50.9005 66.2021 45.0127 67.8614C38.7951 69.6138 32.0857 69.1001 26.2916 66.7197C20.4852 64.3344 15.8543 59.9156 12.7865 54.6224C9.82085 49.5056 8.94846 43.5057 9.37452 37.5315C9.78524 31.7725 11.1417 25.7445 15.1622 21.3102C18.9799 17.0998 25.2753 16.6741 30.478 14.2567Z" fill="#FCF0F0"/>
<mask id="mask0_455_297" style="mask-type:alpha" maskUnits="userSpaceOnUse" x="17" y="14" width="48" height="49">
<rect x="17" y="30.0005" width="36" height="36" transform="rotate(-24.8646 17 30.0005)" fill="#D9D9D9"/>
</mask>
<g mask="url(#mask0_455_297)">
<path d="M36.9914 55.0408C36.304 55.3594 35.6117 55.3909 34.9146 55.1353C34.2175 54.8798 33.7097 54.4082 33.3911 53.7208L28.3527 42.8488C27.5962 42.6526 26.9142 42.2591 26.3066 41.6685C25.6991 41.0779 25.3342 40.3054 25.2119 39.351L24.5048 34.2166C24.4211 33.5602 24.5152 32.956 24.7871 32.4039C25.059 31.8519 25.4969 31.436 26.1005 31.1562L44.6776 22.547C45.2813 22.2672 45.8745 22.1958 46.4572 22.3327C47.04 22.4696 47.5649 22.7859 48.032 23.2816L51.5307 27.154C52.1799 27.8642 52.5322 28.6393 52.5877 29.4794C52.6432 30.3195 52.5078 31.1056 52.1815 31.8376L57.2078 42.6833C57.5264 43.3708 57.5579 44.0631 57.3023 44.7601C57.0467 45.4572 56.5752 45.965 55.8877 46.2836L36.9914 55.0408ZM42.8112 34.9847C43.5545 34.6402 44.008 34.154 44.1716 33.526C44.3352 32.898 44.2621 32.339 43.9523 31.8488L40.6509 26.8929L37.3689 28.4139L39.8602 33.7897C40.1254 34.362 40.5484 34.7669 41.129 35.0044C41.7096 35.2419 42.2703 35.2353 42.8112 34.9847ZM36.6869 37.8229C37.3133 37.5326 37.7249 37.0886 37.9216 36.4908C38.1183 35.8931 38.084 35.3081 37.8188 34.7357L35.3275 29.3599L32.0454 30.8809L33.717 36.6558C33.8677 37.173 34.2372 37.5725 34.8256 37.8541C35.4139 38.1357 36.0344 38.1253 36.6869 37.8229ZM30.6307 40.6296C31.1349 40.3959 31.4871 40.0191 31.6871 39.4993C31.887 38.9796 31.9065 38.4338 31.7453 37.862L29.936 31.8585L27.0466 33.1976C26.8983 33.2663 26.7956 33.3536 26.7387 33.4595C26.6818 33.5654 26.6619 33.6939 26.6789 33.8449L27.4225 38.8797C27.5137 39.5475 27.8718 40.0985 28.4969 40.5326C29.122 40.9668 29.8333 40.9991 30.6307 40.6296ZM49.0036 32.1149C49.7399 31.7737 50.1695 31.2233 50.2923 30.4638C50.415 29.7042 50.2317 29.0616 49.7422 28.536L46.3012 24.7195C46.1969 24.6089 46.088 24.5454 45.9745 24.5291C45.861 24.5128 45.7301 24.539 45.5818 24.6078L42.7604 25.9153L46.1714 31.1765C46.5036 31.669 46.9325 32.007 47.4584 32.1904C47.9843 32.3738 48.4993 32.3486 49.0036 32.1149ZM36.0454 52.9994L54.9417 44.2423C55.0639 44.1856 55.146 44.0999 55.1881 43.985C55.2303 43.8701 55.223 43.7515 55.1664 43.6294L50.5743 33.7206C50.4511 33.8434 50.3428 33.9344 50.2494 33.9935C50.156 34.0527 50.0561 34.107 49.9496 34.1563C49.3372 34.4401 48.7471 34.579 48.1794 34.5729C47.6118 34.5668 46.9966 34.4206 46.334 34.1341C46.1492 34.7369 45.8546 35.2857 45.4501 35.7805C45.0457 36.2753 44.5093 36.6775 43.841 36.9872C43.2635 37.2549 42.6635 37.3872 42.0411 37.3842C41.4187 37.3812 40.7768 37.2585 40.1155 37.016C39.9044 37.6628 39.5884 38.2294 39.1674 38.716C38.7464 39.2025 38.2629 39.5723 37.7167 39.8254C37.1026 40.1101 36.4752 40.2657 35.8347 40.2923C35.1942 40.3189 34.557 40.1834 33.9231 39.8858C33.616 40.7233 33.2629 41.3437 32.8638 41.747C32.4646 42.1503 32.0356 42.4583 31.5767 42.6709C31.4703 42.7202 31.3573 42.7646 31.2378 42.8041C31.1183 42.8436 30.9859 42.8642 30.8404 42.8659L35.4325 52.7747C35.4891 52.8969 35.5749 52.979 35.6898 53.0212C35.8047 53.0633 35.9232 53.0561 36.0454 52.9994Z" fill="#CC0000"/>
</g>
</svg>
