<svg width="36" height="36" viewBox="0 0 36 36" fill="none" xmlns="http://www.w3.org/2000/svg">
<g clip-path="url(#clip0_869_848)">
<path d="M18 0C8.064 0 0 8.064 0 18C0 27.936 8.064 36 18 36C27.936 36 36 27.936 36 18C36 8.064 27.936 0 18 0ZM18 28.656C12.114 28.656 7.344 23.886 7.344 18C7.344 12.114 12.114 7.344 18 7.344C23.886 7.344 28.656 12.114 28.656 18C28.656 23.886 23.886 28.656 18 28.656ZM18 8.658C12.852 8.658 8.658 12.852 8.658 18C8.658 23.148 12.852 27.342 18 27.342C23.148 27.342 27.342 23.148 27.342 18C27.342 12.852 23.148 8.658 18 8.658ZM14.526 23.31V12.69L23.724 18L14.526 23.31Z" fill="#CC0000"/>
</g>
<defs>
<clipPath id="clip0_869_848">
<rect width="36" height="36" fill="white"/>
</clipPath>
</defs>
</svg>
